<?xml version="1.0" standalone="no"?>
<!DOCTYPE svg PUBLIC "-//W3C//DTD SVG 20010904//EN"
 "http://www.w3.org/TR/2001/REC-SVG-20010904/DTD/svg10.dtd">
<svg version="1.0" xmlns="http://www.w3.org/2000/svg"
 width="438.000000pt" height="52.000000pt" viewBox="0 0 438.000000 52.000000"
 preserveAspectRatio="xMidYMid meet">

<g transform="translate(0.000000,52.000000) scale(0.100000,-0.100000)"
fill="#000000" stroke="none">
<path d="M266 429 c-41 -11 -95 -67 -106 -110 -23 -85 38 -187 114 -191 108
-5 143 11 172 79 28 66 22 73 -56 73 -56 0 -70 -3 -70 -15 0 -11 13 -15 54
-15 47 0 54 -2 49 -18 -2 -10 -15 -32 -28 -48 -21 -26 -29 -29 -78 -29 -48 0
-60 4 -86 29 -17 16 -35 44 -42 63 -31 94 83 193 172 149 17 -9 36 -13 41 -10
16 10 -24 46 -45 40 -11 -2 -29 -1 -41 3 -11 4 -34 4 -50 0z"/>
<path d="M1190 280 c0 -127 2 -150 15 -150 13 0 15 23 15 144 0 119 -3 145
-15 150 -13 5 -15 -15 -15 -144z"/>
<path d="M1633 390 c-42 -25 -63 -68 -63 -127 0 -54 22 -94 66 -124 39 -26
126 -23 161 4 32 25 15 47 -18 23 -14 -9 -43 -16 -70 -16 -41 0 -51 4 -78 35
-26 30 -31 44 -31 85 0 41 5 53 31 79 39 39 97 46 144 15 20 -13 35 -10 35 7
0 16 -60 39 -102 39 -25 0 -56 -8 -75 -20z"/>
<path d="M1860 264 c0 -112 3 -145 13 -142 9 3 13 44 15 146 2 122 0 142 -13
142 -13 0 -15 -22 -15 -146z"/>
<path d="M2520 355 c0 -51 -2 -56 -17 -49 -10 4 -34 9 -54 12 -42 5 -74 -22
-88 -73 -9 -34 9 -92 36 -112 21 -16 67 -17 95 -2 15 8 22 8 28 -1 4 -7 12
-10 18 -6 16 10 11 278 -5 283 -10 4 -13 -11 -13 -52z m-17 -87 c38 -45 10
-118 -47 -118 -68 0 -95 81 -42 127 32 27 60 24 89 -9z"/>
<path d="M3970 401 c0 -5 18 -25 41 -46 37 -33 46 -36 92 -35 29 1 58 1 65 1
8 -1 12 -22 12 -69 0 -66 1 -69 40 -107 l40 -39 0 152 0 152 -145 0 c-80 0
-145 -4 -145 -9z"/>
<path d="M3090 371 c-10 -20 -100 -242 -100 -248 0 -2 16 -3 35 -3 29 0 36 4
41 25 6 23 10 25 68 25 57 0 64 -2 74 -25 9 -19 19 -25 42 -25 16 0 30 4 30
10 0 5 -25 64 -55 132 -53 121 -55 123 -89 126 -27 2 -37 -2 -46 -17z m74
-128 c7 -21 4 -23 -28 -23 -41 0 -42 3 -20 56 l16 38 13 -24 c7 -14 16 -35 19
-47z"/>
<path d="M3320 255 l0 -135 30 0 30 0 0 75 c0 41 3 75 7 75 4 0 22 -14 40 -32
l33 -32 40 39 40 39 0 -82 0 -82 30 0 30 0 0 135 0 135 -24 0 c-15 0 -40 -17
-70 -50 l-47 -51 -46 51 c-30 34 -53 50 -69 50 l-24 0 0 -135z"/>
<path d="M3657 383 c-4 -3 -7 -64 -7 -135 l0 -128 68 0 c90 0 135 14 167 52
24 29 27 38 23 92 -5 67 -29 97 -96 115 -41 12 -145 15 -155 4z m166 -72 c51
-51 7 -141 -69 -141 l-34 0 0 86 0 87 41 -6 c23 -3 51 -15 62 -26z"/>
<path d="M519 291 c-74 -75 0 -193 101 -162 109 32 84 191 -30 191 -33 0 -48
-6 -71 -29z m111 -21 c39 -39 12 -120 -40 -120 -29 0 -60 36 -60 70 0 34 31
70 60 70 11 0 29 -9 40 -20z"/>
<path d="M1010 307 c-14 -7 -34 -29 -45 -50 l-20 -37 20 -37 c22 -42 63 -70
89 -60 9 4 20 7 24 8 4 0 14 5 23 10 15 8 16 4 7 -29 -5 -20 -10 -42 -10 -47
-2 -20 -86 -9 -104 14 -9 11 -13 12 -19 1 -12 -20 34 -50 78 -50 27 0 45 7 62
25 24 23 25 30 25 139 l0 115 -32 -1 c-18 0 -42 2 -53 6 -11 3 -31 0 -45 -7z
m83 -31 c11 -8 18 -28 19 -51 3 -70 -70 -105 -107 -52 -47 67 25 151 88 103z"/>
<path d="M1286 289 c-58 -68 -15 -169 72 -169 23 0 49 7 62 18 20 16 21 19 6
31 -14 12 -19 11 -36 -4 -16 -15 -26 -17 -48 -9 -43 15 -32 36 33 63 33 14 61
26 63 27 6 4 -21 49 -37 61 -9 7 -32 13 -53 13 -28 0 -42 -7 -62 -31z m94 -9
c19 -12 7 -24 -42 -45 -36 -15 -38 -14 -38 4 0 19 34 51 55 51 5 0 17 -5 25
-10z"/>
<path d="M1955 296 c-65 -65 -27 -176 60 -176 47 0 71 14 90 50 23 45 19 84
-14 119 -38 41 -99 44 -136 7z m120 -29 c22 -32 18 -75 -9 -101 -49 -50 -127
2 -111 74 12 55 89 72 120 27z"/>
<path d="M2154 305 c-4 -8 -4 -47 -2 -86 3 -55 8 -74 23 -85 25 -18 65 -18 93
2 20 14 22 14 22 0 0 -9 7 -16 15 -16 12 0 15 18 15 100 0 82 -3 100 -15 100
-12 0 -15 -14 -15 -66 0 -83 -11 -104 -53 -104 -48 0 -57 15 -57 97 0 69 -12
95 -26 58z"/>
<path d="M3998 263 c-36 -36 -38 -43 -38 -101 l0 -62 58 0 c55 0 60 2 102 45
l44 45 -61 0 -62 0 -3 56 -3 55 -37 -38z"/>
</g>
</svg>
