<?xml version="1.0" standalone="no"?>
<!DOCTYPE svg PUBLIC "-//W3C//DTD SVG 20010904//EN"
 "http://www.w3.org/TR/2001/REC-SVG-20010904/DTD/svg10.dtd">
<svg version="1.0" xmlns="http://www.w3.org/2000/svg"
 width="2000.000000pt" height="1500.000000pt" viewBox="0 0 2000.000000 1500.000000"
 preserveAspectRatio="xMidYMid meet">

<g transform="translate(0.000000,1500.000000) scale(0.100000,-0.100000)"
fill="#000000" stroke="none">
<path d="M10046 12365 c-88 -31 -156 -140 -156 -249 0 -153 107 -261 260 -261
60 0 150 26 150 44 0 3 -7 24 -16 47 l-16 41 -36 -18 c-168 -86 -317 122 -191
266 42 47 93 61 151 40 24 -9 50 -19 59 -21 12 -4 21 6 33 36 9 23 14 45 11
50 -10 17 -100 40 -154 40 -31 -1 -73 -7 -95 -15z"/>
<path d="M8955 12216 c-163 -75 -202 -284 -78 -417 82 -88 197 -109 307 -55
91 45 144 130 145 236 2 187 -203 316 -374 236z m171 -85 c109 -50 137 -188
54 -271 -58 -58 -125 -64 -197 -20 -137 83 -78 303 82 309 11 0 38 -8 61 -18z"/>
<path d="M10901 11999 c-44 -134 -77 -246 -73 -250 9 -8 313 -109 328 -109 9
0 34 61 34 83 0 4 -53 23 -117 43 -65 20 -120 38 -122 40 -3 2 3 29 12 58 l18
54 101 -34 c56 -19 105 -31 109 -27 10 12 29 75 25 82 -3 4 -47 20 -98 36 -51
16 -96 32 -101 35 -10 9 23 100 36 100 7 0 62 -16 122 -35 61 -19 110 -35 111
-35 7 0 23 85 17 90 -4 4 -73 29 -153 55 -80 26 -150 50 -156 52 -8 3 -42 -87
-93 -238z"/>
<path d="M8056 11776 c-39 -15 -167 -98 -187 -123 -9 -10 23 -61 136 -218 81
-113 150 -205 153 -205 3 0 23 12 44 26 25 17 35 31 30 38 -5 6 -27 36 -50 67
l-41 56 29 22 29 21 92 -35 93 -36 47 33 c26 18 47 33 46 34 -1 1 -47 20 -102
42 -65 27 -99 45 -96 54 9 34 1 99 -18 136 -41 81 -126 117 -205 88z m95 -115
c42 -42 39 -75 -13 -123 -23 -21 -46 -37 -51 -35 -5 1 -29 30 -53 64 l-44 61
48 31 c59 38 76 39 113 2z"/>
<path d="M11781 11596 c-78 -107 -144 -201 -147 -209 -5 -13 18 -35 62 -60 7
-4 29 19 53 53 23 33 46 62 50 65 5 2 21 -5 36 -16 26 -22 26 -22 20 -118 l-7
-96 45 -33 c25 -17 48 -32 51 -32 3 0 6 33 6 73 0 39 3 88 6 108 6 34 9 37 45
42 51 7 104 47 130 99 28 55 22 124 -15 173 -27 35 -167 145 -185 145 -5 0
-73 -88 -150 -194z m266 -25 c12 -50 -48 -111 -98 -98 -13 4 -38 19 -56 35
l-32 27 45 63 45 62 45 -32 c25 -17 47 -43 51 -57z"/>
<path d="M7314 11101 c-152 -109 -182 -287 -71 -408 67 -72 120 -98 202 -98
58 0 78 5 117 27 61 36 113 99 138 165 34 91 31 100 -65 168 -46 33 -86 59
-90 58 -3 -1 -30 -35 -59 -75 l-54 -73 40 -29 c42 -31 46 -30 79 26 9 17 11
17 34 2 31 -21 31 -40 0 -86 -39 -57 -86 -81 -149 -76 -127 11 -195 135 -131
243 20 35 42 56 103 101 3 2 -48 84 -53 84 -1 0 -20 -13 -41 -29z"/>
<path d="M12497 10929 c-140 -106 -197 -155 -193 -165 9 -23 200 -273 209
-274 5 0 24 12 42 26 l34 26 -74 98 c-41 55 -75 103 -75 109 0 5 19 23 41 40
l42 30 64 -84 c35 -47 69 -85 76 -85 21 1 69 49 61 63 -4 6 -34 47 -66 89
l-58 77 39 30 c21 17 43 31 49 31 5 0 42 -43 81 -95 39 -52 75 -95 79 -95 4 0
21 13 39 28 l32 27 -102 137 c-56 76 -106 137 -112 137 -5 0 -99 -68 -208
-150z"/>
<path d="M8880 10335 c0 -28 4 -35 20 -35 19 0 20 -7 20 -90 0 -65 3 -90 13
-90 6 0 22 -3 35 -6 22 -6 22 -5 22 90 l0 96 1175 0 1175 0 0 -185 0 -185
-1075 0 c-951 0 -1074 -2 -1069 -15 5 -13 134 -15 1075 -15 l1069 0 0 -195 0
-195 -1010 0 c-893 0 -1009 -2 -1004 -15 5 -13 127 -15 1010 -15 l1004 0 0
-190 0 -190 -930 0 c-820 0 -930 -2 -930 -15 0 -13 110 -15 930 -15 l930 0 0
-185 0 -185 -924 0 -923 0 -6 -60 c-6 -69 -24 -102 -70 -130 -35 -22 -106 -26
-138 -10 -18 10 -19 7 -19 -55 l0 -65 1171 0 1170 0 -3 23 c-3 20 -9 22 -70
25 l-68 3 0 134 c0 131 0 134 -22 137 -23 3 -23 5 -26 186 l-2 182 25 0 c31 0
34 27 3 32 -23 3 -23 5 -26 191 l-2 187 25 0 c31 0 34 27 3 32 -23 3 -23 4
-23 193 0 189 0 190 23 193 31 5 29 32 -3 32 l-25 0 0 185 0 185 25 0 c22 0
25 4 25 35 l0 35 -1290 0 -1290 0 0 -35z"/>
<path d="M9317 10224 c-4 -4 -7 -14 -7 -21 0 -11 16 -13 73 -11 56 2 72 6 72
18 0 12 -15 16 -65 18 -36 2 -69 0 -73 -4z"/>
<path d="M9535 10220 c-13 -22 12 -31 76 -28 49 2 64 7 64 18 0 12 -15 16 -67
18 -41 2 -69 -1 -73 -8z"/>
<path d="M9735 10220 c-13 -22 12 -31 76 -28 49 2 64 7 64 18 0 12 -15 16 -67
18 -41 2 -69 -1 -73 -8z"/>
<path d="M9937 10224 c-4 -4 -7 -14 -7 -21 0 -11 16 -13 73 -11 56 2 72 6 72
18 0 12 -15 16 -65 18 -36 2 -69 0 -73 -4z"/>
<path d="M10900 10100 l0 -130 50 0 50 0 0 130 0 130 -50 0 -50 0 0 -130z"/>
<path d="M11040 10100 l0 -130 50 0 50 0 0 130 0 130 -50 0 -50 0 0 -130z"/>
<path d="M10430 10155 l0 -55 116 0 115 0 -3 53 -3 52 -112 3 -113 3 0 -56z"/>
<path d="M9310 10070 l0 -100 75 0 75 0 0 100 0 100 -75 0 -75 0 0 -100z"/>
<path d="M9530 10070 l0 -100 75 0 75 0 0 100 0 100 -75 0 -75 0 0 -100z"/>
<path d="M9730 10070 l0 -100 75 0 75 0 0 100 0 100 -75 0 -75 0 0 -100z"/>
<path d="M9930 10070 l0 -100 75 0 76 0 -3 98 -3 97 -72 3 -73 3 0 -101z"/>
<path d="M13070 10143 c-49 -26 -70 -69 -79 -164 -10 -94 -31 -126 -75 -115
-36 9 -50 40 -56 121 l-5 70 -38 6 c-48 8 -51 1 -45 -95 11 -163 118 -247 238
-186 50 26 71 67 77 150 6 85 19 119 50 126 47 12 90 -68 77 -142 -6 -31 -5
-32 36 -36 22 -2 43 -2 46 1 12 13 2 140 -15 176 -42 92 -132 129 -211 88z"/>
<path d="M6943 10080 c-123 -10 -228 -20 -234 -22 -6 -2 71 -80 172 -173 101
-93 198 -182 215 -198 l32 -29 15 46 16 46 -41 38 -41 38 29 82 29 82 53 0
c50 0 54 2 66 33 33 79 34 77 -31 76 -32 -1 -158 -10 -280 -19z m93 -115 c-3
-13 -11 -36 -16 -50 l-10 -27 -52 44 -52 43 55 6 c29 3 60 6 68 7 9 2 11 -5 7
-23z"/>
<path d="M10320 10020 l0 -50 110 0 110 0 0 50 0 50 -110 0 -110 0 0 -50z"/>
<path d="M10590 10020 l0 -50 115 0 115 0 0 50 0 50 -115 0 -115 0 0 -50z"/>
<path d="M8840 10048 c-19 -7 -58 -35 -86 -63 -40 -40 -54 -62 -64 -103 -26
-110 20 -213 119 -264 95 -49 196 -34 272 42 141 141 51 383 -148 395 -32 2
-74 -1 -93 -7z"/>
<path d="M9208 9790 l-5 -30 199 0 198 0 0 30 0 30 -194 0 -194 0 -4 -30z"/>
<path d="M9690 9790 l0 -30 210 0 210 0 0 30 0 30 -210 0 -210 0 0 -30z"/>
<path d="M10550 9765 l0 -55 70 0 70 0 0 55 0 55 -70 0 -70 0 0 -55z"/>
<path d="M10720 9765 l0 -55 70 0 70 0 0 55 0 55 -70 0 -70 0 0 -55z"/>
<path d="M10890 9765 l0 -55 70 0 70 0 0 55 0 55 -70 0 -70 0 0 -55z"/>
<path d="M9197 9733 c-4 -3 -7 -39 -7 -79 0 -66 2 -72 23 -78 12 -3 102 -6
200 -6 l177 0 0 85 0 85 -193 0 c-107 0 -197 -3 -200 -7z"/>
<path d="M9700 9655 l0 -85 200 0 200 0 0 85 0 85 -200 0 -200 0 0 -85z"/>
<path d="M10210 9625 l0 -55 70 0 70 0 0 55 0 55 -70 0 -70 0 0 -55z"/>
<path d="M10380 9625 l0 -55 70 0 70 0 0 55 0 55 -70 0 -70 0 0 -55z"/>
<path d="M10550 9625 l0 -55 70 0 70 0 0 55 0 55 -70 0 -70 0 0 -55z"/>
<path d="M10720 9625 l0 -55 70 0 70 0 0 55 0 55 -70 0 -70 0 0 -55z"/>
<path d="M10890 9625 l0 -55 70 0 70 0 0 55 0 55 -70 0 -70 0 0 -55z"/>
<path d="M11060 9625 l0 -55 70 0 70 0 0 55 0 55 -70 0 -70 0 0 -55z"/>
<path d="M8776 9565 c5 -28 3 -35 -10 -35 -19 0 -19 -1 -1 -120 8 -52 15 -98
15 -102 0 -5 61 -8 135 -8 154 0 136 -14 155 117 13 96 13 113 -5 113 -11 0
-13 8 -8 30 7 35 6 35 -64 13 l-53 -17 0 -43 c0 -36 -3 -43 -19 -43 -16 0 -20
8 -23 42 -3 43 -3 43 -66 65 l-63 23 7 -35z"/>
<path d="M8635 9511 c-68 -31 -133 -115 -172 -225 -43 -123 -68 -368 -57 -565
6 -112 9 -127 30 -148 31 -30 78 -30 108 0 23 23 24 29 29 268 5 245 15 329
50 409 14 33 15 23 17 -170 l2 -205 44 205 c31 144 43 218 39 250 -15 130 -28
200 -39 200 -6 0 -29 -9 -51 -19z"/>
<path d="M9118 9403 l-17 -128 44 -205 43 -205 2 210 2 210 19 -41 c35 -77 51
-206 54 -429 1 -115 5 -217 9 -226 8 -19 48 -39 76 -39 10 0 31 10 46 23 26
23 27 26 32 169 11 337 -45 600 -153 711 -36 37 -102 77 -127 77 -9 0 -18 -38
-30 -127z"/>
<path d="M9440 9431 c0 -19 6 -21 56 -21 47 0 55 3 52 18 -2 13 -15 18 -56 20
-47 3 -52 1 -52 -17z"/>
<path d="M9700 9430 c0 -17 7 -20 50 -20 43 0 50 3 50 20 0 17 -7 20 -50 20
-43 0 -50 -3 -50 -20z"/>
<path d="M9977 9443 c-4 -3 -7 -12 -7 -20 0 -9 16 -13 55 -13 48 0 55 2 55 20
0 17 -7 20 -48 20 -27 0 -52 -3 -55 -7z"/>
<path d="M10270 9430 c0 -18 7 -20 55 -20 48 0 55 2 55 20 0 18 -7 20 -55 20
-48 0 -55 -2 -55 -20z"/>
<path d="M10530 9431 c0 -19 6 -21 56 -21 47 0 55 3 52 18 -2 13 -15 18 -56
20 -47 3 -52 1 -52 -17z"/>
<path d="M10770 9430 c0 -18 7 -20 55 -20 48 0 55 2 55 20 0 18 -7 20 -55 20
-48 0 -55 -2 -55 -20z"/>
<path d="M11040 9430 c0 -18 7 -20 55 -20 48 0 55 2 55 20 0 18 -7 20 -55 20
-48 0 -55 -2 -55 -20z"/>
<path d="M9415 9377 c-3 -7 3 -37 14 -67 18 -50 20 -52 20 -22 l1 32 65 0 65
0 0 -65 0 -65 -53 0 c-30 0 -56 -2 -59 -5 -3 -3 -3 -17 0 -31 4 -24 7 -25 66
-22 l61 3 3 107 c2 99 1 108 -20 127 -18 17 -35 21 -90 21 -46 0 -70 -4 -73
-13z"/>
<path d="M9667 9372 c-14 -15 -17 -40 -17 -130 l0 -112 100 0 100 0 0 113 c0
140 -5 147 -102 147 -50 0 -69 -4 -81 -18z m173 -117 l0 -65 -65 0 -65 0 0 65
0 65 65 0 65 0 0 -65z"/>
<path d="M9941 9369 c-33 -31 -21 -44 42 -47 l57 -3 0 -64 0 -65 -54 0 c-58 0
-71 -8 -61 -40 6 -18 15 -20 106 -20 l99 0 0 113 c0 140 -5 147 -101 147 -52
0 -70 -4 -88 -21z"/>
<path d="M10236 9371 c-14 -15 -16 -36 -14 -127 l3 -109 100 0 100 0 3 107 c3
137 -4 148 -106 148 -55 0 -72 -4 -86 -19z m174 -116 l0 -65 -60 0 -60 0 0 65
0 65 60 0 60 0 0 -65z"/>
<path d="M10497 9372 c-14 -15 -17 -40 -17 -130 l0 -112 100 0 100 0 0 113 c0
140 -5 147 -102 147 -50 0 -69 -4 -81 -18z m173 -117 l0 -65 -65 0 -65 0 0 65
0 65 65 0 65 0 0 -65z"/>
<path d="M10741 9373 c-20 -17 -22 -26 -19 -128 l3 -110 100 0 100 0 3 109 c3
138 -2 146 -98 146 -50 0 -74 -5 -89 -17z m169 -118 l0 -65 -60 0 -60 0 0 65
0 65 60 0 60 0 0 -65z"/>
<path d="M11010 9370 c-37 -37 -26 -50 40 -50 l60 0 0 -65 0 -64 -57 -3 c-54
-3 -58 -5 -58 -28 l0 -25 100 0 100 0 3 109 c3 138 -2 146 -100 146 -55 0 -72
-4 -88 -20z"/>
<path d="M6795 9076 c-107 -48 -152 -183 -95 -286 103 -184 380 -113 380 98 0
28 -5 63 -11 79 -14 38 -67 92 -106 109 -41 18 -129 17 -168 0z"/>
<path d="M13035 9076 c-38 -17 -90 -72 -104 -109 -18 -47 -13 -126 10 -175 38
-79 142 -125 226 -103 97 26 156 102 156 200 0 83 -47 156 -120 187 -41 18
-129 17 -168 0z"/>
<path d="M9768 9018 c7 -7 12 -22 12 -35 0 -21 -4 -23 -55 -23 l-55 0 0 -105
0 -105 215 0 215 0 0 105 0 105 -56 0 -56 0 4 35 4 35 -120 0 c-93 0 -117 -3
-108 -12z m192 -38 c0 -18 -7 -20 -80 -20 -73 0 -80 2 -80 20 0 18 7 20 80 20
73 0 80 -2 80 -20z"/>
<path d="M10348 8995 l4 -35 -56 0 -56 0 0 -105 0 -105 215 0 215 0 0 105 0
105 -55 0 c-51 0 -55 2 -55 23 0 13 5 28 12 35 9 9 -15 12 -108 12 l-120 0 4
-35z m192 -15 c0 -18 -7 -20 -80 -20 -73 0 -80 2 -80 20 0 18 7 20 80 20 73 0
80 -2 80 -20z"/>
<path d="M10888 9018 c7 -7 12 -22 12 -35 0 -21 -4 -23 -55 -23 l-55 0 0 -105
0 -105 215 0 215 0 0 105 0 105 -56 0 -56 0 4 35 4 35 -120 0 c-93 0 -117 -3
-108 -12z m192 -38 c0 -18 -7 -20 -80 -20 -73 0 -80 2 -80 20 0 18 7 20 80 20
73 0 80 -2 80 -20z"/>
<path d="M9490 8855 c0 -87 3 -105 15 -105 12 0 15 18 15 105 0 87 -3 105 -15
105 -12 0 -15 -18 -15 -105z"/>
<path d="M8642 8004 l3 -316 37 -34 c30 -27 46 -34 79 -34 49 0 90 22 113 60
14 24 16 66 16 303 l0 275 -72 12 c-40 7 -96 21 -125 31 l-54 18 3 -315z"/>
<path d="M9161 8308 c-30 -11 -132 -35 -183 -43 l-38 -6 0 -265 c0 -288 4
-312 55 -352 33 -26 92 -29 135 -7 59 30 61 44 58 378 l-3 304 -24 -9z"/>
<path d="M12660 8083 c-92 -104 -93 -251 -3 -296 79 -40 126 -26 219 63 65 63
90 72 117 42 32 -35 18 -89 -37 -149 l-34 -38 27 -34 27 -33 31 26 c45 38 93
138 93 194 0 81 -36 129 -113 150 -58 16 -98 -1 -171 -73 -36 -36 -73 -65 -81
-65 -73 0 -73 92 -2 159 l26 23 -27 34 c-15 19 -30 34 -33 34 -4 0 -21 -17
-39 -37z"/>
<path d="M6857 7974 l19 -49 54 -5 55 -5 28 -80 28 -80 -42 -36 -42 -37 19
-51 c10 -28 22 -50 26 -49 13 5 418 380 418 387 0 4 -111 15 -247 24 -137 10
-267 20 -291 24 l-43 5 18 -48z m353 -69 c0 -6 -66 -66 -86 -78 -10 -5 -18 3
-29 29 -8 20 -15 40 -15 45 0 5 29 9 65 9 36 0 65 -2 65 -5z"/>
<path d="M12260 7308 c-41 -56 -88 -118 -103 -139 l-28 -38 207 -156 c113 -86
207 -155 208 -153 2 2 47 62 101 133 54 72 102 135 107 141 6 8 -5 23 -30 42
l-39 31 -77 -104 c-84 -114 -80 -112 -141 -62 l-29 25 44 58 c24 33 54 73 67
90 l23 31 -40 28 c-22 15 -42 26 -43 24 -2 -2 -32 -41 -66 -86 -34 -46 -65
-83 -69 -83 -4 0 -24 15 -45 33 l-39 32 53 70 c29 39 63 84 76 101 l23 31 -38
27 c-21 14 -40 26 -43 26 -2 -1 -38 -46 -79 -102z"/>
<path d="M7560 7301 c-50 -16 -110 -52 -144 -87 -95 -98 -86 -254 22 -367 41
-43 107 -81 127 -73 35 13 166 119 162 130 -3 7 -27 42 -53 79 -51 70 -51 70
-103 28 l-25 -19 27 -35 27 -36 -29 -20 -29 -21 -36 41 c-61 72 -69 136 -27
205 27 45 119 88 167 80 51 -10 118 -75 140 -137 20 -54 20 -54 74 -38 l38 12
-13 43 c-48 160 -193 255 -325 215z"/>
<path d="M8154 6543 c-70 -98 -138 -192 -151 -209 l-23 -31 38 -27 c21 -14 41
-26 44 -26 3 0 24 27 47 60 23 33 47 60 52 60 5 0 20 -7 33 -15 22 -14 23 -20
19 -118 l-4 -102 42 -28 c22 -16 44 -25 48 -22 3 4 8 50 11 102 l5 96 55 18
c127 41 177 175 102 271 -22 29 -154 134 -183 146 -4 2 -64 -77 -135 -175z
m210 4 c31 -26 39 -41 39 -65 0 -42 -37 -82 -75 -82 -25 0 -108 44 -108 57 0
13 84 123 94 123 6 0 29 -15 50 -33z"/>
<path d="M11674 6687 c-54 -29 -164 -108 -164 -117 0 -4 60 -90 133 -191 73
-101 139 -194 148 -206 l15 -22 37 26 c20 14 37 30 37 35 0 5 -19 36 -42 69
l-42 59 22 23 22 22 99 -34 98 -34 42 29 c22 16 41 31 41 35 0 3 -44 23 -97
45 -69 28 -97 44 -94 54 19 76 -24 177 -89 211 -47 25 -115 24 -166 -4z m131
-102 c27 -26 32 -70 12 -95 -16 -21 -68 -60 -78 -60 -10 0 -89 105 -89 119 0
18 73 61 103 61 16 0 38 -10 52 -25z"/>
<path d="M10923 6287 c-83 -29 -155 -55 -158 -59 -7 -7 141 -465 154 -480 4
-5 82 17 175 48 139 47 166 59 161 73 -4 9 -9 28 -12 44 -3 15 -9 27 -12 27
-4 0 -61 -18 -126 -40 -65 -22 -120 -40 -121 -40 -7 0 -32 106 -26 111 4 4 51
21 104 38 l96 32 -15 45 c-8 24 -16 44 -17 44 -1 0 -48 -16 -105 -35 -72 -24
-103 -31 -106 -22 -3 7 -11 31 -19 54 l-15 42 112 37 c62 20 115 40 120 43 9
9 -16 84 -29 87 -5 1 -77 -21 -161 -49z"/>
<path d="M9088 6259 c-120 -18 -218 -134 -218 -260 0 -71 44 -165 97 -205 146
-111 367 -44 417 127 20 67 20 94 -1 158 -40 126 -161 199 -295 180z m118
-109 c48 -24 68 -49 83 -106 21 -79 -26 -170 -104 -199 -77 -30 -158 3 -194
79 -26 52 -26 89 -2 141 43 94 129 127 217 85z"/>
<path d="M10082 6130 c-126 -26 -203 -143 -189 -289 12 -139 113 -230 255
-231 60 0 168 33 160 49 -2 3 -10 23 -18 44 -16 41 -21 43 -54 22 -42 -28
-106 -29 -156 -3 -58 30 -83 74 -84 148 -1 46 4 65 26 97 46 70 117 89 195 54
l42 -19 15 46 c9 25 16 47 16 48 0 1 -17 9 -38 17 -52 21 -119 27 -170 17z"/>
<path d="M3291 4458 c-10 -24 -188 -434 -396 -912 -207 -478 -379 -875 -382
-883 -4 -11 25 -13 167 -11 l172 3 67 160 c37 88 70 166 75 173 5 9 79 12 300
12 l293 0 68 -175 69 -175 202 0 203 0 -123 283 c-573 1321 -681 1567 -688
1567 -5 0 -17 -19 -27 -42z m95 -948 c42 -107 78 -201 81 -207 4 -10 -34 -13
-172 -13 -145 0 -176 2 -172 14 53 137 174 413 179 408 4 -4 41 -95 84 -202z"/>
<path d="M4993 4440 c-224 -32 -383 -107 -524 -249 -162 -163 -243 -367 -256
-646 -20 -448 225 -777 663 -887 75 -19 116 -22 259 -22 146 0 182 3 255 23
166 45 270 87 338 138 l32 24 0 380 0 379 -330 0 -330 0 0 -170 0 -170 155 0
155 0 0 -109 0 -109 -42 -18 c-64 -26 -273 -32 -372 -9 -278 61 -441 281 -422
570 11 170 55 285 145 376 102 101 244 151 436 151 119 0 248 -27 358 -76 l55
-24 57 161 c51 148 55 163 39 174 -30 22 -187 75 -279 94 -105 22 -303 32
-392 19z"/>
<path d="M8425 4436 c-346 -57 -640 -323 -735 -666 -27 -97 -36 -262 -21 -368
51 -351 310 -644 656 -744 69 -19 103 -23 240 -23 123 1 175 5 225 19 328 91
576 338 662 660 31 114 30 326 0 441 -86 320 -351 584 -668 665 -100 26 -258
33 -359 16z m257 -337 c73 -15 183 -70 240 -119 64 -56 131 -160 164 -255 23
-67 28 -97 28 -185 0 -121 -16 -188 -72 -293 -46 -90 -129 -173 -217 -219 -91
-47 -139 -59 -240 -60 -160 -1 -279 47 -391 157 -358 352 -124 978 368 984 37
1 91 -4 120 -10z"/>
<path d="M10456 4439 c-96 -13 -238 -62 -321 -111 -90 -53 -220 -183 -273
-274 -50 -84 -94 -201 -117 -310 -21 -96 -24 -313 -6 -399 65 -314 245 -537
523 -648 124 -50 190 -61 368 -62 191 0 259 15 415 89 139 67 134 47 54 220
-38 82 -71 151 -73 153 -2 2 -32 -14 -66 -36 -121 -78 -253 -108 -407 -90
-104 12 -177 39 -251 93 -135 100 -212 271 -212 470 0 175 55 311 170 427 109
110 232 156 385 146 97 -7 173 -32 273 -92 41 -25 76 -44 78 -43 3 4 134 319
134 324 0 7 -124 66 -189 91 -135 51 -338 73 -485 52z"/>
<path d="M16835 4433 c-188 -26 -361 -138 -428 -276 -97 -199 -65 -428 77
-568 66 -65 145 -113 274 -169 237 -102 302 -143 338 -211 18 -36 18 -122 -1
-159 -20 -39 -74 -79 -131 -96 -63 -19 -191 -18 -268 2 -63 16 -197 77 -252
113 l-31 21 -74 -132 c-41 -72 -75 -134 -77 -138 -5 -12 147 -91 243 -126 140
-50 254 -67 405 -62 101 4 140 10 203 32 148 50 251 136 312 260 98 197 58
448 -93 587 -68 64 -133 100 -312 174 -253 104 -332 185 -300 304 25 95 101
137 245 135 102 -1 210 -31 329 -91 37 -19 70 -33 72 -31 2 2 31 62 64 133 50
105 59 131 48 141 -22 21 -170 91 -248 118 -107 35 -290 53 -395 39z"/>
<path d="M6170 3541 l0 -891 175 0 175 0 0 280 0 280 118 0 117 0 185 -280
185 -280 203 0 c160 0 202 3 196 13 -4 6 -97 151 -206 321 l-197 310 48 32
c90 61 152 149 198 280 25 71 27 93 28 219 0 111 -4 151 -19 195 -67 199 -209
325 -429 382 -74 19 -117 21 -429 25 l-348 5 0 -891z m736 522 c150 -80 180
-314 58 -437 -62 -62 -93 -70 -276 -74 l-168 -4 0 272 0 272 173 -4 c154 -3
176 -5 213 -25z"/>
<path d="M11520 3540 l0 -890 625 0 625 0 0 165 0 165 -450 0 -450 0 0 195 0
195 385 0 385 0 0 170 0 170 -385 0 -385 0 0 190 0 190 435 0 435 0 0 170 0
170 -610 0 -610 0 0 -890z"/>
<path d="M13140 3541 l0 -891 170 0 170 0 0 280 0 280 123 0 122 0 185 -280
185 -280 203 0 c160 0 202 3 196 13 -4 6 -97 151 -205 320 l-198 309 62 46
c82 62 147 158 183 270 26 78 29 100 29 222 0 144 -10 189 -63 295 -41 82
-147 179 -244 224 -147 68 -189 74 -575 79 l-343 4 0 -891z m736 522 c81 -43
122 -113 131 -222 9 -115 -43 -212 -141 -264 -37 -20 -56 -22 -211 -22 l-170
0 -3 268 -2 269 177 -4 c161 -3 182 -5 219 -25z"/>
<path d="M14800 3540 l0 -890 625 0 625 0 0 165 0 165 -450 0 -450 0 0 195 0
195 380 0 380 0 0 170 0 170 -380 0 -380 0 0 190 0 190 430 0 430 0 0 170 0
170 -605 0 -605 0 0 -890z"/>
</g>
</svg>
