<?xml version="1.0" standalone="no"?>
<!DOCTYPE svg PUBLIC "-//W3C//DTD SVG 20010904//EN"
 "http://www.w3.org/TR/2001/REC-SVG-20010904/DTD/svg10.dtd">
<svg version="1.0" xmlns="http://www.w3.org/2000/svg"
 width="1000.000000pt" height="750.000000pt" viewBox="0 0 1000.000000 750.000000"
 preserveAspectRatio="xMidYMid meet">

<g transform="translate(0.000000,750.000000) scale(0.100000,-0.100000)"
fill="#000000" stroke="none">
<path d="M7816 4417 c-468 -192 -469 -193 -447 -266 15 -51 34 -61 110 -61
l61 0 0 -480 0 -480 -54 0 c-36 0 -60 -5 -70 -16 -19 -18 -19 -20 -6 -45 10
-19 30 -19 838 -19 864 0 852 -1 852 42 0 24 -30 38 -84 38 l-46 0 0 480 0
480 65 0 c57 0 69 3 90 25 30 29 33 83 8 114 -20 24 -842 362 -877 360 -12 0
-210 -78 -440 -172z m849 -72 c215 -86 394 -161 400 -166 5 -5 -319 -9 -805
-8 -448 0 -810 3 -805 5 94 43 803 331 810 329 6 -1 186 -73 400 -160z m-965
-735 l0 -480 -40 0 -40 0 0 480 0 480 40 0 40 0 0 -480z m160 0 l0 -480 -40 0
-40 0 0 480 0 480 40 0 40 0 0 -480z m698 -2 l2 -478 -315 0 -315 0 0 480 0
480 313 -2 312 -3 3 -477z m160 0 l2 -478 -45 0 -45 0 0 473 c0 261 3 477 7
481 4 4 23 6 43 4 l35 -3 3 -477z m162 2 l0 -480 -45 0 -45 0 0 473 c0 261 3
477 7 480 3 4 24 7 45 7 l38 0 0 -480z"/>
<path d="M8227 3873 c-4 -3 -7 -16 -7 -27 0 -15 -13 -27 -42 -41 -78 -38 -100
-132 -42 -186 14 -13 60 -42 102 -64 70 -36 77 -43 77 -70 0 -21 -7 -33 -27
-45 -25 -14 -32 -13 -75 3 -82 31 -81 31 -95 2 -11 -24 -10 -29 11 -46 13 -10
41 -24 62 -30 31 -10 39 -17 39 -35 0 -13 5 -26 10 -29 14 -9 40 13 40 34 0
10 16 24 39 34 46 21 72 56 78 106 6 56 -24 94 -109 137 -112 56 -127 75 -88
114 24 24 70 26 112 4 31 -16 33 -16 50 6 10 12 18 26 18 31 0 14 -42 39 -77
45 -28 5 -33 10 -33 35 0 21 -5 29 -18 29 -10 0 -22 -3 -25 -7z"/>
<path d="M6544 4345 c-228 -50 -334 -241 -334 -605 0 -296 77 -488 223 -559
111 -54 245 -51 331 8 25 17 47 31 49 31 3 0 10 -13 17 -30 l12 -30 114 0 114
0 0 325 0 325 -180 0 -180 0 0 -110 0 -110 40 0 40 0 0 -74 0 -73 -31 -7
c-176 -35 -226 40 -217 329 5 164 19 219 66 255 34 27 131 26 247 -4 50 -13
92 -22 94 -20 4 4 51 270 51 290 0 19 -76 44 -179 59 -116 18 -196 18 -277 0z"/>
<path d="M850 3751 l0 -591 261 0 c290 0 367 10 440 59 48 33 94 97 111 155
18 64 15 202 -6 264 -18 52 -58 103 -105 133 l-25 16 41 37 c61 54 86 115 87
206 1 107 -18 165 -75 222 -75 75 -104 81 -441 86 l-288 4 0 -591z m430 319
c34 -18 49 -110 30 -181 -12 -42 -48 -62 -101 -57 l-34 3 -3 109 c-1 61 0 116
2 123 6 16 79 18 106 3z m19 -438 c26 -20 39 -100 31 -176 -8 -66 -35 -88
-104 -84 l-51 3 -3 138 -3 137 55 0 c36 0 61 -6 75 -18z"/>
<path d="M1935 4328 c-2 -7 -49 -265 -105 -573 -56 -308 -104 -568 -106 -577
-5 -17 7 -18 145 -18 172 0 151 -14 174 115 l13 70 114 0 115 0 17 -90 c9 -49
17 -91 18 -92 0 -2 70 -3 155 -3 122 0 155 3 155 13 0 8 -47 271 -105 585 -58
315 -105 574 -105 577 0 3 -108 5 -240 5 -184 0 -242 -3 -245 -12z m250 -360
c2 -13 16 -99 30 -193 15 -93 29 -178 31 -187 5 -16 -3 -18 -71 -18 l-77 0 5
28 c3 15 18 109 33 210 27 173 38 210 49 160z"/>
<path d="M2740 3750 l0 -590 140 0 140 0 0 276 c0 200 3 275 11 272 6 -2 66
-126 133 -276 l121 -272 153 0 152 0 0 590 0 590 -140 0 -140 0 -2 -282 c-2
-156 -7 -283 -11 -283 -5 0 -61 127 -125 283 l-117 282 -157 0 -158 0 0 -590z"/>
<path d="M3760 3750 l0 -590 160 0 160 0 0 225 c0 209 7 264 25 203 4 -13 36
-114 72 -225 l64 -203 180 0 179 0 -19 48 c-10 26 -58 154 -106 285 l-88 238
115 305 115 304 -174 -2 -175 -3 -82 -237 c-45 -131 -87 -243 -94 -250 -9 -9
-12 41 -12 240 l0 252 -160 0 -160 0 0 -590z"/>
<path d="M4710 3750 l0 -590 160 0 160 0 0 590 0 590 -160 0 -160 0 0 -590z"/>
<path d="M5210 3750 l0 -590 145 0 145 0 0 276 c0 189 3 275 11 272 5 -2 65
-126 131 -276 l122 -272 153 0 153 0 0 590 0 590 -140 0 -140 0 -2 -282 c-2
-179 -7 -282 -13 -281 -5 0 -62 127 -125 282 l-115 281 -162 0 -163 0 0 -590z"/>
<path d="M7378 2979 c-21 -12 -23 -40 -6 -57 9 -9 219 -12 885 -12 821 0 873
1 881 18 10 19 5 43 -12 54 -18 12 -1728 9 -1748 -3z"/>
</g>
</svg>
