<?xml version="1.0" standalone="no"?>
<!DOCTYPE svg PUBLIC "-//W3C//DTD SVG 20010904//EN"
 "http://www.w3.org/TR/2001/REC-SVG-20010904/DTD/svg10.dtd">
<svg version="1.0" xmlns="http://www.w3.org/2000/svg"
 width="1000.000000pt" height="750.000000pt" viewBox="0 0 1000.000000 750.000000"
 preserveAspectRatio="xMidYMid meet">

<g transform="translate(0.000000,750.000000) scale(0.100000,-0.100000)"
fill="#000000" stroke="none">
<path d="M1078 4326 c-91 -27 -171 -96 -211 -185 -18 -38 -22 -65 -22 -156 0
-100 2 -115 28 -167 36 -73 88 -118 222 -193 59 -33 116 -70 126 -84 25 -31
24 -66 -2 -92 -19 -19 -29 -21 -90 -16 -37 3 -104 16 -149 28 -44 12 -83 19
-87 16 -6 -7 -26 -257 -21 -263 8 -7 124 -34 193 -44 243 -34 390 23 464 179
23 50 26 68 26 166 0 102 -2 114 -30 169 -38 75 -87 117 -220 190 -150 82
-169 105 -126 157 16 20 27 24 78 22 32 0 97 -9 146 -18 48 -10 89 -16 92 -14
4 5 35 233 35 265 0 19 -8 23 -77 33 -125 19 -321 23 -375 7z"/>
<path d="M1990 4333 c-174 -31 -271 -120 -322 -297 -20 -72 -23 -102 -22 -276
0 -263 28 -374 124 -482 135 -154 480 -157 629 -6 101 102 151 306 137 558
-14 263 -77 395 -219 465 -77 37 -229 55 -327 38z m185 -313 c14 -13 28 -43
34 -72 13 -60 14 -378 1 -433 -13 -57 -49 -85 -110 -85 -66 0 -96 13 -117 52
-16 29 -18 60 -18 258 0 204 2 228 19 257 26 42 51 53 114 50 38 -3 59 -10 77
-27z"/>
<path d="M2690 3750 l0 -570 155 0 155 0 0 570 0 570 -155 0 -155 0 0 -570z"/>
<path d="M3180 3750 l0 -570 289 0 289 0 6 88 c4 48 9 104 11 125 l5 37 -145
0 -145 0 0 445 0 445 -155 0 -155 0 0 -570z"/>
<path d="M4230 3750 l0 -570 160 0 160 0 0 215 0 215 110 0 110 0 0 -215 0
-215 155 0 155 0 0 570 0 570 -155 0 -155 0 -2 -222 -3 -223 -107 -3 -108 -3
0 226 0 225 -160 0 -160 0 0 -570z"/>
<path d="M5237 4313 c-4 -3 -7 -260 -7 -570 l0 -563 309 0 310 0 5 53 c3 28 8
85 11 125 l6 72 -160 0 -161 0 0 100 0 100 130 0 130 0 0 120 0 120 -130 0
-130 0 0 85 0 85 149 0 149 0 6 63 c3 34 8 97 12 140 l6 77 -314 0 c-173 0
-318 -3 -321 -7z"/>
<path d="M6120 4312 c0 -5 -20 -116 -45 -248 -24 -131 -69 -376 -100 -544 -30
-168 -57 -313 -59 -322 -4 -17 8 -18 143 -18 l147 0 13 77 c7 42 15 82 18 90
4 10 32 13 113 13 l108 0 17 -90 17 -90 154 0 154 0 -5 23 c-11 51 -205 1101
-205 1112 0 3 -106 5 -235 5 -129 0 -235 -4 -235 -8z m240 -337 c0 -2 14 -88
30 -190 17 -102 30 -192 30 -200 0 -12 -15 -15 -70 -15 -38 0 -70 3 -70 8 0
34 65 402 72 402 4 0 8 -2 8 -5z"/>
<path d="M6900 3750 l0 -570 289 0 288 0 7 92 c3 50 6 106 6 125 l0 33 -140 0
-140 0 0 445 0 445 -155 0 -155 0 0 -570z"/>
<path d="M7489 4283 c-1 -21 -4 -82 -8 -136 l-6 -97 113 0 112 0 0 -435 0
-435 155 0 155 0 2 433 3 432 106 3 106 3 7 91 c3 50 6 111 6 135 l0 43 -375
0 -375 0 -1 -37z"/>
<path d="M8320 3750 l0 -570 155 0 155 0 2 213 3 212 108 3 107 3 0 -216 0
-215 155 0 155 0 0 570 0 570 -155 0 -155 0 0 -225 0 -226 -107 3 -108 3 0
223 0 222 -157 0 -158 0 0 -570z"/>
</g>
</svg>
