<?xml version="1.0" standalone="no"?>
<!DOCTYPE svg PUBLIC "-//W3C//DTD SVG 20010904//EN"
 "http://www.w3.org/TR/2001/REC-SVG-20010904/DTD/svg10.dtd">
<svg version="1.0" xmlns="http://www.w3.org/2000/svg"
 width="1000.000000pt" height="750.000000pt" viewBox="0 0 1000.000000 750.000000"
 preserveAspectRatio="xMidYMid meet">

<g transform="translate(0.000000,750.000000) scale(0.100000,-0.100000)"
fill="#000000" stroke="none">
<path d="M0 3750 l0 -3750 5000 0 5000 0 0 3750 0 3750 -5000 0 -5000 0 0
-3750z m5084 1598 c32 -54 56 -147 56 -213 0 -98 -29 -184 -110 -325 -20 -35
-26 -119 -11 -184 6 -27 7 -27 22 -10 9 11 22 35 28 54 14 44 64 106 101 125
40 21 190 45 274 45 l71 -1 -48 -19 c-26 -10 -64 -33 -84 -51 -43 -37 -102
-65 -225 -104 -77 -25 -89 -33 -107 -65 -20 -36 -21 -81 -5 -187 l5 -33 164 0
165 0 0 -27 c0 -16 -3 -38 -6 -50 l-6 -23 -333 0 -333 0 -6 23 c-3 12 -6 34
-6 50 l0 27 171 0 171 0 -7 63 c-6 56 -11 66 -53 109 -37 38 -59 51 -116 69
-97 29 -183 69 -237 110 -25 19 -61 41 -80 48 -75 28 -74 31 11 25 114 -7 217
-23 260 -41 49 -20 95 -67 119 -122 19 -44 38 -67 70 -86 12 -7 13 0 7 36 -4
24 -11 76 -15 116 -7 62 -15 81 -57 145 -46 69 -49 77 -49 138 1 51 8 81 34
140 18 41 42 100 52 130 21 60 64 130 79 130 5 0 20 -19 34 -42z m251 -1130
c-3 -13 -20 -99 -38 -193 l-33 -170 -220 -3 -220 -2 -12 47 c-6 27 -29 114
-51 196 l-39 147 309 0 309 0 -5 -22z m-1055 -298 l0 -50 -917 2 -918 3 -3 48
-3 47 920 0 921 0 0 -50z m3278 3 l-3 -48 -917 -3 -918 -2 0 50 0 50 921 0
920 0 -3 -47z m1551 -342 c13 -3 30 -16 38 -28 13 -19 12 -24 -6 -42 l-21 -21
-4120 0 c-4107 0 -4120 0 -4140 20 -11 11 -20 24 -20 28 0 13 32 39 55 45 31
7 8187 6 8214 -2z m-7870 -377 c65 -19 135 -84 150 -140 6 -22 11 -96 11 -166
l0 -128 -104 0 -104 0 -4 109 c-3 116 -13 141 -53 141 -48 0 -50 -13 -53 -334
-3 -309 2 -368 35 -380 52 -20 73 30 73 177 l0 97 111 0 111 0 -4 -147 c-4
-120 -8 -156 -25 -193 -42 -95 -145 -147 -272 -138 -109 8 -178 56 -223 153
-23 49 -23 56 -23 390 0 392 5 423 77 501 65 70 181 93 297 58z m1215 2 c105
-32 151 -96 167 -234 17 -137 6 -633 -15 -700 -37 -115 -145 -180 -281 -170
-128 11 -205 82 -234 216 -18 86 -15 643 4 717 32 122 115 184 251 185 33 0
82 -6 108 -14z m1504 -1 c100 -30 152 -106 168 -244 l7 -61 -117 0 -116 0 0
49 c0 59 -18 79 -58 65 -23 -8 -27 -16 -30 -51 -3 -42 -2 -44 136 -187 168
-173 182 -200 182 -355 0 -157 -36 -244 -120 -291 -39 -22 -57 -25 -140 -25
-79 0 -103 4 -143 24 -92 45 -127 124 -127 286 l0 105 104 0 104 0 4 -96 c2
-81 6 -98 22 -110 25 -18 37 -18 62 0 15 12 19 26 18 78 0 39 -7 76 -18 96
-10 19 -68 86 -131 150 -148 154 -160 176 -160 312 0 90 3 111 23 147 25 47
76 92 124 110 47 17 146 16 206 -2z m1258 -13 c84 -43 120 -117 131 -269 l6
-83 -105 0 -105 0 -5 75 c-3 41 -11 81 -18 90 -18 21 -54 19 -76 -6 -18 -20
-19 -40 -19 -340 0 -313 0 -319 22 -340 29 -30 67 -20 82 22 6 18 11 74 11
125 l0 94 -30 0 -30 0 0 95 0 95 135 0 135 0 0 -321 0 -320 -46 3 c-44 3 -47
5 -63 44 l-16 42 -35 -37 c-74 -76 -213 -82 -294 -11 -18 17 -44 54 -57 82
-24 52 -24 59 -27 406 -3 301 -1 361 13 408 21 73 81 139 144 159 66 21 194
15 247 -13z m579 17 c104 -26 162 -121 172 -281 l6 -88 -107 0 -106 0 0 63 c0
102 -37 142 -91 98 l-24 -19 -3 -254 c-5 -321 1 -393 33 -414 58 -38 85 8 85
146 l0 100 -30 0 -30 0 0 95 0 95 135 0 135 0 0 -320 0 -320 -44 0 c-43 0 -45
1 -61 44 l-17 44 -38 -38 c-93 -93 -269 -73 -333 38 -42 71 -47 121 -47 468 0
269 3 340 15 382 24 79 83 138 165 163 38 11 136 10 185 -2z m1133 -4 c95 -29
154 -116 164 -247 l5 -58 -114 0 -113 0 0 50 c0 38 -4 52 -19 60 -31 16 -49
12 -67 -15 -28 -43 -5 -82 131 -218 153 -152 177 -195 183 -332 7 -158 -34
-266 -121 -316 -36 -20 -55 -24 -132 -24 -201 0 -270 75 -282 308 l-6 107 112
0 111 0 0 -90 c0 -77 3 -93 20 -110 23 -23 33 -24 61 -10 16 9 19 22 19 76 0
40 -6 77 -16 97 -9 18 -68 85 -131 149 -140 144 -167 195 -167 308 0 44 7 96
17 126 21 60 78 119 133 139 52 19 149 19 212 0z m1447 -13 c52 -26 79 -56
107 -117 23 -49 23 -56 23 -400 0 -389 -4 -419 -68 -492 -52 -59 -99 -77 -202
-77 -105 0 -153 19 -204 81 -63 76 -66 100 -66 488 0 345 0 351 23 401 30 67
68 102 134 126 70 25 196 20 253 -10z m-6483 8 c44 -13 93 -66 108 -117 18
-66 23 -203 10 -268 -10 -48 -20 -67 -50 -96 l-38 -37 23 -12 c50 -27 55 -58
55 -319 l0 -241 -105 0 -105 0 0 223 c0 250 -5 270 -58 275 l-32 3 0 -250 0
-251 -110 0 -110 0 0 550 0 550 188 0 c103 0 204 -5 224 -10z m1199 -2 c55
-18 88 -47 114 -98 64 -126 55 -394 -17 -485 -34 -44 -92 -65 -180 -65 l-78 0
0 -220 0 -220 -110 0 -110 0 0 550 0 550 174 0 c104 0 186 -5 207 -12z m1319
-412 c0 -236 4 -436 9 -449 16 -41 69 -47 87 -9 5 9 10 212 12 450 l3 432 105
0 104 0 0 -433 c0 -476 -4 -519 -59 -587 -15 -19 -48 -46 -72 -60 -38 -21 -57
-25 -134 -25 -75 0 -98 4 -139 24 -52 26 -98 85 -116 151 -6 20 -10 221 -10
483 l0 447 105 0 105 0 0 -424z m2090 319 l0 -105 -110 0 -110 0 0 -110 0
-110 105 0 105 0 0 -100 0 -100 -105 0 -106 0 3 -127 3 -128 113 -3 112 -3 0
-104 0 -105 -225 0 -225 0 0 550 0 550 220 0 220 0 0 -105z m1120 0 l0 -105
-65 0 -65 0 0 -445 0 -445 -110 0 -110 0 0 445 0 445 -65 0 -65 0 0 105 0 105
240 0 240 0 0 -105z m260 -445 l0 -550 -105 0 -105 0 0 550 0 550 105 0 105 0
0 -550z m941 548 c0 -2 22 -111 48 -243 l49 -240 1 243 1 242 110 0 110 0 0
-550 0 -550 -109 0 -110 0 -10 53 c-6 28 -31 149 -55 267 l-44 215 -1 -267 -1
-268 -105 0 -105 0 0 550 0 550 110 0 c61 0 110 -1 111 -2z"/>
<path d="M2320 3000 c-19 -19 -20 -33 -20 -329 0 -170 4 -321 9 -334 13 -34
47 -44 72 -21 18 16 19 34 19 345 0 284 -2 330 -16 343 -21 21 -40 20 -64 -4z"/>
<path d="M8204 3006 c-18 -14 -19 -29 -19 -346 0 -317 1 -332 19 -346 47 -34
72 -6 81 88 4 40 5 188 3 329 -2 198 -6 260 -17 272 -17 21 -41 22 -67 3z"/>
<path d="M1704 2997 c-3 -8 -4 -54 -2 -103 l3 -89 32 -3 c46 -5 63 26 63 110
0 47 -5 71 -16 82 -19 19 -73 21 -80 3z"/>
<path d="M2930 2874 c0 -131 1 -135 20 -130 11 3 29 8 39 11 30 9 44 57 39
139 -4 85 -23 116 -70 116 l-28 0 0 -136z"/>
</g>
</svg>
