<svg version="1.1" id="Layer_1" xmlns="http://www.w3.org/2000/svg" xmlns:xlink="http://www.w3.org/1999/xlink" x="0px" y="0px"
	 width="100%" viewBox="0 0 210 178" enable-background="new 0 0 210 178" xml:space="preserve">
<path fill="#FDFDFD" opacity="1.000000" stroke="none" 
	d="
M126.000000,179.000000 
	C84.026756,179.000000 42.553509,179.000000 1.040132,179.000000 
	C1.040132,119.731697 1.040132,60.463356 1.040132,1.097508 
	C70.889748,1.097508 140.779678,1.097508 210.834808,1.097508 
	C210.834808,60.332962 210.834808,119.666443 210.834808,179.000000 
	C182.796982,179.000000 154.648499,179.000000 126.000000,179.000000 
M13.090040,149.420929 
	C13.090040,149.420929 13.098434,149.718857 12.707352,150.244278 
	C11.803002,152.645935 10.898652,155.047577 9.580972,157.921356 
	C8.900506,159.186890 8.220040,160.452408 7.536572,161.723526 
	C11.103324,163.317108 11.414100,161.036728 11.960793,158.051056 
	C13.010759,156.439041 14.060726,154.827026 15.701256,153.133881 
	C16.096962,153.159027 16.492668,153.184158 17.172077,153.860504 
	C19.190344,156.428482 21.208609,158.996460 23.538143,161.960495 
	C24.328850,161.960495 25.956776,161.960495 27.053087,161.960495 
	C23.937004,154.699173 20.813646,147.420914 17.130165,138.837402 
	C15.812272,142.415619 15.023982,144.555923 14.289818,146.740204 
	C14.289818,146.740204 14.308331,146.673889 13.937662,147.090408 
	C13.698450,147.777847 13.459237,148.465302 13.090040,149.420929 
M165.047180,155.977417 
	C167.324997,158.699295 168.753525,162.778198 173.898087,161.996323 
	C171.516479,158.869431 169.547012,156.283676 167.776840,153.392105 
	C167.776840,153.392105 167.910843,153.052597 168.233307,152.356689 
	C168.693161,150.121674 169.931183,146.125153 169.489853,145.930191 
	C165.946869,144.365082 162.086960,143.517349 157.757111,142.289444 
	C157.757111,149.763275 157.757111,155.772079 157.757111,161.898956 
	C159.320099,161.898956 160.739090,161.898956 161.944717,161.898956 
	C161.944717,159.370895 161.944717,157.106491 162.692551,154.809814 
	C163.412735,154.984390 164.132919,155.158966 165.047180,155.977417 
M61.244701,152.949738 
	C60.497196,152.904068 59.749695,152.858398 58.858746,152.458542 
	C58.721504,152.227036 58.523155,152.075531 58.118469,151.158340 
	C59.328243,149.369003 55.203434,144.936340 61.090656,146.059586 
	C63.173969,149.310745 64.931732,147.716599 67.254166,145.597916 
	C65.077728,144.663956 63.334927,143.916077 60.770645,143.285507 
	C58.301464,143.285507 55.832287,143.285507 53.962135,143.285507 
	C53.962135,149.616272 53.962135,155.703949 53.962135,161.977020 
	C55.699783,161.977020 57.149971,161.977020 58.091129,161.977020 
	C58.091129,159.615692 58.091129,157.406631 58.804287,154.951828 
	C60.455578,156.328400 62.009644,157.849365 63.783623,159.043701 
	C65.838585,160.427216 68.086853,161.523590 70.251205,162.744629 
	C70.377525,162.389175 70.503853,162.033707 70.630173,161.678253 
	C68.751816,159.456116 66.873466,157.233978 65.080559,154.313217 
	C65.635246,152.745575 66.189941,151.177917 66.744629,149.610275 
	C66.488831,149.424683 66.233032,149.239075 65.977234,149.053467 
	C64.645081,150.292358 63.312923,151.531250 61.244701,152.949738 
M121.938210,145.939377 
	C121.938210,151.147705 121.938210,156.356033 121.938210,161.833069 
	C122.973137,161.833069 124.234352,161.833069 124.863098,161.833069 
	C125.235863,159.531769 125.603630,157.261276 126.697136,154.845734 
	C128.293594,156.418045 129.714890,158.245819 131.534088,159.493286 
	C133.486984,160.832413 135.813812,161.626236 137.977463,162.658020 
	C138.035339,162.334091 138.093216,162.010178 138.151093,161.686249 
	C135.819290,159.162521 133.487488,156.638779 131.239700,154.205978 
	C132.356903,150.851303 137.587799,147.940140 131.185272,144.097916 
	C127.638405,143.730804 124.091537,143.363693 119.535561,142.892136 
	C120.995407,144.152557 121.488396,144.578201 121.938210,145.939377 
M188.244354,144.183273 
	C184.828354,143.821609 181.412338,143.459946 177.646973,143.061295 
	C177.646973,150.003830 177.646973,155.983200 177.646973,161.778961 
	C179.724075,161.778961 181.727844,161.778961 182.856430,161.778961 
	C182.431931,158.856888 182.041550,156.169724 181.620132,153.268890 
	C183.870560,153.112427 185.302963,153.012833 187.582367,152.854370 
	C180.281372,151.245422 180.280685,151.244400 181.726654,145.178726 
	C183.383408,145.178726 185.045090,145.178726 186.841904,145.687439 
	C187.157303,145.908127 187.472702,146.128815 187.788101,146.349503 
	C187.901154,145.853714 188.014191,145.357910 188.244354,144.183273 
M82.383720,144.009659 
	C80.941765,144.242477 79.499809,144.475296 77.324020,144.949615 
	C72.517105,145.822433 71.705513,149.497818 71.714027,153.421295 
	C71.724403,158.202042 74.541023,161.037109 80.196022,163.005981 
	C83.379860,164.978409 85.875961,163.911072 88.649994,160.930222 
	C92.720177,157.699509 94.162178,153.624359 92.207336,148.719345 
	C90.575119,144.623840 87.373512,143.159225 82.383720,144.009659 
M154.776443,83.276711 
	C159.488663,78.620483 164.200867,73.964256 168.566452,69.650536 
	C147.401245,48.497688 126.669571,27.778124 106.593384,7.713662 
	C86.134743,28.035395 65.404900,48.626507 44.925739,68.968620 
	C65.502274,89.546593 86.194733,110.240494 107.059288,131.106522 
	C122.544090,115.584793 138.410278,99.680771 154.776443,83.276711 
M104.299080,159.013428 
	C102.963661,155.954178 100.674835,152.927002 100.570549,149.826355 
	C100.473221,146.932556 102.696739,143.960693 103.928322,140.950806 
	C100.619003,140.849350 98.417976,143.189453 97.025864,146.323456 
	C95.129143,150.593430 95.554001,154.773315 98.561630,158.465958 
	C100.970589,161.423584 103.864029,162.330276 107.840302,161.325272 
	C106.657059,160.555557 105.775902,159.982361 104.299080,159.013428 
M201.714142,151.776154 
	C199.277435,149.805450 194.278946,149.255127 197.539810,143.556564 
	C195.618271,144.917191 193.749039,146.381210 193.834274,147.720917 
	C193.953094,149.588409 195.103394,151.918625 196.578720,153.060455 
	C199.562927,155.370041 203.462814,156.819855 199.951309,161.945724 
	C205.531647,159.930023 206.035889,157.116379 201.714142,151.776154 
M29.995594,157.186707 
	C32.083771,160.381805 34.662045,162.623047 40.212982,161.762878 
	C32.758690,157.943863 31.783968,152.457809 34.639709,145.624557 
	C29.265751,147.826736 28.340597,150.284058 29.995594,157.186707 
M143.761719,162.130539 
	C146.356949,162.130539 148.952179,162.130539 152.912842,162.130539 
	C149.332260,160.875702 145.581772,160.350250 145.466400,159.388702 
	C144.864151,154.368820 145.185410,149.238144 145.185410,144.246399 
	C144.527420,144.246399 142.911850,144.246399 141.539566,144.246399 
	C141.539566,149.856094 141.504654,155.241226 141.596603,160.624191 
	C141.605270,161.131638 142.412033,161.625443 143.761719,162.130539 
M42.924194,160.895248 
	C42.696667,161.084534 42.439198,161.249359 42.255306,161.474335 
	C42.173523,161.574371 42.240112,161.795685 42.239361,161.961960 
	C43.929108,161.725723 46.830021,161.913223 47.087933,161.176041 
	C47.960327,158.682510 47.895920,155.861221 48.217056,152.912872 
	C46.164234,153.009842 44.697590,153.079117 43.631516,153.129486 
	C43.631516,155.784836 43.631516,158.196075 42.924194,160.895248 
M156.551392,143.744476 
	C156.650955,143.685471 156.750519,143.626465 156.850067,143.567459 
	C156.770935,143.483200 156.699661,143.342911 156.610458,143.330399 
	C156.520660,143.317795 156.413040,143.432236 156.551392,143.744476 
M176.583939,143.282410 
	C176.477554,143.358276 176.371170,143.434143 176.264786,143.510010 
	C176.358078,143.601273 176.446381,143.757843 176.546066,143.765442 
	C176.646301,143.773102 176.757858,143.632507 176.583939,143.282410 
z"/>
<path fill="#2D2D2D" opacity="1.000000" stroke="none" 
	d="
M154.526459,83.526726 
	C138.410278,99.680771 122.544090,115.584793 107.059288,131.106522 
	C86.194733,110.240494 65.502274,89.546593 44.925739,68.968620 
	C65.404900,48.626507 86.134743,28.035395 106.593384,7.713662 
	C126.669571,27.778124 147.401245,48.497688 168.566452,69.650536 
	C164.200867,73.964256 159.488663,78.620483 154.526459,83.526726 
M137.918304,95.389778 
	C138.154388,95.170013 138.354202,94.921112 138.921570,94.387032 
	C139.157455,94.168945 139.356201,93.921089 139.921478,93.387100 
	C140.157227,93.168907 140.355988,92.921043 140.921356,92.387070 
	C141.157043,92.168823 141.355850,91.920975 141.921280,91.387001 
	C142.156876,91.168694 142.355682,90.920876 142.921188,90.386925 
	C143.156677,90.168549 143.355515,89.920761 143.921097,89.386848 
	C144.156479,89.168373 144.355347,88.920601 144.961151,88.339157 
	C145.189453,88.064613 145.417755,87.790070 145.993927,87.290077 
	C146.211990,87.112770 146.384857,86.898926 146.918030,86.390556 
	C147.153870,86.170334 147.353775,85.921288 147.920883,85.386536 
	C148.155945,85.167961 148.354828,84.920326 148.920700,84.386665 
	C149.155731,84.167969 149.354675,83.920273 149.920654,83.386589 
	C150.155624,83.167870 150.354568,82.920212 150.920624,82.386520 
	C151.155579,82.167732 151.354568,81.920059 151.923813,81.382362 
	C152.161896,81.162178 152.363510,80.912537 153.058441,80.243073 
	C154.706696,78.493919 156.354965,76.744766 158.529510,74.797699 
	C158.892639,74.370552 159.255783,73.943405 159.984711,73.282631 
	C160.215027,73.098526 160.395401,72.874268 161.069412,72.212929 
	C162.149567,71.084084 163.229736,69.955238 164.256805,68.881866 
	C162.853745,67.664864 161.896896,66.834900 160.918976,65.324097 
	C154.263458,58.674561 147.648834,51.983055 140.910172,45.418873 
	C139.848755,44.384937 138.225922,43.927357 136.279938,42.836708 
	C128.726959,34.918076 121.238411,26.936693 113.602737,19.098619 
	C106.099335,11.396324 106.033791,11.460179 98.179916,19.955427 
	C92.839081,25.140160 87.438652,30.265583 82.188782,35.540852 
	C80.275360,37.463535 78.720337,39.742897 76.386658,42.150204 
	C74.284691,44.477936 72.182732,46.805672 69.321358,49.001453 
	C68.840012,49.628681 68.358673,50.255913 67.940735,50.981220 
	C67.940735,50.981220 67.888565,50.886585 67.174950,50.641369 
	C67.079079,51.058182 66.983200,51.474998 66.999695,51.999390 
	C66.999695,51.999390 66.891472,51.887589 66.177872,51.645050 
	C66.081009,52.060810 65.984146,52.476570 65.999695,52.999111 
	C65.999695,52.999111 65.892082,52.887379 65.177605,52.643951 
	C65.080734,53.060200 64.983864,53.476448 64.999855,53.998425 
	C64.999855,53.998425 64.892578,53.886776 64.175026,53.637794 
	C64.078781,54.056194 63.982536,54.474598 63.999489,54.998238 
	C63.999489,54.998238 63.892834,54.886189 63.173012,54.633030 
	C63.077225,55.053082 62.981438,55.473133 62.999073,55.998116 
	C62.999073,55.998116 62.892998,55.885651 62.171967,55.630138 
	C62.076366,56.051109 61.980770,56.472080 61.998955,56.997959 
	C61.998955,56.997959 61.892879,56.885162 61.170780,56.627594 
	C61.075409,57.049351 60.980034,57.471111 60.998878,57.997719 
	C60.998878,57.997719 60.892719,57.884602 60.169151,57.623608 
	C60.074150,58.046623 59.979149,58.469643 59.998604,58.997791 
	C59.998604,58.997791 59.892464,58.884186 59.168427,58.622231 
	C59.073532,59.045662 58.978638,59.469090 58.998524,59.997650 
	C58.998524,59.997650 58.892311,59.883789 58.167568,59.620190 
	C58.072823,60.044315 57.978077,60.468445 57.998260,60.997475 
	C57.998260,60.997475 57.892361,60.883400 57.167439,60.619537 
	C57.072632,61.043842 56.977825,61.468151 56.998150,61.997406 
	C56.998150,61.997406 56.892254,61.883080 56.167290,61.619469 
	C56.072426,62.043781 55.977558,62.468094 55.998028,62.997261 
	C55.998028,62.997261 55.892204,62.882755 55.167198,62.619381 
	C55.072262,63.043694 54.977329,63.468010 54.997913,63.997135 
	C54.997913,63.997135 54.892124,63.882450 54.167137,63.619297 
	C54.072121,64.043587 53.977100,64.467880 53.944298,64.922585 
	C53.944298,64.922585 53.873425,64.880310 53.154087,64.506607 
	C52.787788,64.890038 52.421494,65.273468 51.923756,65.768311 
	C51.923756,65.768311 51.693634,66.029182 51.049751,66.375946 
	C46.215160,70.668663 52.412380,71.290718 53.693428,73.984818 
	C53.877430,74.208382 54.098320,74.386093 54.659489,74.961861 
	C54.934200,75.189728 55.208916,75.417587 55.708153,75.996735 
	C55.885757,76.217018 56.101223,76.390175 56.612740,76.921997 
	C56.831478,77.159920 57.080700,77.359840 57.617146,77.925217 
	C57.834087,78.162430 58.081833,78.361259 58.660915,78.962769 
	C58.933659,79.188873 59.206402,79.414970 59.747925,80.036034 
	C59.940342,80.299644 60.184082,80.501183 60.750259,81.036491 
	C60.943245,81.301407 61.187672,81.504379 61.714035,82.002350 
	C61.893917,82.227875 62.112873,82.405128 62.764969,83.070915 
	C64.997322,85.255745 67.229675,87.440567 69.735992,90.027496 
	C69.933838,90.293991 70.182343,90.499138 70.750092,91.038109 
	C70.942383,91.302002 71.186188,91.503616 71.751648,92.039734 
	C71.944420,92.305229 72.189217,92.507896 72.715057,93.005074 
	C72.894234,93.230995 73.113152,93.407700 73.767052,94.074821 
	C84.702675,104.944908 95.638298,115.814995 106.187096,126.300583 
	C116.090248,116.624481 125.860786,107.077950 136.030441,97.256180 
	C136.297134,97.060341 136.502380,96.813431 136.995148,96.290848 
	C137.213867,96.113670 137.386566,95.899391 137.918304,95.389778 
z"/>
<path fill="#F7F7F7" opacity="1.000000" stroke="none" 
	d="
M88.008858,161.238358 
	C85.875961,163.911072 83.379860,164.978409 80.381577,162.468536 
	C75.586830,156.793839 73.812691,151.189468 78.057854,144.708115 
	C79.499809,144.475296 80.941765,144.242477 82.776016,144.371979 
	C89.100426,147.785995 90.672813,153.348755 87.373795,159.199097 
	C87.134033,159.624283 87.776543,160.546967 88.008858,161.238358 
z"/>
<path fill="#313131" opacity="1.000000" stroke="none" 
	d="
M161.944717,154.842102 
	C161.944717,157.106491 161.944717,159.370895 161.944717,161.898956 
	C160.739090,161.898956 159.320099,161.898956 157.757111,161.898956 
	C157.757111,155.772079 157.757111,149.763275 157.757111,142.289444 
	C162.086960,143.517349 165.946869,144.365082 169.489853,145.930191 
	C169.931183,146.125153 168.693161,150.121674 167.547699,152.639008 
	C166.347000,149.786880 168.287033,145.029770 161.614990,145.196777 
	C161.755371,148.129211 161.872604,150.578033 161.987259,153.329575 
	C161.971359,154.035553 161.958038,154.438828 161.944717,154.842102 
z"/>
<path fill="#303030" opacity="1.000000" stroke="none" 
	d="
M104.596909,159.211288 
	C105.775902,159.982361 106.657059,160.555557 107.840302,161.325272 
	C103.864029,162.330276 100.970589,161.423584 98.561630,158.465958 
	C95.554001,154.773315 95.129143,150.593430 97.025864,146.323456 
	C98.417976,143.189453 100.619003,140.849350 103.928322,140.950806 
	C102.696739,143.960693 100.473221,146.932556 100.570549,149.826355 
	C100.674835,152.927002 102.963661,155.954178 104.596909,159.211288 
z"/>
<path fill="#313131" opacity="1.000000" stroke="none" 
	d="
M14.235695,146.696213 
	C15.023982,144.555923 15.812272,142.415619 17.130165,138.837402 
	C20.813646,147.420914 23.937004,154.699173 27.053087,161.960495 
	C25.956776,161.960495 24.328850,161.960495 23.538143,161.960495 
	C21.208609,158.996460 19.190344,156.428482 17.194513,153.261459 
	C18.882538,149.766006 17.422422,146.843964 14.235695,146.696213 
z"/>
<path fill="#252525" opacity="1.000000" stroke="none" 
	d="
M186.706757,145.178726 
	C185.045090,145.178726 183.383408,145.178726 181.726654,145.178726 
	C180.280685,151.244400 180.281372,151.245422 187.582367,152.854370 
	C185.302963,153.012833 183.870560,153.112427 181.620132,153.268890 
	C182.041550,156.169724 182.431931,158.856888 182.856430,161.778961 
	C181.727844,161.778961 179.724075,161.778961 177.646973,161.778961 
	C177.646973,155.983200 177.646973,150.003830 177.646973,143.061295 
	C181.412338,143.459946 184.828354,143.821609 187.945053,144.557724 
	C187.320892,144.969208 187.007889,145.051392 186.706757,145.178726 
z"/>
<path fill="#2E2E2E" opacity="1.000000" stroke="none" 
	d="
M60.969463,145.404678 
	C55.203434,144.936340 59.328243,149.369003 58.102318,151.773956 
	C58.086166,152.389587 58.094826,152.813950 58.076187,153.211441 
	C58.068741,154.138474 58.079933,154.668030 58.091129,155.197571 
	C58.091129,157.406631 58.091129,159.615692 58.091129,161.977020 
	C57.149971,161.977020 55.699783,161.977020 53.962135,161.977020 
	C53.962135,155.703949 53.962135,149.616272 53.962135,143.285507 
	C55.832287,143.285507 58.301464,143.285507 61.347710,143.554428 
	C61.606335,144.350464 61.287899,144.877563 60.969463,145.404678 
z"/>
<path fill="#363636" opacity="1.000000" stroke="none" 
	d="
M202.015686,151.990555 
	C206.035889,157.116379 205.531647,159.930023 199.951309,161.945724 
	C203.462814,156.819855 199.562927,155.370041 196.578720,153.060455 
	C195.103394,151.918625 193.953094,149.588409 193.834274,147.720917 
	C193.749039,146.381210 195.618271,144.917191 197.539810,143.556564 
	C194.278946,149.255127 199.277435,149.805450 202.015686,151.990555 
z"/>
<path fill="#444444" opacity="1.000000" stroke="none" 
	d="
M131.625778,144.796188 
	C137.587799,147.940140 132.356903,150.851303 131.239700,154.205978 
	C133.487488,156.638779 135.819290,159.162521 138.151093,161.686249 
	C138.093216,162.010178 138.035339,162.334091 137.977463,162.658020 
	C135.813812,161.626236 133.486984,160.832413 131.534088,159.493286 
	C129.714890,158.245819 128.293594,156.418045 126.057373,154.736298 
	C125.350601,153.982422 125.283585,153.337997 125.590103,152.800644 
	C127.382637,152.410187 130.002457,151.930191 130.010010,151.412079 
	C130.040588,149.317245 129.266525,147.210693 129.263000,145.068451 
	C130.366287,144.951035 130.996033,144.873611 131.625778,144.796188 
z"/>
<path fill="#313131" opacity="1.000000" stroke="none" 
	d="
M29.858246,156.820953 
	C28.340597,150.284058 29.265751,147.826736 34.639709,145.624557 
	C31.783968,152.457809 32.758690,157.943863 40.212982,161.762878 
	C34.662045,162.623047 32.083771,160.381805 29.858246,156.820953 
z"/>
<path fill="#323232" opacity="1.000000" stroke="none" 
	d="
M88.329422,161.084290 
	C87.776543,160.546967 87.134033,159.624283 87.373795,159.199097 
	C90.672813,153.348755 89.100426,147.785995 83.124115,144.381744 
	C87.373512,143.159225 90.575119,144.623840 92.207336,148.719345 
	C94.162178,153.624359 92.720177,157.699509 88.329422,161.084290 
z"/>
<path fill="#313131" opacity="1.000000" stroke="none" 
	d="
M77.690933,144.828857 
	C73.812691,151.189468 75.586830,156.793839 80.281738,162.127838 
	C74.541023,161.037109 71.724403,158.202042 71.714027,153.421295 
	C71.705513,149.497818 72.517105,145.822433 77.690933,144.828857 
z"/>
<path fill="#212121" opacity="1.000000" stroke="none" 
	d="
M143.304993,162.128052 
	C142.412033,161.625443 141.605270,161.131638 141.596603,160.624191 
	C141.504654,155.241226 141.539566,149.856094 141.539566,144.246399 
	C142.911850,144.246399 144.527420,144.246399 145.185410,144.246399 
	C145.185410,149.238144 144.864151,154.368820 145.466400,159.388702 
	C145.581772,160.350250 149.332260,160.875702 152.912842,162.130539 
	C148.952179,162.130539 146.356949,162.130539 143.304993,162.128052 
z"/>
<path fill="#1B1B1B" opacity="1.000000" stroke="none" 
	d="
M125.216568,152.693573 
	C125.283585,153.337997 125.350601,153.982422 125.694511,154.808807 
	C125.603630,157.261276 125.235863,159.531769 124.863098,161.833069 
	C124.234352,161.833069 122.973137,161.833069 121.938210,161.833069 
	C121.938210,156.356033 121.938210,151.147705 122.392715,145.464401 
	C123.710449,145.043640 124.573685,145.097855 125.375488,145.568451 
	C125.281563,148.221085 125.249069,150.457321 125.216568,152.693573 
z"/>
<path fill="#424242" opacity="1.000000" stroke="none" 
	d="
M58.447708,155.074707 
	C58.079933,154.668030 58.068741,154.138474 58.303089,153.257538 
	C58.548634,152.906128 59.002190,152.812729 59.002190,152.812729 
	C59.749695,152.858398 60.497196,152.904068 61.926048,152.990021 
	C63.403297,153.690811 64.199203,154.351334 64.995110,155.011841 
	C66.873466,157.233978 68.751816,159.456116 70.630173,161.678253 
	C70.503853,162.033707 70.377525,162.389175 70.251205,162.744629 
	C68.086853,161.523590 65.838585,160.427216 63.783623,159.043701 
	C62.009644,157.849365 60.455578,156.328400 58.447708,155.074707 
z"/>
<path fill="#343434" opacity="1.000000" stroke="none" 
	d="
M43.277855,160.751282 
	C43.631516,158.196075 43.631516,155.784836 43.631516,153.129486 
	C44.697590,153.079117 46.164234,153.009842 48.217056,152.912872 
	C47.895920,155.861221 47.960327,158.682510 47.087933,161.176041 
	C46.830021,161.913223 43.929108,161.725723 42.239361,161.961960 
	C42.240112,161.795685 42.173523,161.574371 42.255306,161.474335 
	C42.439198,161.249359 42.696667,161.084534 43.277855,160.751282 
z"/>
<path fill="#EFEFEF" opacity="1.000000" stroke="none" 
	d="
M161.989838,153.026871 
	C161.872604,150.578033 161.755371,148.129211 161.614990,145.196777 
	C168.287033,145.029770 166.347000,149.786880 167.386459,152.986969 
	C167.910843,153.052597 167.776840,153.392105 167.742798,152.989685 
	C166.809845,152.768433 165.910919,152.949585 164.634735,153.105774 
	C163.501572,153.062836 162.745712,153.044846 161.989838,153.026871 
z"/>
<path fill="#323232" opacity="1.000000" stroke="none" 
	d="
M165.012024,153.130722 
	C165.910919,152.949585 166.809845,152.768433 167.643158,153.142593 
	C169.547012,156.283676 171.516479,158.869431 173.898087,161.996323 
	C168.753525,162.778198 167.324997,158.699295 164.995728,155.289734 
	C164.966858,154.111603 164.989441,153.621170 165.012024,153.130722 
z"/>
<path fill="#383838" opacity="1.000000" stroke="none" 
	d="
M125.436920,145.152069 
	C124.573685,145.097855 123.710449,145.043640 122.414299,144.996643 
	C121.488396,144.578201 120.995407,144.152557 119.535561,142.892136 
	C124.091537,143.363693 127.638405,143.730804 131.405518,144.447052 
	C130.996033,144.873611 130.366287,144.951035 128.927124,145.060242 
	C127.224121,145.112045 126.330521,145.132050 125.436920,145.152069 
z"/>
<path fill="#3F3F3F" opacity="1.000000" stroke="none" 
	d="
M14.262756,146.718201 
	C17.422422,146.843964 18.882538,149.766006 17.052662,152.935852 
	C16.492668,153.184158 16.096962,153.159027 15.246262,152.806396 
	C14.226989,151.558899 13.662710,150.638870 13.098433,149.718857 
	C13.098434,149.718857 13.090040,149.420929 13.534039,149.421539 
	C14.088136,148.506058 14.198234,147.589981 14.308331,146.673889 
	C14.308331,146.673889 14.289818,146.740204 14.262756,146.718201 
z"/>
<path fill="#EDEDED" opacity="1.000000" stroke="none" 
	d="
M61.030060,145.732132 
	C61.287899,144.877563 61.606335,144.350464 61.758450,143.495773 
	C63.334927,143.916077 65.077728,144.663956 67.254166,145.597916 
	C64.931732,147.716599 63.173969,149.310745 61.030060,145.732132 
z"/>
<path fill="#313131" opacity="1.000000" stroke="none" 
	d="
M12.902891,149.981567 
	C13.662710,150.638870 14.226989,151.558899 14.950980,152.846954 
	C14.060726,154.827026 13.010759,156.439041 11.392636,158.016998 
	C10.547753,157.805054 10.271028,157.627136 9.994301,157.449234 
	C10.898652,155.047577 11.803002,152.645935 12.902891,149.981567 
z"/>
<path fill="#EDEDED" opacity="1.000000" stroke="none" 
	d="
M65.037834,154.662537 
	C64.199203,154.351334 63.403297,153.690811 62.294083,152.900208 
	C63.312923,151.531250 64.645081,150.292358 65.977234,149.053467 
	C66.233032,149.239075 66.488831,149.424683 66.744629,149.610275 
	C66.189941,151.177917 65.635246,152.745575 65.037834,154.662537 
z"/>
<path fill="#313131" opacity="1.000000" stroke="none" 
	d="
M11.210238,158.290680 
	C11.414100,161.036728 11.103324,163.317108 7.536572,161.723526 
	C8.220040,160.452408 8.900506,159.186890 9.787636,157.685303 
	C10.271028,157.627136 10.547753,157.805054 11.210238,158.290680 
z"/>
<path fill="#3F3F3F" opacity="1.000000" stroke="none" 
	d="
M164.634735,153.105774 
	C164.989441,153.621170 164.966858,154.111603 164.898697,154.967804 
	C164.132919,155.158966 163.412735,154.984390 162.318634,154.825958 
	C161.958038,154.438828 161.971359,154.035553 161.987259,153.329575 
	C162.745712,153.044846 163.501572,153.062836 164.634735,153.105774 
z"/>
<path fill="#4E4E4E" opacity="1.000000" stroke="none" 
	d="
M186.774323,145.433075 
	C187.007889,145.051392 187.320892,144.969208 187.886505,144.897156 
	C188.014191,145.357910 187.901154,145.853714 187.788101,146.349503 
	C187.472702,146.128815 187.157303,145.908127 186.774323,145.433075 
z"/>
<path fill="#313131" opacity="1.000000" stroke="none" 
	d="
M14.122996,146.882141 
	C14.198234,147.589981 14.088136,148.506058 13.599031,149.287445 
	C13.459237,148.465302 13.698450,147.777847 14.122996,146.882141 
z"/>
<path fill="#3F3F3F" opacity="1.000000" stroke="none" 
	d="
M156.432312,143.617737 
	C156.413040,143.432236 156.520660,143.317795 156.610458,143.330399 
	C156.699661,143.342911 156.770935,143.483200 156.850067,143.567459 
	C156.750519,143.626465 156.650955,143.685471 156.432312,143.617737 
z"/>
<path fill="#4E4E4E" opacity="1.000000" stroke="none" 
	d="
M176.724197,143.419647 
	C176.757858,143.632507 176.646301,143.773102 176.546066,143.765442 
	C176.446381,143.757843 176.358078,143.601273 176.264786,143.510010 
	C176.371170,143.434143 176.477554,143.358276 176.724197,143.419647 
z"/>
<path fill="#EDEDED" opacity="1.000000" stroke="none" 
	d="
M58.930466,152.635635 
	C59.002190,152.812729 58.548634,152.906128 58.321732,152.860046 
	C58.094826,152.813950 58.086166,152.389587 58.174927,152.196808 
	C58.523155,152.075531 58.721504,152.227036 58.930466,152.635635 
z"/>
<path fill="#FDA827" opacity="1.000000" stroke="none" 
	d="
M98.867950,19.897503 
	C106.033791,11.460179 106.099335,11.396324 113.602737,19.098619 
	C121.238411,26.936693 128.726959,34.918076 136.707199,43.324684 
	C144.657288,51.240219 152.180130,58.667782 159.583405,66.423172 
	C158.810150,67.078400 158.129440,67.732018 157.507126,67.680481 
	C153.356506,67.336693 149.218353,66.842331 144.656616,66.267586 
	C140.861771,66.441368 136.998337,65.133820 134.326019,69.024414 
	C131.904694,69.286812 129.867920,69.550217 127.677483,69.522896 
	C125.249626,69.367172 122.756577,68.946472 120.741776,69.740021 
	C114.366913,72.250824 107.993233,72.270500 101.390976,70.425774 
	C100.825813,68.201447 100.340584,66.348648 99.691551,63.870365 
	C98.132118,67.067245 96.961067,69.467934 95.634125,71.853027 
	C95.478241,71.837440 95.165871,71.861679 95.092072,71.920303 
	C95.018272,71.978928 95.161949,71.866165 95.180763,71.456314 
	C94.764282,68.353455 94.328995,65.660446 93.893700,62.967445 
	C93.590096,62.945816 93.286491,62.924183 92.982887,62.902550 
	C92.643806,64.265373 92.304726,65.628197 91.771393,67.262589 
	C90.435654,68.169571 92.088058,72.777840 88.334763,69.382416 
	C87.663979,66.447258 87.047318,63.905956 86.184082,60.348515 
	C84.428444,64.718712 83.173378,67.842880 81.531967,70.932846 
	C80.000694,67.393509 78.855759,63.888390 77.313934,59.168255 
	C76.183105,62.922077 75.644325,65.519104 74.547058,67.853622 
	C74.223557,68.541916 72.320930,68.487999 71.129501,68.382874 
	C70.321220,64.946381 69.525406,61.901226 68.416595,57.658398 
	C67.041908,61.954929 66.054398,65.041374 64.612747,68.132126 
	C61.441784,68.096893 58.724949,68.057358 55.754356,67.839386 
	C54.965576,67.098175 54.430553,66.535416 54.036823,65.696594 
	C54.076553,65.240456 53.974991,65.060379 53.873425,64.880310 
	C53.873425,64.880310 53.944298,64.922585 54.251423,64.984367 
	C54.669739,64.658249 54.780930,64.270348 54.892124,63.882450 
	C54.892124,63.882450 54.997913,63.997135 55.279068,64.023155 
	C55.670883,63.660374 55.781548,63.271564 55.892204,62.882755 
	C55.892204,62.882755 55.998028,62.997261 56.279995,63.024750 
	C56.672062,62.662518 56.782158,62.272800 56.892254,61.883080 
	C56.892254,61.883080 56.998150,61.997406 57.280914,62.026474 
	C57.673241,61.664829 57.782803,61.274117 57.892365,60.883400 
	C57.892361,60.883400 57.998260,60.997475 58.281986,61.028069 
	C58.674580,60.667034 58.783447,60.275414 58.892311,59.883789 
	C58.892311,59.883789 58.998524,59.997650 59.283089,60.030205 
	C59.675922,59.669899 59.784195,59.277042 59.892464,58.884186 
	C59.892464,58.884186 59.998604,58.997791 60.284027,59.032028 
	C60.677204,58.672379 60.784962,58.278488 60.892719,57.884602 
	C60.892719,57.884602 60.998878,57.997719 61.285103,58.033630 
	C61.678509,57.674747 61.785694,57.279953 61.892876,56.885162 
	C61.892879,56.885162 61.998955,56.997959 62.286091,57.035488 
	C62.679817,56.677227 62.786407,56.281441 62.892998,55.885651 
	C62.892998,55.885651 62.999073,55.998116 63.287247,56.037251 
	C63.681225,55.679653 63.787029,55.282921 63.892834,54.886189 
	C63.892834,54.886189 63.999489,54.998238 64.288544,55.039452 
	C64.682594,54.682701 64.787582,54.284740 64.892578,53.886776 
	C64.892578,53.886776 64.999855,53.998425 65.289749,54.041504 
	C65.683792,53.685513 65.787941,53.286446 65.892082,52.887379 
	C65.892082,52.887379 65.999695,52.999111 66.290588,53.043617 
	C66.684807,52.687943 66.788139,52.287766 66.891464,51.887589 
	C66.891472,51.887589 66.999695,51.999390 67.291122,52.045326 
	C67.684555,51.689701 67.786552,51.288143 67.888565,50.886585 
	C67.888565,50.886585 67.940735,50.981220 68.208168,51.071869 
	C69.010651,50.486145 69.545708,49.809772 70.080765,49.133400 
	C72.182732,46.805672 74.284691,44.477936 77.041901,42.083221 
	C78.349510,42.456928 79.205185,42.756924 79.622665,43.360176 
	C83.596313,49.102062 89.107117,51.763584 95.888725,50.449600 
	C102.250916,49.216881 106.785843,45.117561 107.794891,38.580101 
	C108.879364,31.553923 107.011024,25.404598 99.947128,21.911337 
	C99.391357,21.636492 99.218674,20.586985 98.867950,19.897503 
z"/>
<path fill="#E7EDE3" opacity="1.000000" stroke="none" 
	d="
M101.470901,70.797295 
	C107.993233,72.270500 114.366913,72.250824 120.741776,69.740021 
	C122.756577,68.946472 125.249626,69.367172 127.406937,69.687637 
	C126.239792,71.074379 125.189507,72.005646 123.821457,72.988876 
	C123.264771,73.567879 123.025841,74.094902 122.786911,74.621933 
	C123.554047,74.365990 124.321190,74.110054 125.498596,73.902916 
	C133.582825,75.505219 141.261292,76.227905 149.038422,74.549782 
	C151.287338,74.064514 153.641510,74.067123 156.108978,74.115738 
	C156.848083,74.588806 157.425644,74.792213 158.003220,74.995613 
	C156.354965,76.744766 154.706696,78.493919 152.620209,80.232758 
	C152.057053,80.093948 151.932114,79.965454 151.793381,79.444649 
	C149.632065,78.795189 147.393997,78.014915 145.352188,78.368378 
	C134.566116,80.235626 123.810974,82.297905 113.085754,84.491302 
	C109.335823,85.258194 105.701820,86.591949 102.014877,87.666847 
	C110.622993,90.918190 119.065125,93.249794 127.540131,95.455032 
	C129.891266,96.066811 132.339966,96.303589 134.959930,96.923492 
	C135.327728,97.266846 135.479523,97.399124 135.631317,97.531403 
	C125.860786,107.077950 116.090248,116.624481 106.187096,126.300583 
	C95.638298,115.814995 84.702675,104.944908 73.812195,93.581940 
	C74.010490,92.931389 74.163628,92.773727 74.658096,92.651253 
	C77.815186,91.736168 80.630936,90.785904 83.446693,89.835640 
	C79.365028,88.268570 75.468697,87.682190 71.555557,87.247093 
	C71.221092,87.209900 70.774742,88.179054 70.144211,88.910492 
	C69.759369,89.301979 69.610695,89.463692 69.462029,89.625397 
	C67.229675,87.440567 64.997322,85.255745 62.833099,82.559326 
	C63.070023,81.877319 63.238815,81.706894 63.729736,81.747818 
	C76.121231,83.799995 87.945137,88.518143 100.485771,84.488403 
	C106.148666,82.668716 112.023384,81.514145 117.779922,79.975212 
	C119.006783,79.647224 120.137802,78.960716 121.312973,78.439384 
	C121.243057,77.843697 121.173141,77.248009 121.103226,76.652321 
	C114.286476,75.922348 107.469734,75.192383 100.421669,74.184525 
	C100.617203,72.870186 101.044052,71.833740 101.470901,70.797295 
M122.059891,77.400871 
	C122.360802,77.886559 122.661720,78.372246 123.589165,78.945305 
	C123.999504,78.582710 124.409836,78.220123 124.820175,77.857529 
	C124.183250,77.693283 123.546326,77.529030 122.059891,77.400871 
M115.815056,115.315620 
	C120.690186,110.439232 125.565323,105.562836 131.379471,99.747185 
	C119.963432,96.925026 109.700958,94.888588 99.774910,91.778427 
	C91.593338,89.214874 85.244255,92.968605 78.426140,95.417015 
	C88.090927,105.085411 97.474319,114.472313 107.439178,124.440895 
	C109.937492,121.704895 112.626244,118.760323 115.815056,115.315620 
z"/>
<path fill="#FEFCFA" opacity="1.000000" stroke="none" 
	d="
M98.523933,19.926464 
	C99.218674,20.586985 99.391357,21.636492 99.947128,21.911337 
	C107.011024,25.404598 108.879364,31.553923 107.794891,38.580101 
	C106.785843,45.117561 102.250916,49.216881 95.888725,50.449600 
	C89.107117,51.763584 83.596313,49.102062 79.622665,43.360176 
	C79.205185,42.756924 78.349510,42.456928 77.349464,41.937889 
	C78.720337,39.742897 80.275360,37.463535 82.188782,35.540852 
	C87.438652,30.265583 92.839081,25.140160 98.523933,19.926464 
z"/>
<path fill="#F5F1DF" opacity="1.000000" stroke="none" 
	d="
M145.076141,66.396889 
	C149.218353,66.842331 153.356506,67.336693 157.507126,67.680481 
	C158.129440,67.732018 158.810150,67.078400 159.892609,66.394699 
	C160.527573,66.027245 160.733810,66.016090 160.940033,66.004929 
	C161.896896,66.834900 162.853745,67.664864 164.256805,68.881866 
	C163.229736,69.955238 162.149567,71.084084 160.594025,72.188324 
	C159.974014,72.023682 159.829361,71.883636 159.627930,71.383591 
	C154.749130,70.561409 149.927109,70.099220 145.066193,69.314705 
	C145.043610,68.127213 145.059875,67.262047 145.076141,66.396889 
z"/>
<path fill="#E7EDE3" opacity="1.000000" stroke="none" 
	d="
M56.008110,68.017822 
	C58.724949,68.057358 61.441784,68.096893 64.730377,68.394470 
	C65.881927,69.404556 66.461723,70.156593 67.012222,71.106644 
	C66.982910,71.304649 66.976410,71.704926 66.568130,71.797119 
	C63.697647,71.712906 61.230396,71.358200 58.775169,71.427773 
	C57.329723,71.468727 55.903362,72.183083 54.210629,72.846298 
	C53.789207,73.273865 53.625580,73.449715 53.461952,73.625572 
	C52.412380,71.290718 46.215160,70.668663 51.417534,66.457916 
	C51.860394,66.695702 51.935467,66.851517 52.060692,67.346382 
	C53.409931,67.796234 54.709023,67.907036 56.008110,68.017822 
z"/>
<path fill="#F0EAE1" opacity="1.000000" stroke="none" 
	d="
M160.929504,65.664513 
	C160.733810,66.016090 160.527573,66.027245 160.012146,66.066879 
	C152.180130,58.667782 144.657288,51.240219 136.998566,43.507973 
	C138.225922,43.927357 139.848755,44.384937 140.910172,45.418873 
	C147.648834,51.983055 154.263458,58.674561 160.929504,65.664513 
z"/>
<path fill="#F5F1DF" opacity="1.000000" stroke="none" 
	d="
M158.266357,74.896652 
	C157.425644,74.792213 156.848083,74.588806 156.357605,73.938904 
	C157.219757,73.242096 157.994827,72.991783 158.976425,72.941429 
	C159.328278,73.266350 159.473602,73.391304 159.618912,73.516258 
	C159.255783,73.943405 158.892639,74.370552 158.266357,74.896652 
z"/>
<path fill="#E7EDE3" opacity="1.000000" stroke="none" 
	d="
M69.701065,49.067429 
	C69.545708,49.809772 69.010651,50.486145 68.176468,51.022831 
	C68.358673,50.255913 68.840012,49.628681 69.701065,49.067429 
z"/>
<path fill="#E7EDE3" opacity="1.000000" stroke="none" 
	d="
M53.513756,64.693459 
	C53.974991,65.060379 54.076553,65.240456 53.813248,65.699776 
	C53.448380,65.979012 53.001663,66.002197 52.776352,65.884888 
	C52.385754,65.730682 52.220470,65.693787 52.055191,65.656898 
	C52.421494,65.273468 52.787788,64.890038 53.513756,64.693459 
z"/>
<path fill="#E7EDE3" opacity="1.000000" stroke="none" 
	d="
M55.483627,75.645454 
	C55.208916,75.417587 54.934200,75.189728 54.781906,74.506851 
	C55.080254,73.888817 55.256187,73.725784 55.642063,73.681915 
	C56.114193,74.002487 56.307503,74.256340 56.189301,74.828484 
	C55.792328,75.278046 55.637978,75.461754 55.483627,75.645454 
z"/>
<path fill="#E7EDE3" opacity="1.000000" stroke="none" 
	d="
M67.531754,50.763977 
	C67.786552,51.288143 67.684555,51.689701 67.234940,51.991539 
	C66.983200,51.474998 67.079079,51.058182 67.531754,50.763977 
z"/>
<path fill="#E7EDE3" opacity="1.000000" stroke="none" 
	d="
M66.534668,51.766319 
	C66.788139,52.287766 66.684807,52.687943 66.234375,52.990227 
	C65.984146,52.476570 66.081009,52.060810 66.534668,51.766319 
z"/>
<path fill="#E7EDE3" opacity="1.000000" stroke="none" 
	d="
M54.630211,74.284897 
	C54.098320,74.386093 53.877430,74.208382 53.577690,73.805191 
	C53.625580,73.449715 53.789207,73.273865 54.414360,72.960571 
	C55.131332,73.016991 55.316750,73.263527 55.432125,73.562744 
	C55.256187,73.725784 55.080254,73.888817 54.630211,74.284897 
z"/>
<path fill="#F5F1DF" opacity="1.000000" stroke="none" 
	d="
M160.322235,72.386780 
	C160.395401,72.874268 160.215027,73.098526 159.801819,73.399445 
	C159.473602,73.391304 159.328278,73.266350 159.075348,72.731049 
	C159.147552,72.054848 159.386551,71.862480 159.684708,71.743591 
	C159.829361,71.883636 159.974014,72.023682 160.322235,72.386780 
z"/>
<path fill="#E7EDE3" opacity="1.000000" stroke="none" 
	d="
M65.534843,52.765663 
	C65.787941,53.286446 65.683792,53.685513 65.233322,53.988640 
	C64.983864,53.476448 65.080734,53.060200 65.534843,52.765663 
z"/>
<path fill="#E7EDE3" opacity="1.000000" stroke="none" 
	d="
M64.533798,53.762283 
	C64.787582,54.284740 64.682594,54.682701 64.231949,54.986832 
	C63.982536,54.474598 64.078781,54.056194 64.533798,53.762283 
z"/>
<path fill="#E7EDE3" opacity="1.000000" stroke="none" 
	d="
M51.739479,66.284531 
	C51.693634,66.029182 51.923756,65.768311 51.989471,65.712601 
	C52.220470,65.693787 52.385754,65.730682 52.665668,66.101204 
	C52.584465,66.707344 52.327877,66.898178 52.010536,67.007324 
	C51.935467,66.851517 51.860394,66.695702 51.739479,66.284531 
z"/>
<path fill="#E7EDE3" opacity="1.000000" stroke="none" 
	d="
M62.532486,55.757896 
	C62.786407,56.281441 62.679817,56.677227 62.229202,56.983036 
	C61.980770,56.472080 62.076366,56.051109 62.532486,55.757896 
z"/>
<path fill="#E7EDE3" opacity="1.000000" stroke="none" 
	d="
M54.529633,63.750874 
	C54.780930,64.270348 54.669739,64.658249 54.220314,64.969162 
	C53.977100,64.467880 54.072121,64.043587 54.529633,63.750874 
z"/>
<path fill="#E7EDE3" opacity="1.000000" stroke="none" 
	d="
M55.529701,62.751068 
	C55.781548,63.271564 55.670883,63.660374 55.221306,63.970749 
	C54.977329,63.468010 55.072262,63.043694 55.529701,62.751068 
z"/>
<path fill="#E7EDE3" opacity="1.000000" stroke="none" 
	d="
M56.529770,61.751274 
	C56.782158,62.272800 56.672062,62.662518 56.222328,62.972321 
	C55.977558,62.468094 56.072426,62.043781 56.529770,61.751274 
z"/>
<path fill="#E7EDE3" opacity="1.000000" stroke="none" 
	d="
M57.529900,60.751469 
	C57.782803,61.274117 57.673241,61.664829 57.223351,61.973999 
	C56.977825,61.468151 57.072632,61.043842 57.529900,60.751469 
z"/>
<path fill="#E7EDE3" opacity="1.000000" stroke="none" 
	d="
M58.529938,59.751991 
	C58.783447,60.275414 58.674580,60.667034 58.224522,60.975616 
	C57.978077,60.468445 58.072823,60.044315 58.529938,59.751991 
z"/>
<path fill="#E7EDE3" opacity="1.000000" stroke="none" 
	d="
M59.530445,58.753208 
	C59.784195,59.277042 59.675922,59.669899 59.225700,59.977638 
	C58.978638,59.469090 59.073532,59.045662 59.530445,58.753208 
z"/>
<path fill="#E7EDE3" opacity="1.000000" stroke="none" 
	d="
M60.530937,57.754105 
	C60.784962,58.278488 60.677204,58.672379 60.226799,58.979462 
	C59.979149,58.469643 60.074150,58.046623 60.530937,57.754105 
z"/>
<path fill="#E7EDE3" opacity="1.000000" stroke="none" 
	d="
M61.531830,56.756378 
	C61.785694,57.279953 61.678509,57.674747 61.227997,57.981209 
	C60.980034,57.471111 61.075409,57.049351 61.531830,56.756378 
z"/>
<path fill="#E7EDE3" opacity="1.000000" stroke="none" 
	d="
M63.532921,54.759609 
	C63.787029,55.282921 63.681225,55.679653 63.230537,55.984787 
	C62.981438,55.473133 63.077225,55.053082 63.532921,54.759609 
z"/>
<path fill="#E7EDE3" opacity="1.000000" stroke="none" 
	d="
M145.646042,87.515526 
	C145.417755,87.790070 145.189453,88.064613 144.562469,88.271729 
	C144.037903,88.064651 143.912018,87.925003 143.881744,87.556122 
	C144.177124,87.039131 144.448654,86.860558 145.000427,86.978241 
	C145.354599,87.282043 145.500320,87.398788 145.646042,87.515526 
z"/>
<path fill="#E7EDE3" opacity="1.000000" stroke="none" 
	d="
M59.479145,79.641075 
	C59.206402,79.414970 58.933659,79.188873 58.783875,78.508438 
	C59.081856,77.890297 59.256882,77.726471 59.641403,77.682388 
	C60.112549,78.003693 60.306217,78.257187 60.188293,78.827454 
	C59.789509,79.275208 59.634327,79.458138 59.479145,79.641075 
z"/>
<path fill="#E7EDE3" opacity="1.000000" stroke="none" 
	d="
M58.633606,78.287918 
	C58.081833,78.361259 57.834087,78.162430 57.762024,77.489708 
	C58.081985,76.890419 58.257065,76.726646 58.641602,76.682571 
	C59.112679,77.003792 59.306293,77.257240 59.431908,77.562637 
	C59.256882,77.726471 59.081856,77.890297 58.633606,78.287918 
z"/>
<path fill="#E7EDE3" opacity="1.000000" stroke="none" 
	d="
M60.479141,80.640656 
	C60.184082,80.501183 59.940342,80.299644 59.613533,79.838554 
	C59.634327,79.458138 59.789509,79.275208 60.397789,78.947205 
	C61.112549,79.003693 61.306217,79.257195 61.188095,79.827171 
	C60.789242,80.274696 60.634190,80.457680 60.479141,80.640656 
z"/>
<path fill="#E7EDE3" opacity="1.000000" stroke="none" 
	d="
M61.483547,81.645393 
	C61.187672,81.504379 60.943245,81.301407 60.614700,80.838577 
	C60.634190,80.457680 60.789242,80.274696 61.397560,79.946884 
	C62.112431,80.003578 62.306065,80.257034 62.189163,80.828323 
	C61.792248,81.277954 61.637897,81.461670 61.483547,81.645393 
z"/>
<path fill="#E7EDE3" opacity="1.000000" stroke="none" 
	d="
M152.355316,80.427933 
	C152.363510,80.912537 152.161896,81.162178 151.552979,81.302490 
	C151.062332,81.089088 150.942520,80.955559 150.909180,80.590805 
	C151.189560,80.066399 151.460068,79.892197 151.807175,79.836960 
	C151.932114,79.965454 152.057053,80.093948 152.355316,80.427933 
z"/>
<path fill="#E7EDE3" opacity="1.000000" stroke="none" 
	d="
M62.636070,82.290932 
	C62.112873,82.405128 61.893917,82.227875 61.598793,81.823868 
	C61.637897,81.461670 61.792248,81.277954 62.394501,80.943649 
	C63.097908,80.989853 63.286308,81.237656 63.407604,81.536476 
	C63.238815,81.706894 63.070023,81.877319 62.636070,82.290932 
z"/>
<path fill="#E7EDE3" opacity="1.000000" stroke="none" 
	d="
M151.349884,81.433060 
	C151.354568,81.920059 151.155579,82.167732 150.550430,82.303604 
	C150.059830,82.086472 149.939407,81.952255 149.908951,81.584656 
	C150.273499,81.174850 150.548096,80.998444 150.822693,80.822037 
	C150.942520,80.955559 151.062332,81.089088 151.349884,81.433060 
z"/>
<path fill="#E7EDE3" opacity="1.000000" stroke="none" 
	d="
M150.348862,82.432144 
	C150.354568,82.920212 150.155624,83.167870 149.549194,83.302399 
	C149.056488,83.083153 148.935242,82.948112 148.904938,82.580307 
	C149.270248,82.171036 149.544617,81.994537 149.819000,81.818039 
	C149.939407,81.952255 150.059830,82.086472 150.348862,82.432144 
z"/>
<path fill="#E7EDE3" opacity="1.000000" stroke="none" 
	d="
M149.347626,83.430893 
	C149.354675,83.920273 149.155731,84.167969 148.547913,84.301147 
	C148.053040,84.079720 147.930939,83.943810 147.900635,83.575775 
	C148.191956,83.051682 148.465820,82.874817 148.814011,82.813072 
	C148.935242,82.948112 149.056488,83.083153 149.347626,83.430893 
z"/>
<path fill="#E7EDE3" opacity="1.000000" stroke="none" 
	d="
M148.346313,84.429626 
	C148.354828,84.920326 148.155945,85.167961 147.546616,85.299637 
	C147.049286,85.075928 146.926208,84.939102 146.895935,84.570869 
	C147.188446,84.048622 147.461823,83.871437 147.808853,83.807907 
	C147.930939,83.943810 148.053040,84.079720 148.346313,84.429626 
z"/>
<path fill="#E7EDE3" opacity="1.000000" stroke="none" 
	d="
M147.345062,85.428085 
	C147.353775,85.921288 147.153870,86.170334 146.542679,86.301514 
	C146.044128,86.073952 145.920929,85.935425 145.891357,85.566154 
	C146.184601,85.045509 146.457306,84.867798 146.803146,84.802277 
	C146.926208,84.939102 147.049286,85.075928 147.345062,85.428085 
z"/>
<path fill="#E7EDE3" opacity="1.000000" stroke="none" 
	d="
M146.339935,86.430504 
	C146.384857,86.898926 146.211990,87.112770 145.819977,87.402802 
	C145.500320,87.398788 145.354599,87.282043 145.095062,86.748245 
	C145.180954,86.042366 145.453110,85.864265 145.797729,85.796890 
	C145.920929,85.935425 146.044128,86.073952 146.339935,86.430504 
z"/>
<path fill="#E7EDE3" opacity="1.000000" stroke="none" 
	d="
M57.633656,77.287979 
	C57.080700,77.359840 56.831478,77.159920 56.758636,76.487083 
	C57.081135,75.889839 57.257729,75.727516 57.643661,75.684357 
	C58.114151,76.004700 58.307198,76.257812 58.432144,76.562866 
	C58.257065,76.726646 58.081985,76.890419 57.633656,77.287979 
z"/>
<path fill="#E7EDE3" opacity="1.000000" stroke="none" 
	d="
M136.646194,96.515450 
	C136.502380,96.813431 136.297134,97.060341 135.830872,97.393791 
	C135.479523,97.399124 135.327728,97.266846 135.062439,96.704582 
	C135.146072,96.000999 135.407486,95.820457 135.956390,95.934464 
	C136.335159,96.262451 136.490677,96.388947 136.646194,96.515450 
z"/>
<path fill="#E7EDE3" opacity="1.000000" stroke="none" 
	d="
M144.340759,88.423912 
	C144.355347,88.920601 144.156479,89.168373 143.540710,89.293869 
	C143.033295,89.060089 142.906265,88.919296 142.876160,88.550186 
	C143.173126,88.035507 143.444138,87.856667 143.786118,87.785355 
	C143.912018,87.925003 144.037903,88.064651 144.340759,88.423912 
z"/>
<path fill="#E7EDE3" opacity="1.000000" stroke="none" 
	d="
M70.481499,90.642921 
	C70.182343,90.499138 69.933838,90.293991 69.599014,89.826447 
	C69.610695,89.463692 69.759369,89.301979 70.333893,89.042267 
	C71.001236,89.144363 71.193810,89.383827 71.117584,89.902573 
	C70.758972,90.309311 70.620232,90.476120 70.481499,90.642921 
z"/>
<path fill="#E7EDE3" opacity="1.000000" stroke="none" 
	d="
M143.339020,89.422226 
	C143.355515,89.920761 143.156677,90.168549 142.539062,90.292236 
	C142.028809,90.055634 141.900650,89.913719 141.870514,89.544357 
	C142.168579,89.031731 142.438812,88.852257 142.779251,88.778496 
	C142.906265,88.919296 143.033295,89.060089 143.339020,89.422226 
z"/>
<path fill="#E7EDE3" opacity="1.000000" stroke="none" 
	d="
M71.481506,91.642937 
	C71.186188,91.503616 70.942383,91.302002 70.615799,90.840515 
	C70.620232,90.476120 70.758972,90.309311 71.315842,90.035126 
	C71.984451,90.132126 72.185440,90.377121 72.117218,90.902679 
	C71.758842,91.309402 71.620171,91.476173 71.481506,91.642937 
z"/>
<path fill="#E7EDE3" opacity="1.000000" stroke="none" 
	d="
M142.337341,90.420540 
	C142.355682,90.920876 142.156876,91.168694 141.537170,91.290329 
	C141.023590,91.050446 140.894135,90.907249 140.864136,90.537674 
	C141.164001,90.027679 141.433624,89.847847 141.772476,89.771797 
	C141.900650,89.913719 142.028809,90.055634 142.337341,90.420540 
z"/>
<path fill="#E7EDE3" opacity="1.000000" stroke="none" 
	d="
M72.486046,92.647720 
	C72.189217,92.507896 71.944420,92.305229 71.616577,91.841339 
	C71.620171,91.476173 71.758842,91.309402 72.315468,91.035156 
	C72.983833,91.132011 73.184929,91.376862 73.118301,91.903641 
	C72.761948,92.312607 72.623993,92.480164 72.486046,92.647720 
z"/>
<path fill="#E7EDE3" opacity="1.000000" stroke="none" 
	d="
M56.629547,76.284195 
	C56.101223,76.390175 55.885757,76.217018 55.595890,75.821091 
	C55.637978,75.461754 55.792328,75.278046 56.399368,74.948479 
	C57.114491,75.004623 57.308578,75.258812 57.434319,75.565193 
	C57.257729,75.727516 57.081135,75.889839 56.629547,76.284195 
z"/>
<path fill="#E7EDE3" opacity="1.000000" stroke="none" 
	d="
M141.335403,91.418594 
	C141.355850,91.920975 141.157043,92.168823 140.535645,92.288818 
	C140.019455,92.046349 139.888962,91.902122 139.858765,91.532288 
	C140.159012,91.023987 140.427551,90.843117 140.764679,90.764061 
	C140.894135,90.907249 141.023590,91.050446 141.335403,91.418594 
z"/>
<path fill="#E7EDE3" opacity="1.000000" stroke="none" 
	d="
M73.614571,93.312119 
	C73.113152,93.407700 72.894234,93.230995 72.600555,92.826401 
	C72.623993,92.480164 72.761948,92.312607 73.311066,92.030106 
	C73.964211,92.111649 74.162392,92.345291 74.316772,92.616074 
	C74.163628,92.773727 74.010490,92.931389 73.614571,93.312119 
z"/>
<path fill="#E7EDE3" opacity="1.000000" stroke="none" 
	d="
M140.333847,92.417046 
	C140.355988,92.921043 140.157227,93.168907 139.534210,93.287323 
	C139.015411,93.042336 138.883911,92.897133 138.853699,92.527115 
	C139.154968,92.020691 139.422791,91.839226 139.758469,91.757896 
	C139.888962,91.902122 140.019455,92.046349 140.333847,92.417046 
z"/>
<path fill="#E7EDE3" opacity="1.000000" stroke="none" 
	d="
M139.332367,93.415497 
	C139.356201,93.921089 139.157455,94.168945 138.532959,94.285461 
	C138.011734,94.037849 137.879135,93.891808 137.848816,93.521797 
	C138.151093,93.017357 138.418198,92.835381 138.752396,92.751923 
	C138.883911,92.897133 139.015411,93.042336 139.332367,93.415497 
z"/>
<path fill="#E7EDE3" opacity="1.000000" stroke="none" 
	d="
M138.331024,94.413483 
	C138.354202,94.921112 138.154388,95.170013 137.528351,95.286652 
	C137.005463,95.035522 136.872498,94.887527 136.842850,94.515991 
	C137.146820,94.013405 137.413620,93.831177 137.746536,93.745758 
	C137.879135,93.891808 138.011734,94.037849 138.331024,94.413483 
z"/>
<path fill="#E7EDE3" opacity="1.000000" stroke="none" 
	d="
M137.325821,95.415764 
	C137.386566,95.899391 137.213867,96.113670 136.820679,96.403152 
	C136.490677,96.388947 136.335159,96.262451 136.061005,95.712296 
	C136.142670,95.010620 136.408386,94.827583 136.739532,94.739525 
	C136.872498,94.887527 137.005463,95.035522 137.325821,95.415764 
z"/>
<path fill="#DFDFDF" opacity="1.000000" stroke="none" 
	d="
M125.375488,145.568451 
	C126.330521,145.132050 127.224121,145.112045 128.453583,145.100250 
	C129.266525,147.210693 130.040588,149.317245 130.010010,151.412079 
	C130.002457,151.930191 127.382637,152.410187 125.590103,152.800644 
	C125.249069,150.457321 125.281563,148.221085 125.375488,145.568451 
z"/>
<path fill="#329639" opacity="1.000000" stroke="none" 
	d="
M57.643661,75.684357 
	C57.308578,75.258812 57.114491,75.004623 56.641991,74.682632 
	C56.307503,74.256340 56.114193,74.002487 55.642063,73.681915 
	C55.316750,73.263527 55.131332,73.016991 54.672150,72.708847 
	C55.903362,72.183083 57.329723,71.468727 58.775169,71.427773 
	C61.230396,71.358200 63.697647,71.712906 66.789673,71.836632 
	C67.516937,71.669937 67.614372,71.555931 67.711815,71.441925 
	C67.488388,71.264160 67.264954,71.086395 67.041527,70.908630 
	C66.461723,70.156593 65.881927,69.404556 65.184502,68.390167 
	C66.054398,65.041374 67.041908,61.954929 68.416595,57.658398 
	C69.525406,61.901226 70.321220,64.946381 70.793396,68.585793 
	C68.636116,70.984070 67.955658,72.617043 71.421997,72.951210 
	C75.944267,73.387169 80.487114,73.609558 85.444626,73.945129 
	C88.568298,74.271324 91.268456,74.576241 94.349358,74.918747 
	C95.493828,74.950333 96.257553,74.944321 97.480804,74.944344 
	C98.844551,74.787727 99.748772,74.625069 100.652985,74.462410 
	C107.469734,75.192383 114.286476,75.922348 121.103226,76.652321 
	C121.173141,77.248009 121.243057,77.843697 121.312973,78.439384 
	C120.137802,78.960716 119.006783,79.647224 117.779922,79.975212 
	C112.023384,81.514145 106.148666,82.668716 100.485771,84.488403 
	C87.945137,88.518143 76.121231,83.799995 63.729736,81.747818 
	C63.286308,81.237656 63.097908,80.989853 62.637070,80.677742 
	C62.306065,80.257034 62.112431,80.003578 61.641365,79.682343 
	C61.306217,79.257195 61.112549,79.003693 60.641396,78.682373 
	C60.306217,78.257187 60.112549,78.003693 59.641403,77.682388 
	C59.306293,77.257240 59.112679,77.003792 58.641602,76.682571 
	C58.307198,76.257812 58.114151,76.004700 57.643661,75.684357 
z"/>
<path fill="#BBDF36" opacity="1.000000" stroke="none" 
	d="
M159.627930,71.383591 
	C159.386551,71.862480 159.147552,72.054848 158.868805,72.531090 
	C157.994827,72.991783 157.219757,73.242096 156.196075,73.669235 
	C153.641510,74.067123 151.287338,74.064514 149.038422,74.549782 
	C141.261292,76.227905 133.582825,75.505219 125.409683,73.687103 
	C124.724022,73.148468 124.466919,72.986610 124.139221,72.936913 
	C125.189507,72.005646 126.239792,71.074379 127.560623,69.978363 
	C129.867920,69.550217 131.904694,69.286812 134.728821,69.192635 
	C138.712479,69.453590 141.908768,69.545319 145.105072,69.637039 
	C149.927109,70.099220 154.749130,70.561409 159.627930,71.383591 
z"/>
<path fill="#4CA250" opacity="1.000000" stroke="none" 
	d="
M85.021111,73.923843 
	C80.487114,73.609558 75.944267,73.387169 71.421997,72.951210 
	C67.955658,72.617043 68.636116,70.984070 70.805870,68.977142 
	C72.320930,68.487999 74.223557,68.541916 74.547058,67.853622 
	C75.644325,65.519104 76.183105,62.922077 77.313934,59.168255 
	C78.855759,63.888390 80.000694,67.393509 81.789146,70.957649 
	C82.603394,71.038727 82.774124,71.060776 83.134705,71.326538 
	C83.890076,72.354774 84.455589,73.139313 85.021111,73.923843 
z"/>
<path fill="#56A658" opacity="1.000000" stroke="none" 
	d="
M85.444626,73.945129 
	C84.455589,73.139313 83.890076,72.354774 83.538177,71.294739 
	C85.297493,70.604919 86.843185,70.190598 88.388878,69.776276 
	C92.088058,72.777840 90.435654,68.169571 91.781876,67.647644 
	C93.045059,69.129478 94.103500,70.497818 95.161949,71.866165 
	C95.161949,71.866165 95.018272,71.978928 94.943222,72.219238 
	C94.568314,73.266754 94.268456,74.073952 93.968597,74.881157 
	C91.268456,74.576241 88.568298,74.271324 85.444626,73.945129 
z"/>
<path fill="#58A552" opacity="1.000000" stroke="none" 
	d="
M88.334763,69.382423 
	C86.843185,70.190598 85.297493,70.604919 83.348328,71.051041 
	C82.774124,71.060776 82.603394,71.038727 82.175476,70.991867 
	C83.173378,67.842880 84.428444,64.718712 86.184082,60.348515 
	C87.047318,63.905956 87.663979,66.447258 88.334763,69.382423 
z"/>
<path fill="#EBEDB2" opacity="1.000000" stroke="none" 
	d="
M145.066193,69.314705 
	C141.908768,69.545319 138.712479,69.453590 135.113373,69.193649 
	C136.998337,65.133820 140.861771,66.441368 144.656616,66.267586 
	C145.059875,67.262047 145.043610,68.127213 145.066193,69.314705 
z"/>
<path fill="#56A658" opacity="1.000000" stroke="none" 
	d="
M100.421669,74.184525 
	C99.748772,74.625069 98.844551,74.787727 97.469360,74.592491 
	C96.595589,73.445946 96.192802,72.657280 95.790009,71.868622 
	C96.961067,69.467934 98.132118,67.067245 99.691551,63.870365 
	C100.340584,66.348648 100.825813,68.201447 101.390976,70.425774 
	C101.044052,71.833740 100.617203,72.870186 100.421669,74.184525 
z"/>
<path fill="#54A350" opacity="1.000000" stroke="none" 
	d="
M95.180763,71.456314 
	C94.103500,70.497818 93.045059,69.129478 91.976128,67.376076 
	C92.304726,65.628197 92.643806,64.265373 92.982887,62.902550 
	C93.286491,62.924183 93.590096,62.945816 93.893700,62.967445 
	C94.328995,65.660446 94.764282,68.353455 95.180763,71.456314 
z"/>
<path fill="#F2E4D0" opacity="1.000000" stroke="none" 
	d="
M52.060692,67.346382 
	C52.327877,66.898178 52.584465,66.707344 52.890984,66.218521 
	C53.001663,66.002197 53.448380,65.979012 53.671951,65.975830 
	C54.430553,66.535416 54.965576,67.098175 55.754356,67.839386 
	C54.709023,67.907036 53.409931,67.796234 52.060692,67.346382 
z"/>
<path fill="#4CA250" opacity="1.000000" stroke="none" 
	d="
M95.634125,71.853027 
	C96.192802,72.657280 96.595589,73.445946 97.009827,74.586456 
	C96.257553,74.944321 95.493828,74.950333 94.349350,74.918747 
	C94.268456,74.073952 94.568314,73.266754 95.017014,72.160614 
	C95.165871,71.861679 95.478241,71.837440 95.634125,71.853027 
z"/>
<path fill="#174D22" opacity="1.000000" stroke="none" 
	d="
M115.565025,115.565689 
	C112.626244,118.760323 109.937492,121.704895 107.439178,124.440895 
	C97.474319,114.472313 88.090927,105.085411 78.426140,95.417015 
	C85.244255,92.968605 91.593338,89.214874 99.774910,91.778427 
	C109.700958,94.888588 119.963432,96.925026 131.379471,99.747185 
	C125.565323,105.562836 120.690186,110.439232 115.565025,115.565689 
z"/>
<path fill="#76B740" opacity="1.000000" stroke="none" 
	d="
M136.842850,94.515991 
	C136.408386,94.827583 136.142670,95.010620 135.837769,95.510803 
	C135.407486,95.820457 135.146072,96.000999 134.846436,96.493500 
	C132.339966,96.303589 129.891266,96.066811 127.540131,95.455032 
	C119.065125,93.249794 110.622993,90.918190 102.014877,87.666847 
	C105.701820,86.591949 109.335823,85.258194 113.085754,84.491302 
	C123.810974,82.297905 134.566116,80.235626 145.352188,78.368378 
	C147.393997,78.014915 149.632065,78.795189 151.793381,79.444649 
	C151.460068,79.892197 151.189560,80.066399 150.909180,80.590805 
	C150.548096,80.998444 150.273499,81.174850 149.908951,81.584656 
	C149.544617,81.994537 149.270248,82.171036 148.904938,82.580307 
	C148.465820,82.874817 148.191956,83.051682 147.900635,83.575775 
	C147.461823,83.871437 147.188446,84.048622 146.895935,84.570869 
	C146.457306,84.867798 146.184601,85.045509 145.891357,85.566154 
	C145.453110,85.864265 145.180954,86.042366 144.886627,86.561188 
	C144.448654,86.860558 144.177124,87.039131 143.881744,87.556122 
	C143.444138,87.856667 143.173126,88.035507 142.876160,88.550186 
	C142.438812,88.852257 142.168579,89.031731 141.870514,89.544357 
	C141.433624,89.847847 141.164001,90.027679 140.864136,90.537674 
	C140.427551,90.843117 140.159012,91.023987 139.858765,91.532288 
	C139.422791,91.839226 139.154968,92.020691 138.853699,92.527115 
	C138.418198,92.835381 138.151093,93.017357 137.848816,93.521797 
	C137.413620,93.831177 137.146820,94.013405 136.842850,94.515991 
z"/>
<path fill="#89C15A" opacity="1.000000" stroke="none" 
	d="
M74.658096,92.651253 
	C74.162392,92.345291 73.964211,92.111649 73.529472,91.788681 
	C73.184929,91.376862 72.983833,91.132011 72.535172,90.795204 
	C72.185440,90.377121 71.984451,90.132126 71.535706,89.795197 
	C71.193810,89.383827 71.001236,89.144363 70.570053,88.812485 
	C70.774742,88.179054 71.221092,87.209900 71.555557,87.247093 
	C75.468697,87.682190 79.365028,88.268570 83.446693,89.835640 
	C80.630936,90.785904 77.815186,91.736168 74.658096,92.651253 
z"/>
<path fill="#F5F1DF" opacity="1.000000" stroke="none" 
	d="
M123.821457,72.988876 
	C124.466919,72.986610 124.724022,73.148468 124.999420,73.638298 
	C124.321190,74.110054 123.554047,74.365990 122.786911,74.621933 
	C123.025841,74.094902 123.264771,73.567879 123.821457,72.988876 
z"/>
<path fill="#56A658" opacity="1.000000" stroke="none" 
	d="
M122.909401,77.364784 
	C123.546326,77.529030 124.183250,77.693283 124.820175,77.857529 
	C124.409836,78.220123 123.999504,78.582710 123.269798,78.528076 
	C122.936752,77.862167 122.923080,77.613480 122.909401,77.364784 
z"/>
<path fill="#329639" opacity="1.000000" stroke="none" 
	d="
M122.484650,77.382828 
	C122.923080,77.613480 122.936752,77.862167 122.956528,78.484390 
	C122.661720,78.372246 122.360802,77.886559 122.484650,77.382828 
z"/>
<path fill="#DCE7D8" opacity="1.000000" stroke="none" 
	d="
M67.012222,71.106644 
	C67.264954,71.086395 67.488388,71.264160 67.711815,71.441925 
	C67.614372,71.555931 67.516937,71.669937 67.197952,71.744438 
	C66.976410,71.704926 66.982910,71.304649 67.012222,71.106644 
z"/>
</svg>