<svg xmlns="http://www.w3.org/2000/svg" version="1.1" xmlns:xlink="http://www.w3.org/1999/xlink" xmlns:svgjs="http://svgjs.dev/svgjs" width="1000" height="750" viewBox="0 0 1000 750"><rect width="1000" height="750" fill="#6936f5"></rect><g transform="matrix(0.834,0,0,0.834,82.49454545454546,264.0517502347768)"><svg viewBox="0 0 396 105" data-background-color="#6936f5" preserveAspectRatio="xMidYMid meet" height="265" width="1000" xmlns="http://www.w3.org/2000/svg" xmlns:xlink="http://www.w3.org/1999/xlink"><g id="tight-bounds" transform="matrix(1,0,0,1,0.2400000000000091,0.21058425115802493)"><svg viewBox="0 0 395.52 104.57883149768398" height="104.57883149768398" width="395.52"><g><svg viewBox="0 0 395.52 104.57883149768398" height="104.57883149768398" width="395.52"><g><svg viewBox="0 0 395.52 104.57883149768398" height="104.57883149768398" width="395.52"><g id="textblocktransform"><svg viewBox="0 0 395.52 104.57883149768398" height="104.57883149768398" width="395.52" id="textblock"><g><svg viewBox="0 0 395.52 104.57883149768398" height="104.57883149768398" width="395.52"><rect width="395.52" height="104.57883149768398" x="0" y="0" opacity="1" fill="#ffffff" data-fill-palette-color="tertiary"></rect><g transform="matrix(1,0,0,1,23.607599999999998,23.607599999999994)"><svg width="348.3048" viewBox="0.30000001192092896 -31.5 194.27999877929688 32" height="57.36363149768399" data-palette-color="#6936f5"><path d="M29.1-30.3L27.8-19.6Q18.35-20.5 17.53-20.5 16.7-20.5 16.48-20.25 16.25-20 16.25-19.15L16.25-19.15 16.25-7.85 17.85-7.85 17.85-16.9 30.15-16.9 30.15 0 20.45 0 19.95-1.3 19.75-1.3Q17.15 0.5 12.95 0.5L12.95 0.5Q0.3 0.5 0.3-15.65L0.3-15.65Q0.3-23.65 4.13-27.58 7.95-31.5 16.85-31.5L16.85-31.5Q22-31.5 29.1-30.3L29.1-30.3ZM54.9-8.95L54.15 0 31.65 0 31.65-31.05 55.1-31.05 54.35-20.85 45.75-20.85 45.75-19.05 54.15-19.05 53.65-10.75 45.75-10.75 45.75-8.95 54.9-8.95ZM79.4-31.05L78.75-20.95 74.25-20.95 74.25 0 60.1 0 60.1-20.95 55.1-20.95 55.6-31.05 79.4-31.05ZM119.14-31.05L119.14 0 104.94 0 104.94-10.9 103.34-10.9 103.34 0 89.14 0 89.14-31.05 103.34-31.05 103.34-19.5 104.94-19.5 104.94-31.05 119.14-31.05ZM144.39-8.95L143.64 0 121.14 0 121.14-31.05 144.59-31.05 143.84-20.85 135.24-20.85 135.24-19.05 143.64-19.05 143.14-10.75 135.24-10.75 135.24-8.95 144.39-8.95ZM164.89-9.95L164.19 0 145.59 0 145.59-31.05 159.69-31.05 159.69-9.95 164.89-9.95ZM181.43-8.65L181.43-8.65 179.98-8.65 179.98 0 165.88 0 165.88-31.05 180.83-31.05Q187.93-31.05 191.26-28.3 194.58-25.55 194.58-19.75 194.58-13.95 191.38-11.3 188.18-8.65 181.43-8.65ZM179.78-15.9L181.38-15.9 181.38-22.1 179.78-22.1 179.78-15.9Z" opacity="1" transform="matrix(1,0,0,1,0,0)" fill="#6936f5" class="undefined-text-0" data-fill-palette-color="quaternary" id="text-0"></path></svg></g></svg></g></svg></g></svg></g></svg></g><defs></defs></svg><rect width="395.52" height="104.57883149768398" fill="none" stroke="none" visibility="hidden"></rect></g></svg></g></svg>