<?xml version="1.0" standalone="no"?>
<!DOCTYPE svg PUBLIC "-//W3C//DTD SVG 20010904//EN"
 "http://www.w3.org/TR/2001/REC-SVG-20010904/DTD/svg10.dtd">
<svg version="1.0" xmlns="http://www.w3.org/2000/svg"
 width="1000.000000pt" height="750.000000pt" viewBox="0 0 1000.000000 750.000000"
 preserveAspectRatio="xMidYMid meet">

<g transform="translate(0.000000,750.000000) scale(0.100000,-0.100000)"
fill="#000000" stroke="none">
<path d="M0 3750 l0 -3750 5000 0 5000 0 0 3750 0 3750 -5000 0 -5000 0 0
-3750z m9160 5 l0 -1105 -4165 0 -4165 0 0 1105 0 1105 4165 0 4165 0 0 -1105z"/>
<path d="M1845 4350 c-267 -23 -411 -124 -478 -335 -57 -176 -42 -463 32 -621
63 -135 175 -214 331 -235 121 -17 221 1 332 59 4 2 13 -8 19 -22 l12 -26 179
0 178 0 0 320 0 320 -227 -2 -228 -3 -3 -172 -2 -173 -30 0 -30 0 2 238 3 237
45 3 c42 4 273 -12 351 -24 l35 -5 23 197 c24 205 23 213 -17 214 -8 0 -66 6
-130 14 -153 19 -298 25 -397 16z"/>
<path d="M2510 3755 l0 -585 425 0 425 0 1 23 c0 12 6 85 13 162 7 77 11 143
9 148 -2 4 -80 7 -174 7 l-169 0 0 35 0 35 149 0 149 0 6 73 c3 39 8 109 11
155 l6 82 -160 0 -161 0 0 35 0 35 163 0 164 0 11 153 c7 83 12 169 12 190 l0
37 -440 0 -440 0 0 -585z"/>
<path d="M3416 4268 c-3 -40 -8 -126 -12 -190 l-6 -118 96 0 96 0 0 -395 0
-395 265 0 265 0 0 395 0 395 84 0 83 0 7 103 c3 56 9 141 13 190 l6 87 -446
0 -445 0 -6 -72z"/>
<path d="M4680 3755 l0 -585 270 0 270 0 0 205 0 205 30 0 30 0 0 -205 0 -205
265 0 265 0 0 585 0 585 -265 0 -265 0 0 -220 0 -220 -30 0 -30 0 0 220 0 220
-270 0 -270 0 0 -585z"/>
<path d="M5890 3755 l0 -585 423 0 424 0 11 148 c7 81 12 157 12 170 0 22 0
22 -170 22 l-170 0 0 35 0 35 149 0 149 0 7 138 c3 75 7 144 8 152 2 13 -22
15 -155 18 l-158 3 0 34 0 35 160 0 c157 0 160 0 164 23 4 19 26 312 26 345 0
9 -95 12 -440 12 l-440 0 0 -585z"/>
<path d="M6810 3755 l0 -585 349 0 349 0 5 43 c4 23 9 92 12 152 3 61 8 125
11 143 l5 32 -101 0 -100 0 0 400 0 400 -265 0 -265 0 0 -585z"/>
<path d="M7580 3756 l0 -586 265 0 265 0 0 165 0 165 83 0 c142 0 267 36 347
100 86 68 136 243 112 396 -28 178 -109 268 -288 320 -49 14 -118 17 -421 21
l-363 5 0 -586z m580 134 l0 -120 -30 0 -30 0 0 113 c0 63 3 117 7 120 3 4 17
7 30 7 23 0 23 -1 23 -120z"/>
</g>
</svg>
