<svg version="1.1" id="Layer_1" xmlns="http://www.w3.org/2000/svg" xmlns:xlink="http://www.w3.org/1999/xlink" x="0px" y="0px"
	 width="100%" viewBox="0 0 366 118" enable-background="new 0 0 366 118" xml:space="preserve">
<path fill="#FEFFFF" opacity="1.000000" stroke="none" 
	d="
M342.000000,119.000000 
	C228.000015,119.000000 114.500031,119.000000 1.000031,119.000000 
	C1.000020,79.666687 1.000020,40.333370 1.000010,1.000041 
	C122.999969,1.000027 244.999939,1.000027 366.999939,1.000014 
	C366.999939,40.333294 366.999939,79.666588 366.999969,118.999939 
	C358.833344,119.000000 350.666687,119.000000 342.000000,119.000000 
M51.549244,63.981564 
	C51.732109,63.960083 51.914978,63.938599 52.019894,63.888794 
	C52.019894,63.888794 52.099438,63.865314 52.079113,64.533508 
	C52.722004,65.355667 53.364895,66.177834 54.110058,67.687881 
	C55.071884,68.122200 56.033714,68.556526 57.665302,68.993919 
	C58.111813,68.993103 58.558323,68.992287 59.376087,69.477844 
	C60.249779,68.649963 61.123470,67.822083 62.748638,66.994232 
	C64.498322,66.328262 66.248001,65.662285 68.440971,65.539070 
	C72.203613,70.337952 77.776596,68.260620 82.585007,69.260475 
	C83.098251,68.062943 83.615112,66.856987 84.781136,65.994057 
	C89.259895,67.179947 93.100304,65.036873 93.827713,60.945759 
	C94.621391,56.481979 92.081818,53.982895 85.847893,52.813194 
	C85.230560,53.200150 84.613235,53.587105 83.447037,54.189518 
	C82.955322,54.792580 82.463608,55.395641 81.254883,55.999344 
	C80.776184,56.008064 80.297478,56.016785 79.303497,55.694920 
	C78.908401,55.232201 78.513298,54.769478 78.770096,54.088879 
	C79.037811,53.754284 79.335289,53.436344 79.541771,53.067474 
	C79.573402,53.010952 79.185188,52.719425 78.991165,52.536594 
	C78.668877,53.112228 78.346588,53.687866 77.303474,54.101784 
	C76.840492,53.937744 76.377510,53.773705 75.484344,53.210484 
	C74.318527,53.405788 73.152702,53.601093 71.459869,54.142387 
	C71.094627,54.346756 70.729385,54.551121 70.159592,53.967297 
	C66.033310,51.961777 67.205017,47.369259 65.946434,43.156006 
	C64.324493,45.121231 63.443993,46.188095 62.250275,47.197941 
	C62.250275,47.197941 62.000916,47.000008 61.863255,46.276127 
	C56.150295,43.250320 54.864029,43.523899 52.995079,48.064240 
	C52.995079,48.064240 53.119907,48.103920 52.295689,48.035606 
	C51.196770,48.024006 50.097855,48.012405 49.230896,47.433846 
	C49.184151,46.745846 49.137405,46.057846 49.090656,45.369846 
	C48.094513,46.237633 47.098373,47.105423 46.102230,47.973209 
	C46.341511,48.251701 46.580791,48.530197 46.820068,48.808689 
	C47.546982,48.538773 48.273895,48.268856 48.993614,48.726330 
	C49.108433,50.192867 49.223248,51.659401 49.211864,53.960518 
	C49.174652,55.646824 49.137440,57.333134 48.445808,59.087273 
	C48.093781,59.544128 47.741749,60.000984 47.389721,60.457844 
	C48.343464,60.889706 49.297207,61.321568 50.089260,61.759838 
	C50.089260,61.759838 50.247372,61.794064 50.084141,62.520073 
	C50.056377,63.013687 50.028614,63.507301 49.337738,64.102135 
	C49.037090,64.794098 48.736443,65.486061 48.435795,66.178024 
	C48.798885,66.304810 49.161976,66.431595 49.525066,66.558380 
	C49.683086,65.705292 49.841103,64.852203 50.498154,64.000977 
	C50.498154,64.000977 50.997162,63.999451 51.549244,63.981564 
M247.045502,52.893105 
	C246.487717,49.288086 244.425537,50.732014 242.959320,51.912472 
	C241.460770,53.118931 240.357986,54.816952 239.174820,56.191841 
	C235.898087,55.048080 235.563324,49.428211 230.882263,51.337334 
	C230.882263,56.561199 230.882263,61.537945 230.882263,66.962234 
	C237.543594,66.682953 231.638947,59.854496 235.582870,58.482155 
	C236.623611,59.600986 237.682175,60.738979 238.773285,61.911976 
	C240.242889,60.510357 241.436020,59.372429 242.910767,57.965923 
	C243.139938,66.954475 243.139938,66.954475 247.046707,66.228607 
	C247.046707,62.110016 247.046707,57.957970 247.045502,52.893105 
M212.322281,64.944008 
	C213.271194,67.428101 214.333206,67.658813 216.095886,65.741608 
	C218.748611,62.856327 221.402603,63.063248 224.316711,65.459686 
	C225.404251,66.354034 226.922882,66.724152 229.379486,67.856041 
	C226.924866,61.994072 225.154999,57.395405 223.027023,52.968880 
	C222.545334,51.966896 220.841690,51.095276 219.658615,51.038605 
	C218.782715,50.996643 217.422485,52.189747 216.999420,53.150360 
	C215.405899,56.768528 214.107559,60.516697 212.322281,64.944008 
M254.363800,66.951393 
	C255.359329,66.928436 256.369629,67.007393 257.347931,66.865639 
	C262.806091,66.074722 265.335724,63.247593 265.041138,58.351860 
	C264.759918,53.678940 261.653442,51.010460 256.305084,50.896107 
	C254.232513,50.851788 252.158203,50.888866 249.918777,50.888866 
	C249.918777,55.675594 250.108185,59.823811 249.855576,63.944935 
	C249.671494,66.948204 251.207306,67.206406 254.363800,66.951393 
M95.976601,64.026573 
	C96.512421,64.837173 97.048241,65.647774 97.575027,66.444710 
	C96.694267,67.011032 95.826668,67.568901 94.959061,68.126770 
	C94.966888,68.661880 94.974709,69.196991 94.982529,69.732109 
	C97.705704,70.133598 100.950363,71.611351 102.998215,70.619095 
	C104.863647,69.715225 105.951607,66.230415 106.434402,63.702221 
	C107.008118,60.697937 106.569405,57.500313 106.569405,54.475079 
	C95.703430,53.035164 93.492897,54.958897 95.976601,64.026573 
M273.016724,49.672764 
	C271.574280,49.672764 270.131836,49.672764 268.519684,49.672764 
	C270.773682,55.483280 275.531067,54.867756 280.154022,54.853031 
	C280.357117,59.511116 279.327911,64.501053 284.907532,66.737503 
	C284.907532,61.057518 284.907532,55.583477 284.907532,49.673462 
	C281.149445,49.673462 277.518066,49.673462 273.016724,49.672764 
M178.839432,64.998688 
	C181.732101,65.157562 184.624771,65.316444 187.126953,65.453873 
	C187.126953,59.181622 187.126953,53.910564 187.126953,48.639503 
	C186.783264,48.631218 186.439560,48.622929 186.095871,48.614639 
	C185.764542,50.274765 185.433228,51.934887 185.377258,52.215298 
	C182.039474,53.851120 178.457703,54.464962 177.478058,56.397728 
	C176.433395,58.458767 177.848328,61.766483 178.839432,64.998688 
M119.540848,60.029411 
	C120.783157,59.395649 122.025467,58.761890 123.267776,58.128128 
	C123.385330,57.546673 123.502884,56.965218 123.620438,56.383762 
	C121.495697,55.448917 119.075317,53.402859 117.323303,53.868980 
	C115.272156,54.414680 112.648438,57.005890 112.405571,58.973061 
	C112.161499,60.950012 114.053978,64.159241 115.907234,65.149315 
	C117.695564,66.104698 120.628899,64.916840 123.059227,64.670525 
	C122.972237,63.921284 122.885239,63.172043 122.798248,62.422802 
	C120.614128,62.558262 118.430008,62.693718 116.245888,62.829178 
	C116.162437,62.470337 116.078995,62.111500 115.995552,61.752659 
	C116.918198,61.208965 117.840836,60.665268 119.540848,60.029411 
M143.436905,49.693707 
	C137.583145,47.007290 133.035309,48.388557 130.650253,53.577263 
	C128.516891,58.218422 130.688812,63.445972 135.542709,65.352837 
	C139.573715,66.936424 143.018005,65.698807 144.541489,61.843304 
	C142.248932,62.529625 140.143936,63.682617 138.044327,63.672897 
	C134.362961,63.655865 131.703751,59.555264 132.430267,55.766758 
	C133.193741,51.785461 136.512833,49.942215 140.693924,50.854675 
	C141.641663,51.061497 143.845398,54.464767 143.436905,49.693707 
M174.853088,63.097446 
	C174.776779,60.063446 174.700470,57.029446 174.624161,53.995445 
	C173.908981,53.994537 173.193817,53.993633 172.478653,53.992725 
	C172.323898,56.162624 172.439957,58.401764 171.909698,60.475651 
	C171.606522,61.661396 170.251373,62.578163 169.369858,63.616032 
	C168.572968,62.565693 167.343292,61.614712 167.074326,60.443176 
	C166.596664,58.362511 166.701492,56.148121 166.508560,53.148674 
	C163.636047,56.907684 163.363098,62.980988 165.677628,64.682510 
	C168.742142,66.935394 171.927612,66.302025 174.853088,63.097446 
M154.432114,54.022903 
	C153.415482,55.067993 151.557526,56.108101 151.551300,57.159168 
	C151.536804,59.607052 151.691193,62.741005 153.157074,64.297127 
	C154.342667,65.555740 158.223267,65.885597 159.672195,64.867714 
	C161.379456,63.668354 162.729370,60.465599 162.493866,58.322762 
	C162.071106,54.475998 159.030670,52.997086 154.432114,54.022903 
M276.386902,66.149750 
	C277.183167,65.195374 277.979462,64.240997 278.997711,63.020542 
	C276.691772,62.916103 274.897858,62.834858 272.912201,62.744930 
	C272.804016,60.572540 272.709198,58.668396 272.608337,56.642715 
	C267.295044,60.264641 267.191132,60.544628 268.428741,68.470390 
	C270.932953,67.892639 273.400574,67.323326 276.386902,66.149750 
M111.083397,60.252609 
	C111.083397,55.967422 111.083397,51.682240 111.083397,46.384331 
	C106.971664,50.160931 107.182793,63.457607 110.726311,65.599449 
	C110.850174,63.947388 110.954506,62.555740 111.083397,60.252609 
M146.957794,59.396084 
	C147.115204,61.300266 147.272614,63.204449 147.430023,65.108627 
	C147.790710,65.056183 148.151382,65.003746 148.512070,64.951302 
	C148.512070,59.644699 148.512070,54.338100 148.512070,49.031502 
	C147.994263,49.015789 147.476471,49.000072 146.958664,48.984360 
	C146.958664,52.137474 146.958664,55.290588 146.957794,59.396084 
z"/>
<path fill="#070707" opacity="1.000000" stroke="none" 
	d="
M247.046112,53.349514 
	C247.046707,57.957970 247.046707,62.110016 247.046707,66.228607 
	C243.139938,66.954475 243.139938,66.954475 242.910767,57.965923 
	C241.436020,59.372429 240.242889,60.510357 238.773285,61.911976 
	C237.682175,60.738979 236.623611,59.600986 235.582870,58.482155 
	C231.638947,59.854496 237.543594,66.682953 230.882263,66.962234 
	C230.882263,61.537945 230.882263,56.561199 230.882263,51.337334 
	C235.563324,49.428211 235.898087,55.048080 239.174820,56.191841 
	C240.357986,54.816952 241.460770,53.118931 242.959320,51.912472 
	C244.425537,50.732014 246.487717,49.288086 247.046112,53.349514 
z"/>
<path fill="#F4F9FA" opacity="1.000000" stroke="none" 
	d="
M62.563488,47.254959 
	C63.443993,46.188095 64.324493,45.121231 65.946434,43.156006 
	C67.205017,47.369259 66.033310,51.961777 70.073593,54.653397 
	C69.348854,56.370220 68.710106,57.400940 67.922791,58.004997 
	C65.057617,54.462700 61.514347,54.303734 58.298592,57.588173 
	C60.512032,57.865063 62.382439,58.099041 64.484444,58.361992 
	C63.542812,62.600609 60.661121,63.629559 57.039257,62.809708 
	C53.502007,62.009014 51.742165,59.405384 52.104092,55.806160 
	C52.485958,52.008583 54.676945,49.726818 58.665058,49.805008 
	C60.607414,49.843090 62.541496,50.303200 65.895210,50.768864 
	C64.064270,48.837807 63.313877,48.046383 62.563488,47.254959 
z"/>
<path fill="#101010" opacity="1.000000" stroke="none" 
	d="
M212.510483,64.580093 
	C214.107559,60.516697 215.405899,56.768528 216.999420,53.150360 
	C217.422485,52.189747 218.782715,50.996643 219.658615,51.038605 
	C220.841690,51.095276 222.545334,51.966896 223.027023,52.968880 
	C225.154999,57.395405 226.924866,61.994072 229.379486,67.856041 
	C226.922882,66.724152 225.404251,66.354034 224.316711,65.459686 
	C221.402603,63.063248 218.748611,62.856327 216.095886,65.741608 
	C214.333206,67.658813 213.271194,67.428101 212.510483,64.580093 
z"/>
<path fill="#0D0D0D" opacity="1.000000" stroke="none" 
	d="
M253.907974,66.951790 
	C251.207306,67.206406 249.671494,66.948204 249.855576,63.944935 
	C250.108185,59.823811 249.918777,55.675594 249.918777,50.888866 
	C252.158203,50.888866 254.232513,50.851788 256.305084,50.896107 
	C261.653442,51.010460 264.759918,53.678940 265.041138,58.351860 
	C265.335724,63.247593 262.806091,66.074722 257.347931,66.865639 
	C256.369629,67.007393 255.359329,66.928436 253.907974,66.951790 
M254.365540,63.789818 
	C258.232971,64.307602 260.977661,63.228256 260.949402,58.769703 
	C260.919952,54.126556 257.926880,53.624416 253.906967,54.184078 
	C253.906967,57.188534 253.906967,60.106510 254.365540,63.789818 
z"/>
<path fill="#5E92DF" opacity="1.000000" stroke="none" 
	d="
M62.406883,47.226448 
	C63.313877,48.046383 64.064270,48.837807 65.895210,50.768864 
	C62.541496,50.303200 60.607414,49.843090 58.665058,49.805008 
	C54.676945,49.726818 52.485958,52.008583 52.104092,55.806160 
	C51.742165,59.405384 53.502007,62.009014 57.039257,62.809708 
	C60.661121,63.629559 63.542812,62.600609 64.484444,58.361992 
	C62.382439,58.099041 60.512032,57.865063 58.298592,57.588173 
	C61.514347,54.303734 65.057617,54.462700 67.928978,57.985329 
	C68.083733,58.392323 68.022118,58.454678 67.747314,58.714081 
	C67.245689,59.946182 67.018867,60.918877 66.859077,61.930733 
	C66.926117,61.969891 66.829529,61.848312 66.551743,61.999397 
	C64.796921,63.316025 63.319885,64.481567 61.531040,65.710640 
	C60.812004,65.893951 60.404778,66.013748 59.613426,66.079620 
	C56.852684,65.305580 54.476063,64.585442 52.099438,63.865314 
	C52.099438,63.865314 52.019894,63.888794 51.975937,63.651150 
	C51.647724,63.210320 51.363476,63.007133 51.016499,62.577759 
	C50.823208,62.032742 50.587742,61.846909 50.247372,61.794064 
	C50.247372,61.794064 50.089260,61.759838 50.120941,61.464272 
	C49.801823,60.452282 49.451027,59.735859 49.100227,59.019440 
	C49.137440,57.333134 49.174652,55.646824 49.486282,53.313194 
	C50.880436,51.145222 52.000172,49.624573 53.119907,48.103920 
	C53.119907,48.103920 52.995079,48.064240 53.440331,48.023167 
	C56.590694,47.654732 59.295803,47.327370 62.000916,47.000008 
	C62.000916,47.000008 62.250275,47.197941 62.406883,47.226448 
z"/>
<path fill="#5B8FDC" opacity="1.000000" stroke="none" 
	d="
M95.860275,63.660828 
	C93.492897,54.958897 95.703430,53.035164 106.569405,54.475079 
	C106.569405,57.500313 107.008118,60.697937 106.434402,63.702221 
	C105.951607,66.230415 104.863647,69.715225 102.998215,70.619095 
	C100.950363,71.611351 97.705704,70.133598 94.982529,69.732109 
	C94.974709,69.196991 94.966888,68.661880 94.959061,68.126770 
	C95.826668,67.568901 96.694267,67.011032 97.575027,66.444710 
	C97.048241,65.647774 96.512421,64.837173 95.860275,63.660828 
M99.692955,62.886040 
	C101.072357,62.109619 102.919518,61.624641 103.653755,60.446236 
	C104.086334,59.751972 103.010269,57.717667 102.110474,56.755943 
	C101.634758,56.247486 99.180313,56.628342 99.157310,56.806396 
	C98.914009,58.689816 98.980591,60.613258 99.692955,62.886040 
z"/>
<path fill="#101010" opacity="1.000000" stroke="none" 
	d="
M273.451721,49.673111 
	C277.518066,49.673462 281.149445,49.673462 284.907532,49.673462 
	C284.907532,55.583477 284.907532,61.057518 284.907532,66.737503 
	C279.327911,64.501053 280.357117,59.511116 280.154022,54.853031 
	C275.531067,54.867756 270.773682,55.483280 268.519684,49.672764 
	C270.131836,49.672764 271.574280,49.672764 273.451721,49.673111 
z"/>
<path fill="#7E7F80" opacity="1.000000" stroke="none" 
	d="
M178.514465,64.764313 
	C177.848328,61.766483 176.433395,58.458767 177.478058,56.397728 
	C178.457703,54.464962 182.039474,53.851120 185.377258,52.215298 
	C185.433228,51.934887 185.764542,50.274765 186.095871,48.614639 
	C186.439560,48.622929 186.783264,48.631218 187.126953,48.639503 
	C187.126953,53.910564 187.126953,59.181622 187.126953,65.453873 
	C184.624771,65.316444 181.732101,65.157562 178.514465,64.764313 
M185.790710,59.478550 
	C184.317368,58.312557 182.844025,57.146564 181.370682,55.980564 
	C180.542877,57.224178 179.070618,58.464779 179.064789,59.712242 
	C179.058701,61.013515 180.465729,62.321400 181.254959,63.626396 
	C182.751251,62.493076 184.247543,61.359756 185.790710,59.478550 
z"/>
<path fill="#D45B4F" opacity="1.000000" stroke="none" 
	d="
M119.152161,60.075493 
	C117.840836,60.665268 116.918198,61.208965 115.995552,61.752659 
	C116.078995,62.111500 116.162437,62.470337 116.245888,62.829178 
	C118.430008,62.693718 120.614128,62.558262 122.798248,62.422802 
	C122.885239,63.172043 122.972237,63.921284 123.059227,64.670525 
	C120.628899,64.916840 117.695564,66.104698 115.907234,65.149315 
	C114.053978,64.159241 112.161499,60.950012 112.405571,58.973061 
	C112.648438,57.005890 115.272156,54.414680 117.323303,53.868980 
	C119.075317,53.402859 121.495697,55.448917 123.620438,56.383762 
	C123.502884,56.965218 123.385330,57.546673 123.267776,58.128128 
	C122.025467,58.761890 120.783157,59.395649 119.152161,60.075493 
z"/>
<path fill="#727374" opacity="1.000000" stroke="none" 
	d="
M143.713043,49.924141 
	C143.845398,54.464767 141.641663,51.061497 140.693924,50.854675 
	C136.512833,49.942215 133.193741,51.785461 132.430267,55.766758 
	C131.703751,59.555264 134.362961,63.655865 138.044327,63.672897 
	C140.143936,63.682617 142.248932,62.529625 144.541489,61.843304 
	C143.018005,65.698807 139.573715,66.936424 135.542709,65.352837 
	C130.688812,63.445972 128.516891,58.218422 130.650253,53.577263 
	C133.035309,48.388557 137.583145,47.007290 143.713043,49.924141 
z"/>
<path fill="#EEC63F" opacity="1.000000" stroke="none" 
	d="
M86.131058,53.371826 
	C92.081818,53.982895 94.621391,56.481979 93.827713,60.945759 
	C93.100304,65.036873 89.259895,67.179947 84.335876,65.518051 
	C82.923843,63.506977 81.957069,61.971912 80.934158,60.294636 
	C80.846756,59.941315 80.886871,59.744781 81.143776,59.217194 
	C81.516754,57.913944 81.744324,56.956322 81.971893,55.998703 
	C82.463608,55.395641 82.955322,54.792580 84.012642,54.148323 
	C85.095848,53.862022 85.613457,53.616924 86.131058,53.371826 
M90.804817,60.342655 
	C89.748215,58.948215 88.691612,57.553776 87.635017,56.159336 
	C86.600021,57.068008 84.967995,57.831211 84.701012,58.926998 
	C84.443413,59.984276 85.509201,62.378319 86.143806,62.432713 
	C87.573860,62.555283 89.096779,61.594288 90.804817,60.342655 
z"/>
<path fill="#828385" opacity="1.000000" stroke="none" 
	d="
M174.832016,63.531334 
	C171.927612,66.302025 168.742142,66.935394 165.677628,64.682510 
	C163.363098,62.980988 163.636047,56.907684 166.508560,53.148674 
	C166.701492,56.148121 166.596664,58.362511 167.074326,60.443176 
	C167.343292,61.614712 168.572968,62.565693 169.369858,63.616032 
	C170.251373,62.578163 171.606522,61.661396 171.909698,60.475651 
	C172.439957,58.401764 172.323898,56.162624 172.478653,53.992725 
	C173.193817,53.993633 173.908981,53.994537 174.624161,53.995445 
	C174.700470,57.029446 174.776779,60.063446 174.832016,63.531334 
z"/>
<path fill="#D45B4F" opacity="1.000000" stroke="none" 
	d="
M80.998367,59.562824 
	C80.886871,59.744781 80.846756,59.941315 80.706398,60.596313 
	C78.527885,62.684322 76.408463,65.753777 74.543015,65.606483 
	C72.285683,65.428268 70.243233,62.528210 68.138573,60.413551 
	C68.120277,59.498943 68.071198,58.976810 68.022118,58.454678 
	C68.022118,58.454678 68.083733,58.392323 68.077545,58.411991 
	C68.710106,57.400940 69.348854,56.370220 70.175873,55.047493 
	C70.729385,54.551121 71.094627,54.346756 72.117722,53.976624 
	C73.821884,53.743793 74.868210,53.676727 75.914528,53.609661 
	C76.377510,53.773705 76.840492,53.937744 77.690529,54.186634 
	C78.077583,54.271484 78.118202,54.306759 78.118202,54.306759 
	C78.513298,54.769478 78.908401,55.232201 79.624329,56.236393 
	C80.296234,57.706184 80.647301,58.634502 80.998367,59.562824 
M77.460678,61.117031 
	C76.754547,59.502525 76.048416,57.888020 75.342285,56.273510 
	C74.090652,56.841625 72.292252,57.097729 71.740227,58.065079 
	C71.181427,59.044327 71.583549,61.792301 72.039223,61.908737 
	C73.612007,62.310623 75.391853,61.902199 77.460678,61.117031 
z"/>
<path fill="#727374" opacity="1.000000" stroke="none" 
	d="
M154.784760,53.918724 
	C159.030670,52.997086 162.071106,54.475998 162.493866,58.322762 
	C162.729370,60.465599 161.379456,63.668354 159.672195,64.867714 
	C158.223267,65.885597 154.342667,65.555740 153.157074,64.297127 
	C151.691193,62.741005 151.536804,59.607052 151.551300,57.159168 
	C151.557526,56.108101 153.415482,55.067993 154.784760,53.918724 
M156.551865,55.845104 
	C155.467728,57.560493 154.020767,59.177750 153.514542,61.049446 
	C153.357101,61.631557 155.668869,63.478561 156.999390,63.661465 
	C157.925552,63.788776 160.122375,61.839172 159.982697,61.210201 
	C159.562805,59.319462 158.276367,57.621162 156.551865,55.845104 
z"/>
<path fill="#0D0D0D" opacity="1.000000" stroke="none" 
	d="
M276.127563,66.451874 
	C273.400574,67.323326 270.932953,67.892639 268.428741,68.470390 
	C267.191132,60.544628 267.295044,60.264641 272.608337,56.642715 
	C272.709198,58.668396 272.804016,60.572540 272.912201,62.744930 
	C274.897858,62.834858 276.691772,62.916103 278.997711,63.020542 
	C277.979462,64.240997 277.183167,65.195374 276.127563,66.451874 
z"/>
<path fill="#F9F7F1" opacity="1.000000" stroke="none" 
	d="
M68.107788,60.806030 
	C70.243233,62.528210 72.285683,65.428268 74.543015,65.606483 
	C76.408463,65.753777 78.527885,62.684322 80.762527,60.738525 
	C81.957069,61.971912 82.923843,63.506977 84.011292,65.346542 
	C83.615112,66.856987 83.098251,68.062943 82.585007,69.260475 
	C77.776596,68.260620 72.203613,70.337952 68.086960,64.959183 
	C67.431801,63.535641 67.130669,62.691975 66.829529,61.848312 
	C66.829529,61.848312 66.926117,61.969891 67.146904,61.845821 
	C67.614388,61.416512 67.861084,61.111271 68.107788,60.806030 
z"/>
<path fill="#57AE6D" opacity="1.000000" stroke="none" 
	d="
M111.071121,60.708351 
	C110.954506,62.555740 110.850174,63.947388 110.726311,65.599449 
	C107.182793,63.457607 106.971664,50.160931 111.083397,46.384331 
	C111.083397,51.682240 111.083397,55.967422 111.071121,60.708351 
z"/>
<path fill="#5F6265" opacity="1.000000" stroke="none" 
	d="
M146.958221,58.919891 
	C146.958664,55.290588 146.958664,52.137474 146.958664,48.984360 
	C147.476471,49.000072 147.994263,49.015789 148.512070,49.031502 
	C148.512070,54.338100 148.512070,59.644699 148.512070,64.951302 
	C148.151382,65.003746 147.790710,65.056183 147.430023,65.108627 
	C147.272614,63.204449 147.115204,61.300266 146.958221,58.919891 
z"/>
<path fill="#F4F9FA" opacity="1.000000" stroke="none" 
	d="
M61.932083,46.638069 
	C59.295803,47.327370 56.590694,47.654732 53.493942,48.060802 
	C54.864029,43.523899 56.150295,43.250320 61.932083,46.638069 
z"/>
<path fill="#F4F9FA" opacity="1.000000" stroke="none" 
	d="
M52.089275,64.199409 
	C54.476063,64.585442 56.852684,65.305580 59.587112,66.384338 
	C59.631557,67.492470 59.318195,68.241966 59.004833,68.991463 
	C58.558323,68.992287 58.111813,68.993103 57.278076,68.649567 
	C55.929829,67.870140 54.968807,67.435074 54.007782,67.000000 
	C53.364895,66.177834 52.722004,65.355667 52.089275,64.199409 
z"/>
<path fill="#F4F9FA" opacity="1.000000" stroke="none" 
	d="
M66.551743,61.999397 
	C67.130669,62.691975 67.431801,63.535641 67.865311,64.687805 
	C66.248001,65.662285 64.498322,66.328262 62.343964,66.656380 
	C61.907135,66.094719 61.874989,65.870918 61.842846,65.647118 
	C63.319885,64.481567 64.796921,63.316025 66.551743,61.999397 
z"/>
<path fill="#F4F9FA" opacity="1.000000" stroke="none" 
	d="
M52.707798,48.069763 
	C52.000172,49.624573 50.880436,51.145222 49.549385,52.895905 
	C49.223248,51.659401 49.108433,50.192867 48.996807,48.363167 
	C49.000000,48.000000 48.998936,48.000809 48.998936,48.000809 
	C50.097855,48.012405 51.196770,48.024006 52.707798,48.069763 
z"/>
<path fill="#F4F9FA" opacity="1.000000" stroke="none" 
	d="
M49.000404,47.999470 
	C48.273895,48.268856 47.546982,48.538773 46.820068,48.808689 
	C46.580791,48.530197 46.341511,48.251701 46.102230,47.973209 
	C47.098373,47.105423 48.094513,46.237633 49.090656,45.369846 
	C49.137405,46.057846 49.184151,46.745846 49.114914,47.717327 
	C48.998936,48.000809 49.000000,48.000000 49.000404,47.999470 
z"/>
<path fill="#F9F7F1" opacity="1.000000" stroke="none" 
	d="
M61.531040,65.710640 
	C61.874989,65.870918 61.907135,66.094719 61.968224,66.656364 
	C61.123470,67.822083 60.249779,68.649963 59.190460,69.234650 
	C59.318195,68.241966 59.631557,67.492470 59.971230,66.438255 
	C60.404778,66.013748 60.812004,65.893951 61.531040,65.710640 
z"/>
<path fill="#F9F7F1" opacity="1.000000" stroke="none" 
	d="
M48.773018,59.053356 
	C49.451027,59.735859 49.801823,60.452282 50.201786,61.461067 
	C49.297207,61.321568 48.343464,60.889706 47.389717,60.457844 
	C47.741749,60.000984 48.093781,59.544128 48.773018,59.053356 
z"/>
<path fill="#F9F7F1" opacity="1.000000" stroke="none" 
	d="
M75.699432,53.410072 
	C74.868210,53.676727 73.821884,53.743793 72.381226,53.803627 
	C73.152702,53.601093 74.318527,53.405788 75.699432,53.410072 
z"/>
<path fill="#F9F7F1" opacity="1.000000" stroke="none" 
	d="
M49.999123,63.999115 
	C49.841103,64.852203 49.683086,65.705292 49.525066,66.558380 
	C49.161976,66.431595 48.798885,66.304810 48.435795,66.178024 
	C48.736443,65.486061 49.037090,64.794098 49.668869,64.051071 
	C50.000000,64.000000 49.999123,63.999115 49.999123,63.999115 
z"/>
<path fill="#F9F7F1" opacity="1.000000" stroke="none" 
	d="
M54.058922,67.343941 
	C54.968807,67.435074 55.929829,67.870140 56.943199,68.648026 
	C56.033714,68.556526 55.071884,68.122200 54.058922,67.343941 
z"/>
<path fill="#F9F7F1" opacity="1.000000" stroke="none" 
	d="
M81.143776,59.217194 
	C80.647301,58.634502 80.296234,57.706184 79.881973,56.401688 
	C80.297478,56.016785 80.776184,56.008064 81.613388,55.999023 
	C81.744324,56.956322 81.516754,57.913944 81.143776,59.217194 
z"/>
<path fill="#F9F7F1" opacity="1.000000" stroke="none" 
	d="
M85.989471,53.092510 
	C85.613457,53.616924 85.095848,53.862022 84.287079,54.040596 
	C84.613235,53.587105 85.230560,53.200150 85.989471,53.092510 
z"/>
<path fill="#F9F7F1" opacity="1.000000" stroke="none" 
	d="
M78.444153,54.197819 
	C78.118202,54.306759 78.077583,54.271484 78.050941,54.267494 
	C78.346588,53.687866 78.668877,53.112228 78.991165,52.536591 
	C79.185188,52.719425 79.573402,53.010952 79.541771,53.067474 
	C79.335289,53.436344 79.037811,53.754284 78.444153,54.197819 
z"/>
<path fill="#F9F7F1" opacity="1.000000" stroke="none" 
	d="
M50.165756,62.157066 
	C50.587742,61.846909 50.823208,62.032742 50.986202,62.876755 
	C51.011475,63.601109 51.004318,63.800282 50.997162,63.999451 
	C50.997162,63.999451 50.498154,64.000977 50.248638,64.000046 
	C49.999123,63.999115 50.000000,64.000000 50.000423,64.000458 
	C50.028614,63.507301 50.056377,63.013687 50.165756,62.157066 
z"/>
<path fill="#F4F9FA" opacity="1.000000" stroke="none" 
	d="
M51.273201,63.990509 
	C51.004318,63.800282 51.011475,63.601109 51.048927,63.102943 
	C51.363476,63.007133 51.647724,63.210320 52.014908,63.665314 
	C51.914978,63.938599 51.732109,63.960083 51.273201,63.990509 
z"/>
<path fill="#F9F7F1" opacity="1.000000" stroke="none" 
	d="
M254.136261,63.407154 
	C253.906967,60.106510 253.906967,57.188534 253.906967,54.184078 
	C257.926880,53.624416 260.919952,54.126556 260.949402,58.769703 
	C260.977661,63.228256 258.232971,64.307602 254.136261,63.407154 
z"/>
<path fill="#F4F9FA" opacity="1.000000" stroke="none" 
	d="
M68.138573,60.413555 
	C67.861084,61.111271 67.614388,61.416512 67.079865,61.806664 
	C67.018867,60.918877 67.245689,59.946182 67.747314,58.714081 
	C68.071198,58.976810 68.120277,59.498943 68.138573,60.413555 
z"/>
<path fill="#F4F9FA" opacity="1.000000" stroke="none" 
	d="
M99.327354,62.705856 
	C98.980591,60.613258 98.914009,58.689816 99.157310,56.806396 
	C99.180313,56.628342 101.634758,56.247486 102.110474,56.755943 
	C103.010269,57.717667 104.086334,59.751972 103.653755,60.446236 
	C102.919518,61.624641 101.072357,62.109619 99.327354,62.705856 
z"/>
<path fill="#F4F9FA" opacity="1.000000" stroke="none" 
	d="
M185.767273,59.852493 
	C184.247543,61.359756 182.751251,62.493076 181.254959,63.626396 
	C180.465729,62.321400 179.058701,61.013515 179.064789,59.712242 
	C179.070618,58.464779 180.542877,57.224178 181.370682,55.980568 
	C182.844025,57.146564 184.317368,58.312557 185.767273,59.852493 
z"/>
<path fill="#FCF9DB" opacity="1.000000" stroke="none" 
	d="
M90.693359,60.708435 
	C89.096779,61.594288 87.573860,62.555283 86.143806,62.432713 
	C85.509201,62.378319 84.443413,59.984276 84.701012,58.926998 
	C84.967995,57.831211 86.600021,57.068008 87.635010,56.159336 
	C88.691612,57.553776 89.748215,58.948215 90.693359,60.708435 
z"/>
<path fill="#FCECE6" opacity="1.000000" stroke="none" 
	d="
M77.276764,61.459686 
	C75.391853,61.902199 73.612007,62.310623 72.039223,61.908737 
	C71.583549,61.792301 71.181427,59.044327 71.740227,58.065079 
	C72.292252,57.097729 74.090652,56.841625 75.342285,56.273510 
	C76.048416,57.888020 76.754547,59.502525 77.276764,61.459686 
z"/>
<path fill="#F9F7F1" opacity="1.000000" stroke="none" 
	d="
M156.939926,55.846443 
	C158.276367,57.621162 159.562805,59.319462 159.982697,61.210201 
	C160.122375,61.839172 157.925552,63.788776 156.999390,63.661465 
	C155.668869,63.478561 153.357101,61.631557 153.514542,61.049446 
	C154.020767,59.177750 155.467728,57.560493 156.939926,55.846443 
z"/>
</svg>