<?xml version="1.0" standalone="no"?>
<!DOCTYPE svg PUBLIC "-//W3C//DTD SVG 20010904//EN"
 "http://www.w3.org/TR/2001/REC-SVG-20010904/DTD/svg10.dtd">
<svg version="1.0" xmlns="http://www.w3.org/2000/svg"
 width="2000.000000pt" height="1500.000000pt" viewBox="0 0 2000.000000 1500.000000"
 preserveAspectRatio="xMidYMid meet">

<g transform="translate(0.000000,1500.000000) scale(0.100000,-0.100000)"
fill="#000000" stroke="none">
<path d="M0 7500 l0 -7500 10000 0 10000 0 0 7500 0 7500 -10000 0 -10000 0 0
-7500z m5060 1093 l0 -538 125 125 125 125 122 -123 123 -122 -248 -248 -247
-247 0 -848 0 -847 -1275 0 -1275 0 0 1630 0 1630 1275 0 1275 0 0 -537z
m7271 51 c337 -63 568 -296 659 -663 59 -237 66 -609 15 -851 -49 -236 -129
-394 -270 -535 -158 -159 -317 -231 -573 -257 -301 -30 -595 51 -764 211 -154
144 -234 308 -278 567 -40 232 -36 517 10 741 85 409 304 670 648 768 160 47
371 54 553 19z m3088 0 c36 -8 95 -31 131 -50 68 -38 199 -139 207 -161 3 -7
-39 -66 -93 -130 -53 -65 -99 -120 -100 -122 -2 -2 -28 19 -59 47 -190 174
-483 171 -647 -6 -131 -142 -193 -373 -192 -722 0 -249 20 -387 80 -541 55
-141 174 -258 303 -296 118 -35 347 -15 528 48 31 10 57 19 59 19 4 0 96 -281
93 -285 -13 -11 -211 -67 -299 -84 -430 -82 -790 15 -978 265 -69 92 -114 179
-150 295 -57 176 -66 257 -67 539 0 227 3 268 23 368 88 436 312 705 667 803
148 40 354 46 494 13z m-8901 -1151 l2 -1143 -200 0 -200 0 0 1145 0 1145 198
-2 197 -3 3 -1142z m1289 395 c275 -414 512 -773 527 -796 15 -24 29 -42 32
-40 2 2 -1 65 -6 139 -5 74 -12 430 -16 792 l-7 657 202 0 201 0 0 -1145 0
-1145 -167 0 -168 0 -385 601 c-212 331 -445 697 -518 813 -73 116 -136 214
-140 218 -4 4 -2 -60 4 -143 7 -82 15 -451 19 -819 l8 -670 -202 0 -201 0 0
1145 0 1145 159 0 158 0 500 -752z m1731 290 c88 -255 217 -638 287 -853 69
-214 130 -399 134 -410 6 -15 13 -2 30 55 54 186 214 658 387 1143 l188 527
204 0 c159 0 203 -3 199 -12 -2 -7 -195 -523 -427 -1145 l-423 -1133 -156 0
-157 0 -424 1136 c-234 624 -426 1140 -428 1145 -2 5 84 9 211 9 l214 0 161
-462z m4292 -683 l0 -1145 -200 0 -200 0 0 1145 0 1145 200 0 200 0 0 -1145z
m3595 990 l0 -150 -477 -3 -478 -2 0 -315 0 -315 390 0 390 0 0 -21 c0 -12
-10 -82 -21 -155 l-22 -134 -368 0 -369 0 0 -365 0 -365 503 -2 502 -3 0 -150
0 -150 -702 -3 -703 -2 0 1145 0 1145 678 -2 677 -3 0 -150z"/>
<path d="M2590 7500 l0 -1540 1190 0 1190 0 0 750 c0 413 -3 750 -7 750 -5 0
-154 -146 -333 -325 l-325 -324 -135 -46 c-74 -25 -156 -52 -181 -59 l-47 -14
60 181 60 182 454 455 454 455 0 538 0 537 -1190 0 -1190 0 0 -1540z"/>
<path d="M4062 6913 l-22 -68 29 -29 29 -28 67 22 67 22 -73 74 c-41 41 -74
74 -74 74 -1 0 -11 -30 -23 -67z"/>
<path d="M11950 8349 c-226 -39 -370 -250 -409 -602 -16 -137 -14 -387 4 -520
48 -370 208 -557 497 -583 237 -21 415 100 501 341 78 219 88 659 21 925 -58
232 -190 386 -364 428 -69 17 -189 22 -250 11z"/>
</g>
</svg>
