<svg xmlns="http://www.w3.org/2000/svg" version="1.1" xmlns:xlink="http://www.w3.org/1999/xlink" xmlns:svgjs="http://svgjs.dev/svgjs" width="2000" height="1500" viewBox="0 0 2000 1500"><rect width="2000" height="1500" fill="#000000"></rect><g transform="matrix(0.75,0,0,0.75,249.090909090909,587.2891750100466)"><svg viewBox="0 0 396 86" data-background-color="#ffffff" preserveAspectRatio="xMidYMid meet" height="434" width="2000" xmlns="http://www.w3.org/2000/svg" xmlns:xlink="http://www.w3.org/1999/xlink"><g id="tight-bounds" transform="matrix(1,0,0,1,0.2400000000000091,-0.010350386678993573)"><svg viewBox="0 0 395.52 86.020700773358" height="86.020700773358" width="395.52"><g><svg viewBox="0 0 521.184933714432 113.35126727000298" height="86.020700773358" width="395.52"><g transform="matrix(1,0,0,1,125.66493371443194,15.665768486664668)"><svg viewBox="0 0 395.52 82.01973029667364" height="82.01973029667364" width="395.52"><g id="textblocktransform"><svg viewBox="0 0 395.52 82.01973029667364" height="82.01973029667364" width="395.52" id="textblock"><g><svg viewBox="0 0 395.52 82.01973029667364" height="82.01973029667364" width="395.52"><g transform="matrix(1,0,0,1,0,0)"><svg width="395.52" viewBox="3.5 -34.3 168.34 34.599999999999994" height="82.01973029667364" data-palette-color="#ee3e38"><g class="undefined-text-0" data-fill-palette-color="primary" id="text-0"><path d="M3.5 0L3.5-33.85 9.45-33.85 9.45 0 3.5 0ZM36.6-16.15L36.45-33.85 42.4-33.85 42.4 0.05 37.45 0.05 26.05-17.75Q25.1-19.2 23.97-21.03 22.85-22.85 21.85-24.4L21.85-24.4Q22-22.8 22.12-21.05 22.25-19.3 22.25-17.7L22.25-17.7 22.4 0 16.45 0 16.45-33.95 21.1-33.95 32.85-16.35Q33.85-14.9 34.87-13.28 35.9-11.65 36.9-10.15L36.9-10.15Q36.8-11.75 36.7-13.38 36.6-15 36.6-16.15L36.6-16.15ZM75.45-33.85L62.8 0 58.15 0 45.5-33.85 51.85-33.85 56.05-21.75Q57.65-17.05 58.8-13.48 59.95-9.9 60.55-8L60.55-8Q61.1-9.9 62.22-13.38 63.35-16.85 65.05-21.65L65.05-21.65 69.4-33.85 75.45-33.85ZM92.04-34.3Q95.79-34.3 98.44-33.1 101.09-31.9 102.82-29.7 104.54-27.5 105.34-24.33 106.14-21.15 106.14-17.2L106.14-17.2Q106.14-13.3 105.27-10.08 104.39-6.85 102.57-4.55 100.74-2.25 97.97-0.98 95.19 0.3 91.39 0.3L91.39 0.3Q87.64 0.3 84.97-0.83 82.29-1.95 80.57-4.13 78.84-6.3 78.04-9.4 77.24-12.5 77.24-16.5L77.24-16.5Q77.24-20.4 78.12-23.68 78.99-26.95 80.82-29.33 82.64-31.7 85.44-33 88.24-34.3 92.04-34.3L92.04-34.3ZM91.34-29.7Q89.14-29.7 87.69-28.73 86.24-27.75 85.34-26.05 84.44-24.35 84.07-22.05 83.69-19.75 83.69-17.05L83.69-17.05Q83.69-14.5 84.04-12.2 84.39-9.9 85.32-8.15 86.24-6.4 87.87-5.35 89.49-4.3 92.09-4.3L92.09-4.3Q94.24-4.3 95.72-5.25 97.19-6.2 98.09-7.85 98.99-9.5 99.37-11.78 99.74-14.05 99.74-16.7L99.74-16.7Q99.74-19.25 99.39-21.6 99.04-23.95 98.12-25.75 97.19-27.55 95.57-28.63 93.94-29.7 91.34-29.7L91.34-29.7ZM111.89 0L111.89-33.85 117.84-33.85 117.84 0 111.89 0ZM146.49-30.7L143.44-27.05Q142.24-28.35 140.91-29.03 139.59-29.7 137.84-29.7L137.84-29.7Q135.69-29.7 134.21-28.73 132.74-27.75 131.84-26.03 130.94-24.3 130.54-22 130.14-19.7 130.14-17.05L130.14-17.05Q130.14-14.4 130.51-12.1 130.89-9.8 131.81-8.05 132.74-6.3 134.31-5.3 135.89-4.3 138.29-4.3L138.29-4.3Q139.44-4.3 140.49-4.5 141.54-4.7 142.41-4.93 143.29-5.15 143.86-5.35 144.44-5.55 144.59-5.6L144.59-5.6 145.99-1.4 145.34-1.15Q144.69-0.9 143.51-0.58 142.34-0.25 140.71 0.03 139.09 0.3 137.14 0.3L137.14 0.3Q130.44 0.3 127.06-3.98 123.69-8.25 123.69-16.5L123.69-16.5Q123.69-20.45 124.59-23.73 125.49-27 127.31-29.35 129.14-31.7 131.91-33 134.69-34.3 138.44-34.3L138.44-34.3Q141.44-34.3 143.36-33.2 145.29-32.1 146.49-30.7L146.49-30.7ZM150.99 0L150.99-33.85 171.09-33.85 171.09-29.35 156.94-29.35 156.94-19.9 168.59-19.9 167.84-15.35 156.94-15.35 156.94-4.5 171.84-4.5 171.84 0 150.99 0Z" fill="#ffffff" data-fill-palette-color="primary"></path></g></svg></g></svg></g></svg></g></svg></g><g><svg viewBox="0 0 106.30204386491441 113.35126727000298" height="113.35126727000298" width="106.30204386491441"><g><svg xmlns="http://www.w3.org/2000/svg" xmlns:xlink="http://www.w3.org/1999/xlink" version="1.1" x="0" y="0" viewBox="15.301000000000002 13 69.398 74" enable-background="new 0 0 100 100" xml:space="preserve" height="113.35126727000298" width="106.30204386491441" class="icon-icon-0" data-fill-palette-color="accent" id="icon-0"><path d="M79.043 31.615l-5.742 5.742V13h-58v74h58V48.67l11.398-11.399L79.043 31.615zM71.301 39.357L50.758 59.898l-1.414 4.242-1.414 4.244 8.486-2.828L71.301 50.67V85h-54V15h54V39.357zM54.564 65.119l-3.182 1.06-1.248-1.248 1.061-3.182 3.1 3.099L54.564 65.119z" fill="#ffffff" data-fill-palette-color="accent"></path></svg></g></svg></g></svg></g><defs></defs></svg><rect width="395.52" height="86.020700773358" fill="none" stroke="none" visibility="hidden"></rect></g></svg></g></svg>