<svg xmlns="http://www.w3.org/2000/svg" version="1.1" xmlns:xlink="http://www.w3.org/1999/xlink" xmlns:svgjs="http://svgjs.dev/svgjs" width="1000" height="750" viewBox="0 0 1000 750"><rect width="1000" height="750" fill="#6936f5"></rect><g transform="matrix(0.834,0,0,0.834,82.49454545454546,226.96223013495074)"><svg viewBox="0 0 396 141" data-background-color="#6936f5" preserveAspectRatio="xMidYMid meet" height="356" width="1000" xmlns="http://www.w3.org/2000/svg" xmlns:xlink="http://www.w3.org/1999/xlink"><g id="tight-bounds" transform="matrix(1,0,0,1,0.2400000000000091,-0.19671829624408588)"><svg viewBox="0 0 395.52 141.3934365924882" height="141.3934365924882" width="395.52"><g><svg viewBox="0 0 553.8132061352476 197.9812713535769" height="141.3934365924882" width="395.52"><g transform="matrix(1,0,0,1,158.2932061352476,61.17908652599072)"><svg viewBox="0 0 395.5199999999999 75.62309830159545" height="75.62309830159545" width="395.5199999999999"><g id="textblocktransform"><svg viewBox="0 0 395.5199999999999 75.62309830159545" height="75.62309830159545" width="395.5199999999999" id="textblock"><g><svg viewBox="0 0 395.5199999999999 75.62309830159545" height="75.62309830159545" width="395.5199999999999"><g transform="matrix(1,0,0,1,0,0)"><svg width="395.5199999999999" viewBox="2.45 -36.9 194.29000000000002 37.15" height="75.62309830159545" data-palette-color="#ffffff"><path d="M8.4 0L2.45 0 6.7-36.9 12.7-36.9 21.65-7.35 30.55-36.9 36.55-36.9 40.9 0 34.9 0 31.5-29 32.5-28.9 24.5 0 18.7 0 10.6-28.9 11.65-28.95 8.4 0ZM50.8 0L44.45 0 56.45-36.9 64.25-36.9 76.25 0 69.8 0 66.95-8.75 53.6-8.75 50.8 0ZM60.25-31.6L55.05-14.3 65.45-14.3 60.25-31.6ZM86.95 0L80.8 0 80.8-36.9 95.8-36.9Q97.85-36.9 99.67-36.43 101.5-35.95 102.92-34.7 104.35-33.45 105.17-31.23 106-29 106-25.45L106-25.45Q106-22.7 105.45-20.88 104.9-19.05 104-17.9 103.1-16.75 101.97-16.13 100.85-15.5 99.75-15.1L99.75-15.1 106.85 0 100.6 0 94.2-14.2Q93.5-14.2 92.57-14.2 91.65-14.2 90.65-14.23 89.65-14.25 88.7-14.28 87.75-14.3 86.95-14.3L86.95-14.3 86.95 0ZM86.95-31.35L86.95-19.15 94.75-19.15Q95.85-19.15 96.75-19.43 97.65-19.7 98.35-20.4 99.05-21.1 99.42-22.3 99.8-23.5 99.8-25.4L99.8-25.4Q99.8-27.25 99.42-28.43 99.05-29.6 98.35-30.23 97.65-30.85 96.72-31.1 95.8-31.35 94.75-31.35L94.75-31.35 86.95-31.35ZM117.94 0L111.79 0 111.79-36.9 117.94-36.9 117.94-21.15 123.39-21.15 131.89-36.9 138.49-36.9 128.34-18.4 138.74 0 132.14 0 123.39-15.55 117.94-15.55 117.94 0ZM150.89 0.25L150.89 0.25Q149.69 0.25 148.22 0.03 146.74-0.2 145.39-0.98 144.04-1.75 143.19-3.3 142.34-4.85 142.34-7.55L142.34-7.55 142.34-28.85Q142.34-31.2 143.04-32.77 143.74-34.35 144.92-35.25 146.09-36.15 147.52-36.52 148.94-36.9 150.34-36.9L150.34-36.9Q153.84-36.9 156.64-36.8 159.44-36.7 161.77-36.6 164.09-36.5 166.09-36.35L166.09-36.35 166.09-31.2 152.14-31.2Q150.44-31.2 149.47-30.35 148.49-29.5 148.49-27.7L148.49-27.7 148.49-21.15 163.84-20.8 163.84-15.95 148.49-15.6 148.49-9.25Q148.49-7.75 149.02-6.95 149.54-6.15 150.37-5.85 151.19-5.55 152.09-5.55L152.09-5.55 166.09-5.55 166.09-0.4Q163.89-0.2 161.29-0.08 158.69 0.05 156.02 0.13 153.34 0.2 150.89 0.25ZM186.19 0L179.99 0 179.99-31.35 169.39-31.35 169.39-36.9 196.74-36.9 196.74-31.35 186.19-31.35 186.19 0Z" opacity="1" transform="matrix(1,0,0,1,0,0)" fill="#ffffff" class="undefined-text-0" data-fill-palette-color="primary" id="text-0"></path></svg></g></svg></g></svg></g></svg></g><g><svg viewBox="0 0 140.44040758060015 197.9812713535769" height="197.9812713535769" width="140.44040758060015"><g><svg xmlns="http://www.w3.org/2000/svg" xmlns:xlink="http://www.w3.org/1999/xlink" version="1.1" x="0" y="0" viewBox="19.47 4.7059999999999995 60.593 85.419" enable-background="new 0 0 100 100" xml:space="preserve" height="197.9812713535769" width="140.44040758060015" class="icon-icon-0" data-fill-palette-color="accent" id="icon-0"><polygon points="68.45,68.714 64.25,90.125 40.125,90.125 34.429,68.714 " fill="#ffffff" data-fill-palette-color="accent"></polygon><path d="M45.532 48.833c-0.75-0.333-13.938-3.875-16.5-7s-9.562-4.375-9.562-4.375c12-0.125 17.25 1.562 17.25 1.562 7.938 0.938 10.031 9.938 10.031 9.938l0 0 3.75 3.125-0.042-2.5c0 0-1.042-3.542-1-3.833s-0.125-5.083-0.125-5.083-1.708-4.333-3.958-6.917-4.083-6.168 0.958-16.71c0 0 1.75-2.5 2.083-5.292s4.166-7.042 4.166-7.042S64.416 18.666 51.333 37c0 0-1.177 1.938-1.177 3.719S50.648 48.248 51.25 49l1.594-2.125c0 0 2.031-9 9.969-9.938 0 0 5.25-1.688 17.25-1.562 0 0-7 1.25-9.562 4.375s-15.75 6.667-16.5 7-2.438 3.917-2.438 3.917 0.375 8.751 1 10.167l18.425-0.022-0.737 5.771-1.62 0.035-34.255 0.007h-1.25l-0.583-5.791h19l-0.875-6.667c0 0-0.12-0.965-1.625-2.125l-2.5-2.125L45.532 48.833z" fill="#ffffff" data-fill-palette-color="accent"></path></svg></g></svg></g></svg></g><defs></defs></svg><rect width="395.52" height="141.3934365924882" fill="none" stroke="none" visibility="hidden"></rect></g></svg></g></svg>