<?xml version="1.0" standalone="no"?>
<!DOCTYPE svg PUBLIC "-//W3C//DTD SVG 20010904//EN"
 "http://www.w3.org/TR/2001/REC-SVG-20010904/DTD/svg10.dtd">
<svg version="1.0" xmlns="http://www.w3.org/2000/svg"
 width="1000.000000pt" height="750.000000pt" viewBox="0 0 1000.000000 750.000000"
 preserveAspectRatio="xMidYMid meet">

<g transform="translate(0.000000,750.000000) scale(0.100000,-0.100000)"
fill="#000000" stroke="none">
<path d="M0 3750 l0 -3750 5000 0 5000 0 0 3750 0 3750 -5000 0 -5000 0 0
-3750z m2010 1453 c37 -47 98 -184 121 -273 27 -100 31 -287 10 -385 -28 -128
-88 -265 -181 -415 -58 -92 -64 -123 -51 -256 13 -127 21 -174 30 -174 11 0
49 64 73 125 48 118 121 206 208 250 91 45 310 80 565 90 l150 5 -95 -33
c-124 -43 -163 -64 -233 -126 -86 -75 -177 -117 -437 -201 l-145 -46 -38 -66
-38 -65 11 -134 c6 -74 13 -153 16 -176 l6 -43 325 0 325 0 -5 -22 c-3 -13 -9
-56 -13 -96 -6 -66 -9 -75 -31 -83 -30 -11 -1270 -12 -1277 -1 -2 4 -8 51 -12
105 l-7 97 330 0 329 0 -17 127 -17 128 -86 78 -86 79 -175 59 c-225 75 -327
123 -398 187 -67 61 -113 86 -227 123 l-85 28 130 0 c193 0 447 -34 541 -74
98 -41 196 -152 240 -271 15 -40 33 -63 82 -104 l62 -52 0 39 c0 21 -9 71 -20
112 -13 47 -20 107 -20 160 0 79 -3 91 -40 166 -22 44 -65 113 -95 154 -75
100 -92 160 -77 263 14 98 51 207 113 330 27 53 56 128 64 167 12 52 30 91 68
148 83 122 75 116 107 76z m1518 -900 c5 -10 67 -210 138 -445 71 -235 132
-424 135 -420 4 4 62 189 128 412 67 223 127 420 132 438 l11 32 88 0 c49 0
91 -4 94 -8 4 -6 136 -1101 136 -1126 0 -3 -43 -6 -95 -6 -71 0 -95 3 -95 13
0 18 -78 693 -86 742 -6 36 -14 12 -80 -225 -40 -146 -90 -325 -110 -398 l-37
-133 -90 3 -91 3 -110 395 c-71 252 -112 384 -114 365 -2 -16 -22 -194 -45
-395 l-42 -365 -92 -3 c-51 -1 -93 1 -93 5 0 11 118 1037 125 1091 l6 42 89 0
c75 0 91 -3 98 -17z m1576 9 c6 -10 366 -1116 366 -1125 0 -4 -45 -7 -100 -7
l-99 0 -43 135 -42 135 -205 -2 -205 -3 -41 -130 -41 -130 -97 -3 c-67 -2 -97
1 -97 8 0 7 82 263 182 571 l182 559 117 0 c65 0 120 -4 123 -8z m1112 -20
c111 -50 155 -131 162 -298 7 -177 -35 -277 -136 -325 l-49 -24 108 -230 109
-230 -92 -3 c-65 -2 -95 1 -103 10 -6 7 -53 106 -105 221 l-93 207 -109 0
-108 0 0 -220 0 -220 -95 0 -95 0 0 571 0 571 278 -4 c263 -3 280 -5 328 -26z
m534 -217 l0 -246 81 3 82 3 131 243 130 242 98 0 c61 0 98 -4 98 -10 0 -6
-68 -135 -152 -287 -116 -212 -149 -280 -141 -292 31 -50 293 -519 299 -534 6
-15 -3 -17 -94 -17 l-100 0 -134 238 -133 237 -83 3 -82 3 0 -241 0 -240 -95
0 -95 0 0 570 0 570 95 0 95 0 0 -245z m1383 229 l87 -6 0 -79 0 -78 -240 -3
-240 -3 -27 -28 c-27 -27 -28 -29 -28 -150 l0 -122 230 -6 c127 -3 231 -7 233
-8 1 0 2 -35 2 -76 l0 -75 -77 0 c-43 0 -149 -3 -235 -7 l-158 -6 0 -96 c0
-53 5 -113 10 -133 19 -66 26 -68 292 -68 l238 0 0 -83 0 -84 -112 -6 c-173
-10 -429 -8 -471 4 -21 6 -56 26 -78 46 -68 61 -71 83 -67 530 l3 388 25 45
c30 54 90 97 150 109 44 10 286 6 463 -5z m1027 -74 l0 -90 -160 0 -160 0 0
-480 0 -481 -97 3 -98 3 -3 478 -2 477 -160 0 -160 0 0 90 0 90 420 0 420 0 0
-90z m-6627 -1228 c3 -4 -27 -173 -66 -375 l-72 -367 -424 2 -424 3 -98 365
c-53 201 -95 368 -92 373 6 9 1170 9 1176 -1z"/>
<path d="M4902 3882 c-40 -136 -73 -250 -72 -254 0 -5 68 -8 150 -8 113 0 150
3 150 13 0 19 -144 497 -150 497 -3 0 -38 -111 -78 -248z"/>
<path d="M5800 3954 l0 -186 148 3 c164 4 187 12 219 72 25 45 25 189 0 234
-29 55 -58 63 -222 63 l-145 0 0 -186z"/>
</g>
</svg>
