<?xml version="1.0" standalone="no"?>
<!DOCTYPE svg PUBLIC "-//W3C//DTD SVG 20010904//EN"
 "http://www.w3.org/TR/2001/REC-SVG-20010904/DTD/svg10.dtd">
<svg version="1.0" xmlns="http://www.w3.org/2000/svg"
 width="1000.000000pt" height="750.000000pt" viewBox="0 0 1000.000000 750.000000"
 preserveAspectRatio="xMidYMid meet">
<metadata>
Created by potrace 1.16, written by Peter Selinger 2001-2019
</metadata>
<g transform="translate(0.000000,750.000000) scale(0.100000,-0.100000)"
fill="#000000" stroke="none">
<path d="M4347 6652 c-10 -10 -17 -27 -17 -38 0 -11 98 -117 250 -269 l251
-251 -33 -56 -33 -57 -676 -3 c-649 -3 -678 -4 -698 -22 l-21 -19 0 -1143 0
-1142 26 -31 26 -31 1583 0 1584 0 15 22 c14 20 16 148 16 1178 0 710 -4 1161
-10 1170 -8 13 -98 15 -693 18 l-683 2 -12 34 c-7 18 -21 41 -32 51 -21 19
-18 22 230 270 262 262 274 280 234 319 -35 36 -53 22 -316 -241 l-258 -258
-79 -1 -78 -2 -259 259 c-174 174 -266 259 -280 259 -11 0 -28 -8 -37 -18z
m1865 -955 c49 -25 103 -79 131 -130 l22 -42 3 -749 2 -748 -23 -52 c-34 -73
-70 -111 -135 -143 l-57 -28 -1180 0 -1180 0 -48 24 c-26 13 -67 46 -92 73
-79 87 -76 57 -73 884 l3 729 27 50 c33 62 80 108 138 134 45 21 56 21 1235
18 1131 -2 1192 -3 1227 -20z"/>
<path d="M3925 5486 c-17 -7 -43 -28 -58 -45 l-27 -33 0 -259 c0 -205 3 -266
14 -287 19 -37 75 -89 109 -101 18 -7 156 -11 375 -11 l347 -1 90 -103 c67
-78 93 -102 103 -94 8 7 12 41 12 103 l0 92 41 6 c45 6 89 41 117 92 15 26 17
67 17 300 0 303 -2 312 -70 341 -49 20 -1024 20 -1070 0z m965 -166 c34 -18
44 -48 25 -76 l-15 -24 -438 0 c-327 0 -441 3 -450 12 -20 20 -14 65 10 82 19
14 78 16 436 16 263 0 420 -4 432 -10z m-239 -260 c27 -15 25 -64 -3 -84 -19
-14 -66 -16 -313 -16 -247 0 -294 2 -313 16 -27 19 -30 68 -4 83 23 14 607 15
633 1z"/>
<path d="M5555 5268 c-167 -22 -310 -166 -333 -338 -25 -180 63 -346 225 -423
63 -30 76 -32 173 -32 97 0 110 2 172 32 85 40 151 106 191 191 30 62 32 75
32 172 0 120 -12 159 -77 247 -85 116 -226 172 -383 151z"/>
<path d="M5221 4383 c-91 -91 -151 -213 -166 -336 l-7 -57 571 0 c537 0 571 1
571 18 -1 43 -32 161 -58 216 -34 71 -96 153 -146 191 l-35 27 -58 -36 c-161
-99 -392 -98 -556 4 -27 17 -51 30 -53 30 -3 0 -31 -26 -63 -57z"/>
<path d="M7609 3045 c-337 -64 -537 -340 -515 -710 6 -116 23 -185 65 -270 69
-139 169 -226 394 -345 153 -80 254 -147 277 -184 40 -65 17 -156 -45 -182
-68 -28 -190 -14 -448 53 -76 19 -141 33 -144 29 -5 -5 -40 -407 -42 -488 -1
-20 71 -45 224 -76 218 -46 494 -53 630 -17 209 54 353 191 422 400 24 73 27
94 27 245 1 183 -6 217 -70 340 -73 140 -159 211 -422 349 -189 100 -227 125
-246 165 -20 43 -7 103 31 133 57 46 170 43 430 -10 l163 -33 5 30 c11 63 66
519 63 521 -5 4 -194 34 -288 45 -153 19 -427 21 -511 5z"/>
<path d="M1530 1940 l0 -1080 260 0 260 0 0 505 c0 474 1 505 18 505 13 0 69
-118 242 -505 l224 -505 283 0 283 0 0 1080 0 1080 -265 0 -265 0 0 -516 c0
-469 -1 -515 -16 -512 -11 2 -84 166 -228 516 l-211 512 -292 0 -293 0 0
-1080z"/>
<path d="M3410 1940 l0 -1080 585 0 585 0 0 28 c0 15 7 110 15 212 8 102 15
200 15 218 l0 32 -305 0 -305 0 0 180 0 180 250 0 250 0 0 230 0 230 -250 0
-250 0 0 160 0 160 290 0 290 0 0 28 c0 15 7 122 15 237 8 116 15 222 15 238
l0 27 -600 0 -600 0 0 -1080z"/>
<path d="M4847 1948 c62 -590 113 -1076 113 -1080 0 -5 161 -8 359 -8 l359 0
4 28 c3 15 39 231 79 480 60 372 76 452 89 452 13 0 34 -91 110 -477 l95 -478
358 -3 c282 -2 357 0 357 10 0 7 43 486 95 1063 52 578 95 1058 95 1068 0 16
-18 17 -272 15 l-273 -3 -32 -565 c-17 -311 -32 -566 -32 -567 -1 -2 -9 -3
-18 -3 -16 0 -23 34 -56 273 -21 149 -56 406 -79 570 l-42 297 -291 -2 -290
-3 -72 -560 c-40 -308 -72 -563 -72 -567 -2 -17 -41 -7 -41 10 0 32 -81 1057
-86 1090 l-5 32 -282 0 -283 0 113 -1072z"/>
</g>
</svg>
