<svg xmlns="http://www.w3.org/2000/svg" version="1.1" xmlns:xlink="http://www.w3.org/1999/xlink" xmlns:svgjs="http://svgjs.dev/svgjs" width="1000" height="750" viewBox="0 0 1000 750"><rect width="1000" height="750" fill="#1b4571"></rect><g transform="matrix(0.834,0,0,0.834,83,114.375)"><svg viewBox="0 0 512 320" data-background-color="#1b4571" preserveAspectRatio="xMidYMid meet" height="625" width="1000" xmlns="http://www.w3.org/2000/svg" xmlns:xlink="http://www.w3.org/1999/xlink"><g id="tight-bounds" transform="matrix(1,0,0,1,0,0)"><svg viewBox="0 0 512 320" height="320" width="512"><g><svg></svg></g><g><svg viewBox="0 0 512 320" height="320" width="512"><g><path d="M96 160c0-88.366 71.634-160 160-160 88.366 0 160 71.634 160 160 0 88.366-71.634 160-160 160-88.366 0-160-71.634-160-160zM256 308.175c81.835 0 148.175-66.34 148.175-148.175 0-81.835-66.34-148.175-148.175-148.175-81.835 0-148.175 66.34-148.175 148.175 0 81.835 66.34 148.175 148.175 148.175z" fill="#ffffff" fill-rule="nonzero" stroke="none" stroke-width="1" stroke-linecap="butt" stroke-linejoin="miter" stroke-miterlimit="10" stroke-dasharray="" stroke-dashoffset="0" font-family="none" font-weight="none" font-size="none" text-anchor="none" style="mix-blend-mode: normal" data-fill-palette-color="tertiary"></path></g><g transform="matrix(1,0,0,1,128,114.69629400251084)"><svg viewBox="0 0 255.99999999999997 90.60741199497832" height="90.60741199497832" width="255.99999999999997"><g><svg viewBox="0 0 423.43616987223896 149.86896678589682" height="90.60741199497832" width="255.99999999999997"><g transform="matrix(1,0,0,1,0,20.712715380684735)"><svg viewBox="0 0 255.99999999999997 108.44353602452735" height="108.44353602452735" width="255.99999999999997"><g id="textblocktransform"><svg viewBox="0 0 255.99999999999997 108.44353602452735" height="108.44353602452735" width="255.99999999999997" id="textblock"><g><svg viewBox="0 0 255.99999999999997 108.44353602452735" height="108.44353602452735" width="255.99999999999997"><g transform="matrix(1,0,0,1,0,0)"><svg width="255.99999999999997" viewBox="3.75 -40.95 97.84 41.45" height="108.44353602452735" data-palette-color="#ffffff"><g class="undefined-text-0" data-fill-palette-color="primary" id="text-0"><path d="M6.15 0L3.75 0 3.75-40.5 5.9-40.5 19.65-6.3 19.65-40.5 22.05-40.5 22.05 0 19.9 0 6.15-34.25 6.15 0ZM43.6 0L29.45 0 29.45-40.5 43.45-40.5 43.45-38.3 32.2-38.3 32.2-22.05 41.45-22.05 41.45-19.95 32.2-19.95 32.2-2.15 43.6-2.15 43.6 0ZM56.5 0L54.15 0 47.1-40.5 49.5-40.5 55.45-5.35 61.95-39.6 64.55-39.6 71.25-5.35 76.65-40.5 79-40.5 72.45 0 70.15 0 63.25-35.45 56.5 0ZM92.54 0.5L92.54 0.5Q89.34 0.5 87.27-0.8 85.19-2.1 84.12-4.45 83.04-6.8 82.79-10L82.79-10 85.14-10.75Q85.49-8.1 86.22-6.05 86.94-4 88.44-2.88 89.94-1.75 92.59-1.75L92.59-1.75Q95.59-1.75 97.32-3.25 99.04-4.75 99.04-8.25L99.04-8.25Q99.04-10.9 97.67-13.03 96.29-15.15 93.79-17.6L93.79-17.6 86.39-24.95Q84.54-26.85 83.69-28.75 82.84-30.65 82.84-32.65L82.84-32.65Q82.84-36.65 85.32-38.8 87.79-40.95 91.74-40.95L91.74-40.95Q93.79-40.95 95.44-40.43 97.09-39.9 98.32-38.73 99.54-37.55 100.24-35.6 100.94-33.65 101.14-30.8L101.14-30.8 98.84-30.25Q98.64-33.1 97.89-35 97.14-36.9 95.69-37.83 94.24-38.75 91.79-38.75L91.79-38.75Q89.04-38.75 87.19-37.35 85.34-35.95 85.34-32.85L85.34-32.85Q85.34-31.3 85.97-29.85 86.59-28.4 88.29-26.7L88.29-26.7 95.59-19.5Q98.04-17.1 99.82-14.38 101.59-11.65 101.59-8.4L101.59-8.4Q101.59-5.35 100.44-3.38 99.29-1.4 97.24-0.45 95.19 0.5 92.54 0.5Z" fill="#ffffff" data-fill-palette-color="primary"></path></g></svg></g></svg></g></svg></g></svg></g><g transform="matrix(1,0,0,1,281.6009162105263,0)"><svg viewBox="0 0 141.83525366171267 149.86896678589682" height="149.86896678589682" width="141.83525366171267"><g><svg xmlns="http://www.w3.org/2000/svg" xmlns:xlink="http://www.w3.org/1999/xlink" version="1.1" x="0" y="0" viewBox="14.751999999999999 11.692 73.18 77.32499999999999" enable-background="new 0 0 100 100" xml:space="preserve" height="149.86896678589682" width="141.83525366171267" class="icon-icon-0" data-fill-palette-color="accent" id="icon-0"><path fill="#bf2051" d="M61.64 58.881c-7.924 9.351-16.084 9.953-16.044 10.52-2.867-21.792 10.982-37.815 10.982-37.815-2.932 2.908-5.308 5.971-7.229 9.104 0.133-0.221 0.224-0.371 0.224-0.371-3.369-2.856-5.174-11.592-5.174-11.592 0.793 10.315 3.651 14.212 3.651 14.212 0.256-0.487 0.697-1.241 1.041-1.817-2.927 4.887-4.749 9.935-5.813 14.842 0.046-0.237 0.075-0.386 0.075-0.386-1.904-5.694-8.476-10.188-8.476-10.188 5.237 5.395 7.674 14.616 7.674 14.616 0.026-0.203 0.082-0.541 0.15-0.936-2.529 16.138 2.583 29.947 2.583 29.947h7.432c-3.517-5.776-5.59-11.39-6.639-16.701 0.099 0.438 0.17 0.688 0.17 0.688C54.498 69.195 61.64 58.881 61.64 58.881z" data-fill-palette-color="accent"></path><path fill="#bf2051" d="M51.316 59.684c0 0-3.159-22.583 36.616-22.119 0 0-4.555 34.476-28.624 31.875 0 0 8.829-7.395 8.829-15.872C68.138 53.568 61.35 50.951 51.316 59.684z" data-fill-palette-color="accent"></path><path fill="#bf2051" d="M34.543 51.682c0 0-18.061 3.744-19.791-28.382 0 0 28.069 1.85 27.243 21.414 0 0-6.435-6.733-13.277-6.285C28.719 38.429 26.965 44.047 34.543 51.682z" data-fill-palette-color="accent"></path><path fill="#bf2051" d="M51.258 31.022c0 0-3.108-13.878 21.645-15.606 0 0-1.084 21.666-16.18 21.27 0 0 5.112-5.046 4.684-10.315C61.406 26.37 57.053 25.086 51.258 31.022z" data-fill-palette-color="accent"></path><path fill="#bf2051" d="M41.5 31.083c0 0-9.766-3.453-1.254-19.391 0 0 12.947 9.051 6.862 18.211 0 0-1.134-5.105-4.552-6.881C42.556 23.022 40.08 25.212 41.5 31.083z" data-fill-palette-color="accent"></path></svg></g></svg></g></svg></g></svg></g></svg></g><defs></defs></svg><rect width="512" height="320" fill="none" stroke="none" visibility="hidden"></rect></g></svg></g></svg>