<?xml version="1.0" standalone="no"?>
<!DOCTYPE svg PUBLIC "-//W3C//DTD SVG 20010904//EN"
 "http://www.w3.org/TR/2001/REC-SVG-20010904/DTD/svg10.dtd">
<svg version="1.0" xmlns="http://www.w3.org/2000/svg"
 width="1000.000000pt" height="750.000000pt" viewBox="0 0 1000.000000 750.000000"
 preserveAspectRatio="xMidYMid meet">

<g transform="translate(0.000000,750.000000) scale(0.100000,-0.100000)"
fill="#000000" stroke="none">
<path d="M0 3750 l0 -3750 5000 0 5000 0 0 3750 0 3750 -5000 0 -5000 0 0
-3750z m5195 2600 c519 -42 1002 -229 1414 -548 107 -83 347 -320 431 -427
330 -417 523 -919 562 -1462 44 -625 -164 -1288 -560 -1783 -406 -506 -959
-834 -1601 -949 -636 -115 -1335 32 -1876 394 -179 119 -249 177 -410 339
-222 223 -360 415 -495 691 -274 557 -340 1187 -186 1790 87 342 265 701 486
980 81 103 312 334 415 415 512 406 1180 612 1820 560z"/>
<path d="M4785 6154 c-486 -50 -937 -234 -1304 -532 -465 -378 -765 -902 -868
-1517 -26 -157 -26 -553 0 -710 74 -442 246 -833 513 -1162 379 -467 905 -768
1519 -870 156 -25 554 -25 710 0 265 44 489 116 715 228 710 353 1184 1002
1317 1804 14 85 18 165 18 355 0 323 -25 483 -122 775 -165 496 -506 937 -958
1240 -197 132 -523 274 -755 330 -178 42 -305 57 -525 60 -121 2 -238 1 -260
-1z m501 -1885 c38 -12 87 -58 108 -104 24 -51 33 -135 15 -146 -33 -21 -44
-10 -56 53 -21 107 -68 151 -165 151 -108 0 -168 -51 -168 -141 0 -74 24 -110
183 -272 84 -85 167 -178 185 -206 60 -96 65 -214 11 -300 -31 -51 -111 -86
-198 -86 -126 0 -194 51 -232 173 -26 82 -25 95 10 107 33 12 41 7 41 -21 0
-45 35 -128 67 -159 30 -29 41 -33 102 -36 125 -7 175 38 175 158 0 94 -24
131 -204 315 -88 90 -168 180 -181 205 -31 61 -33 158 -3 215 49 94 179 134
310 94z m-2141 -426 l170 -426 3 426 2 427 35 0 35 0 0 -521 0 -520 -32 3 -31
3 -173 430 -173 430 -1 -432 0 -433 -35 0 -35 0 0 520 0 520 33 0 32 0 170
-427z m793 400 l-3 -28 -142 -3 -143 -3 0 -204 0 -205 120 0 120 0 0 -30 0
-30 -120 0 -120 0 0 -225 0 -225 145 0 145 0 0 -30 0 -30 -180 0 -180 0 0 520
0 520 181 0 180 0 -3 -27z m233 -413 c48 -289 76 -433 81 -418 8 24 158 814
158 830 0 5 17 8 37 6 l37 -3 81 -415 c45 -228 84 -421 86 -429 3 -7 33 173
68 400 35 228 66 426 68 442 5 22 11 27 34 27 20 0 29 -5 29 -16 0 -9 -36
-238 -80 -510 -44 -272 -80 -499 -80 -504 0 -6 -15 -10 -33 -10 l-33 0 -84
433 c-46 237 -86 437 -89 444 -3 6 -44 -188 -90 -433 l-85 -444 -33 0 c-18 0
-33 2 -33 6 0 7 -169 984 -175 1012 -5 19 -1 22 28 22 l33 0 75 -440z"/>
</g>
</svg>
