<svg xmlns="http://www.w3.org/2000/svg" version="1.1" xmlns:xlink="http://www.w3.org/1999/xlink" xmlns:svgjs="http://svgjs.dev/svgjs" width="1000" height="750" viewBox="0 0 1000 750"><rect width="1000" height="750" fill="#00784a"></rect><g transform="matrix(0.834,0,0,0.834,82.49454545454546,115.4193570850203)"><svg viewBox="0 0 396 247" data-background-color="#00784a" preserveAspectRatio="xMidYMid meet" height="623" width="1000" xmlns="http://www.w3.org/2000/svg" xmlns:xlink="http://www.w3.org/1999/xlink"><g id="tight-bounds" transform="matrix(1,0,0,1,0.2400000000000091,-0.09999999999999432)"><svg viewBox="0 0 395.52 247.2" height="247.2" width="395.52"><g><svg></svg></g><g><svg viewBox="0 0 395.52 247.2" height="247.2" width="395.52"><g transform="matrix(1,0,0,1,39.55199999999999,111.82479482535575)"><svg viewBox="0 0 316.416 23.550410349288484" height="23.550410349288484" width="316.416"><g><svg viewBox="0 0 316.416 23.550410349288484" height="23.550410349288484" width="316.416"><g><svg viewBox="0 0 316.416 23.550410349288484" height="23.550410349288484" width="316.416"><g><svg viewBox="0 0 316.416 23.550410349288484" height="23.550410349288484" width="316.416"><g id="textblocktransform"><svg viewBox="0 0 316.416 23.550410349288484" height="23.550410349288484" width="316.416" id="textblock"><g><svg viewBox="0 0 316.416 23.550410349288484" height="23.550410349288484" width="316.416"><g transform="matrix(1,0,0,1,0,0)"><svg width="316.416" viewBox="4.349999904632568 -42.29999923706055 579.7000122070312 43.14999771118164" height="23.550410349288484" data-palette-color="#fffafe"><path d="M19.15-37.9Q33.1-37.9 33.1-25.6L33.1-25.6Q33.1-19.6 29.6-16.48 26.1-13.35 19.15-13.35L19.15-13.35 12.3-13.35 12.3 0 4.35 0 4.35-37.9 19.15-37.9ZM25.05-25.6Q25.05-28.5 23.6-29.83 22.15-31.15 19.15-31.15L19.15-31.15 12.3-31.15 12.3-20.15 19.15-20.15Q22.1-20.15 23.55-21.48 25-22.8 25.05-25.6L25.05-25.6ZM46.45 0.65Q38.1 0.65 38.1-6.65L38.1-6.65 38.1-42.3 45.8-42.3 45.8-9.35Q45.8-7.55 46.37-6.88 46.95-6.2 48.45-6.2L48.45-6.2Q50-6.2 51.3-6.6L51.3-6.6 51.3 0.05Q48.4 0.65 46.45 0.65L46.45 0.65ZM66.7-28.15Q71.95-28.15 74.65-26.68 77.34-25.2 78.25-22.75 79.15-20.3 79.15-16.5L79.15-16.5 79.15 0 71.45 0 71.45-2.4Q69.65-0.75 67.92-0.05 66.2 0.65 64.09 0.65L64.09 0.65Q59.5 0.65 56.8-1.88 54.09-4.4 54.09-8.85L54.09-8.85Q54.09-13.4 56.87-15.85 59.65-18.3 64.55-18.3L64.55-18.3Q68.5-18.3 71.45-16.8L71.45-16.8Q71.4-18.45 71-19.43 70.59-20.4 69.42-20.93 68.25-21.45 65.95-21.45L65.95-21.45 60.75-21.45 60.75-28.15 66.7-28.15ZM65.65-5.4Q68.45-5.4 71.45-7.9L71.45-7.9 71.45-11.45Q68.84-12.7 66.3-12.7L66.3-12.7Q64.3-12.7 63.09-11.8 61.9-10.9 61.9-8.95L61.9-8.95Q61.9-5.4 65.65-5.4L65.65-5.4ZM101.89-28.75Q107.39-28.75 110.12-25.93 112.84-23.1 112.84-16.9L112.84-16.9 112.84 0 105.14 0 105.14-16.9Q105.14-19.4 104.04-20.63 102.94-21.85 100.24-21.85L100.24-21.85Q97.04-21.85 93.84-19.2L93.84-19.2 93.84 0 86.14 0 86.14-28.15 93.84-28.15 93.84-25.7Q97.54-28.75 101.89-28.75L101.89-28.75ZM135.84-20.45L129.44-20.45 129.44-9.35Q129.44-7.6 130.02-6.9 130.59-6.2 132.09-6.2L132.09-6.2Q133.69-6.2 135.14-6.6L135.14-6.6 135.14 0Q132.24 0.65 130.09 0.65L130.09 0.65Q125.79 0.65 123.77-1.2 121.74-3.05 121.74-6.7L121.74-6.7 121.74-20.45 117.94-20.45 117.94-27.3 121.74-27.3 121.74-36.8 129.44-36.8 129.44-27.3 135.84-27.3 135.84-20.45ZM165.99-37.9Q176.09-37.9 181.26-33.08 186.44-28.25 186.44-18.9L186.44-18.9Q186.44-9.5 181.29-4.75 176.14 0 165.99 0L165.99 0 152.84 0 152.84-37.9 165.99-37.9ZM178.34-19.05Q178.34-25.3 175.29-28.23 172.24-31.15 165.99-31.15L165.99-31.15 160.79-31.15 160.79-6.75 165.99-6.75Q172.34-6.75 175.34-9.68 178.34-12.6 178.34-19.05L178.34-19.05ZM192.23-32.8L192.23-40.35 199.93-40.35 199.93-32.8 192.23-32.8ZM192.23 0L192.23-28.15 199.93-28.15 199.93 0 192.23 0ZM217.58 0.85Q214.13 0.85 211.5 0.3 208.88-0.25 206.03-1.6L206.03-1.6 206.03-8.5Q208.78-6.95 211.61-6.28 214.43-5.6 217.58-5.6L217.58-5.6Q221.33-5.6 221.33-8.1L221.33-8.1Q221.33-9.1 220.73-9.65 220.13-10.2 218.83-10.5L218.83-10.5 214.38-11.45Q210.33-12.3 208.38-14.3 206.43-16.3 206.43-19.85L206.43-19.85Q206.43-28.95 217.83-28.95L217.83-28.95Q222.53-28.95 227.83-27.15L227.83-27.15 227.83-20.5Q225.88-21.4 223.31-21.95 220.73-22.5 218.18-22.5L218.18-22.5Q215.98-22.5 215.11-21.95 214.23-21.4 214.23-20.35L214.23-20.35Q214.23-19.45 214.78-19.03 215.33-18.6 216.53-18.3L216.53-18.3 220.98-17.35Q225.23-16.5 227.18-14.5 229.13-12.5 229.13-8.5L229.13-8.5Q229.13-3.85 226-1.5 222.88 0.85 217.58 0.85L217.58 0.85ZM241.48-11.95Q242.38-5.6 249.38-5.6L249.38-5.6Q251.28-5.6 253.1-6.1 254.93-6.6 257.23-7.7L257.23-7.7 259.28-1.7Q256.73-0.3 254.2 0.28 251.68 0.85 248.38 0.85L248.38 0.85Q243.58 0.85 240.18-1.03 236.78-2.9 235.03-6.28 233.28-9.65 233.28-14.1L233.28-14.1Q233.28-18.8 235.08-22.15 236.88-25.5 239.98-27.23 243.08-28.95 246.88-28.95L246.88-28.95Q252.93-28.95 256.35-25.4 259.78-21.85 259.78-15L259.78-15 259.78-11.95 241.48-11.95ZM246.88-22.5Q244.78-22.5 243.45-21.4 242.13-20.3 241.63-17.8L241.63-17.8 251.73-17.8Q251.48-20.25 250.28-21.38 249.08-22.5 246.88-22.5L246.88-22.5ZM275.63-28.15Q280.88-28.15 283.58-26.68 286.28-25.2 287.18-22.75 288.08-20.3 288.08-16.5L288.08-16.5 288.08 0 280.38 0 280.38-2.4Q278.58-0.75 276.85-0.05 275.13 0.65 273.03 0.65L273.03 0.65Q268.43 0.65 265.73-1.88 263.03-4.4 263.03-8.85L263.03-8.85Q263.03-13.4 265.8-15.85 268.58-18.3 273.48-18.3L273.48-18.3Q277.43-18.3 280.38-16.8L280.38-16.8Q280.33-18.45 279.93-19.43 279.53-20.4 278.35-20.93 277.18-21.45 274.88-21.45L274.88-21.45 269.68-21.45 269.68-28.15 275.63-28.15ZM274.58-5.4Q277.38-5.4 280.38-7.9L280.38-7.9 280.38-11.45Q277.78-12.7 275.23-12.7L275.23-12.7Q273.23-12.7 272.03-11.8 270.83-10.9 270.83-8.95L270.83-8.95Q270.83-5.4 274.58-5.4L274.58-5.4ZM305.22 0.85Q301.77 0.85 299.15 0.3 296.52-0.25 293.67-1.6L293.67-1.6 293.67-8.5Q296.42-6.95 299.25-6.28 302.07-5.6 305.22-5.6L305.22-5.6Q308.97-5.6 308.97-8.1L308.97-8.1Q308.97-9.1 308.37-9.65 307.77-10.2 306.47-10.5L306.47-10.5 302.02-11.45Q297.97-12.3 296.02-14.3 294.07-16.3 294.07-19.85L294.07-19.85Q294.07-28.95 305.47-28.95L305.47-28.95Q310.17-28.95 315.47-27.15L315.47-27.15 315.47-20.5Q313.52-21.4 310.95-21.95 308.37-22.5 305.82-22.5L305.82-22.5Q303.62-22.5 302.75-21.95 301.87-21.4 301.87-20.35L301.87-20.35Q301.87-19.45 302.42-19.03 302.97-18.6 304.17-18.3L304.17-18.3 308.62-17.35Q312.87-16.5 314.82-14.5 316.77-12.5 316.77-8.5L316.77-8.5Q316.77-3.85 313.65-1.5 310.52 0.85 305.22 0.85L305.22 0.85ZM329.12-11.95Q330.02-5.6 337.02-5.6L337.02-5.6Q338.92-5.6 340.75-6.1 342.57-6.6 344.87-7.7L344.87-7.7 346.92-1.7Q344.37-0.3 341.85 0.28 339.32 0.85 336.02 0.85L336.02 0.85Q331.22 0.85 327.82-1.03 324.42-2.9 322.67-6.28 320.92-9.65 320.92-14.1L320.92-14.1Q320.92-18.8 322.72-22.15 324.52-25.5 327.62-27.23 330.72-28.95 334.52-28.95L334.52-28.95Q340.57-28.95 344-25.4 347.42-21.85 347.42-15L347.42-15 347.42-11.95 329.12-11.95ZM334.52-22.5Q332.42-22.5 331.1-21.4 329.77-20.3 329.27-17.8L329.27-17.8 339.37-17.8Q339.12-20.25 337.92-21.38 336.72-22.5 334.52-22.5L334.52-22.5ZM377.62-37.9Q387.72-37.9 392.89-33.08 398.07-28.25 398.07-18.9L398.07-18.9Q398.07-9.5 392.92-4.75 387.77 0 377.62 0L377.62 0 364.47 0 364.47-37.9 377.62-37.9ZM389.97-19.05Q389.97-25.3 386.92-28.23 383.87-31.15 377.62-31.15L377.62-31.15 372.42-31.15 372.42-6.75 377.62-6.75Q383.97-6.75 386.97-9.68 389.97-12.6 389.97-19.05L389.97-19.05ZM410.31-11.95Q411.21-5.6 418.21-5.6L418.21-5.6Q420.11-5.6 421.94-6.1 423.76-6.6 426.06-7.7L426.06-7.7 428.11-1.7Q425.56-0.3 423.04 0.28 420.51 0.85 417.21 0.85L417.21 0.85Q412.41 0.85 409.01-1.03 405.61-2.9 403.86-6.28 402.11-9.65 402.11-14.1L402.11-14.1Q402.11-18.8 403.91-22.15 405.71-25.5 408.81-27.23 411.91-28.95 415.71-28.95L415.71-28.95Q421.76-28.95 425.19-25.4 428.61-21.85 428.61-15L428.61-15 428.61-11.95 410.31-11.95ZM415.71-22.5Q413.61-22.5 412.29-21.4 410.96-20.3 410.46-17.8L410.46-17.8 420.56-17.8Q420.31-20.25 419.11-21.38 417.91-22.5 415.71-22.5L415.71-22.5ZM449.81-20.45L443.41-20.45 443.41-9.35Q443.41-7.6 443.99-6.9 444.56-6.2 446.06-6.2L446.06-6.2Q447.66-6.2 449.11-6.6L449.11-6.6 449.11 0Q446.21 0.65 444.06 0.65L444.06 0.65Q439.76 0.65 437.74-1.2 435.71-3.05 435.71-6.7L435.71-6.7 435.71-20.45 431.91-20.45 431.91-27.3 435.71-27.3 435.71-36.8 443.41-36.8 443.41-27.3 449.81-27.3 449.81-20.45ZM461.66-11.95Q462.56-5.6 469.56-5.6L469.56-5.6Q471.46-5.6 473.28-6.1 475.11-6.6 477.41-7.7L477.41-7.7 479.46-1.7Q476.91-0.3 474.38 0.28 471.86 0.85 468.56 0.85L468.56 0.85Q463.76 0.85 460.36-1.03 456.96-2.9 455.21-6.28 453.46-9.65 453.46-14.1L453.46-14.1Q453.46-18.8 455.26-22.15 457.06-25.5 460.16-27.23 463.26-28.95 467.06-28.95L467.06-28.95Q473.11-28.95 476.53-25.4 479.96-21.85 479.96-15L479.96-15 479.96-11.95 461.66-11.95ZM467.06-22.5Q464.96-22.5 463.63-21.4 462.31-20.3 461.81-17.8L461.81-17.8 471.91-17.8Q471.66-20.25 470.46-21.38 469.26-22.5 467.06-22.5L467.06-22.5ZM497.81 0.85Q490.96 0.8 487.31-3.13 483.66-7.05 483.66-14.1L483.66-14.1Q483.66-21.1 487.31-25 490.96-28.9 497.81-28.95L497.81-28.95Q500.26-28.95 502.03-28.63 503.81-28.3 505.76-27.55L505.76-27.55 505.76-20.5Q503.91-21.35 502.26-21.7 500.61-22.05 498.66-22.05L498.66-22.05Q495.01-22 493.36-19.98 491.71-17.95 491.71-14.15L491.71-14.15Q491.71-6.05 498.46-6L498.46-6Q501.91-6 505.61-8.25L505.61-8.25 507.81-1.8Q503.26 0.85 497.81 0.85L497.81 0.85ZM528.45-20.45L522.05-20.45 522.05-9.35Q522.05-7.6 522.63-6.9 523.2-6.2 524.7-6.2L524.7-6.2Q526.3-6.2 527.75-6.6L527.75-6.6 527.75 0Q524.85 0.65 522.7 0.65L522.7 0.65Q518.4 0.65 516.38-1.2 514.35-3.05 514.35-6.7L514.35-6.7 514.35-20.45 510.55-20.45 510.55-27.3 514.35-27.3 514.35-36.8 522.05-36.8 522.05-27.3 528.45-27.3 528.45-20.45ZM546.9 0.85Q542.15 0.85 538.8-1.1 535.45-3.05 533.77-6.43 532.1-9.8 532.1-14.05L532.1-14.05Q532.1-18.25 533.77-21.63 535.45-25 538.8-26.98 542.15-28.95 546.9-28.95L546.9-28.95Q551.65-28.95 554.95-26.98 558.25-25 559.93-21.63 561.6-18.25 561.6-14.05L561.6-14.05Q561.6-9.8 559.93-6.43 558.25-3.05 554.95-1.1 551.65 0.85 546.9 0.85L546.9 0.85ZM546.9-5.75Q550.15-5.75 551.85-7.93 553.55-10.1 553.55-14.05L553.55-14.05Q553.55-17.95 551.85-20.13 550.15-22.3 546.9-22.3L546.9-22.3Q543.6-22.3 541.88-20.13 540.15-17.95 540.15-14.05L540.15-14.05Q540.15-10.15 541.88-7.95 543.6-5.75 546.9-5.75L546.9-5.75ZM582.9-28.75L584.05-28.75 584.05-21.85 582.9-21.85Q578.95-21.85 575.05-18.95L575.05-18.95 575.05 0 567.35 0 567.35-28.15 575.05-28.15 575.05-25.45Q578.9-28.75 582.9-28.75L582.9-28.75Z" opacity="1" transform="matrix(1,0,0,1,0,0)" fill="#fffafe" class="undefined-text-0" data-fill-palette-color="primary" id="text-0"></path></svg></g></svg></g></svg></g></svg></g></svg></g></svg></g></svg></g><g mask="url(#0e2f0c4d-e440-4504-b2e5-1e7409fb2d9c)"><g transform="matrix(2.724443982536488, 0, 0, 2.724443982536488, 80.62432146465362, 1.0000000000000142)"><svg xmlns:dc="http://purl.org/dc/elements/1.1/" xmlns:cc="http://creativecommons.org/ns#" xmlns:rdf="http://www.w3.org/1999/02/22-rdf-syntax-ns#" xmlns:svg="http://www.w3.org/2000/svg" xmlns="http://www.w3.org/2000/svg" version="1.1" x="0" y="0" viewBox="7.005653381347656 4.999993324279785 85.98868560791016 90.00001525878906" height="90.00001525878906" width="85.98868560791016" class="icon-none" data-fill-palette-color="accent" id="none"><g transform="matrix(0.02156765,0,0,0.02156765,7.0056532,4.9999933)" fill="#fffafe" data-fill-palette-color="accent"><path d="M1488.614 0c-104.776 0-191.445 86.882-191.445 191.587 0 99.248 77.988 182.268 175.288 190.63l0 1139.598L10.63 4053.933C3.72 4065.945 0 4079.764 0 4093.618c0 13.819 3.685 27.638 10.63 39.649 6.909 11.976 17.043 22.11 29.02 29.02 12.012 6.909 25.866 10.63 39.685 10.63l3828.26 0c13.854 0 27.709-3.72 39.685-10.63 11.976-6.91 22.11-17.043 29.019-29.02 6.945-12.012 10.63-25.831 10.63-39.649 0-13.854-3.685-27.673-10.63-39.685l-1461.827-2532.012 0-1139.704C2611.772 373.854 2689.795 290.835 2689.795 191.587 2689.795 86.882 2603.091 0 2498.315 0L1488.614 0z m0 158.634l1009.701 0c19.524 0 32.811 13.358 32.811 32.953 0 19.594-13.216 32.811-32.811 32.811l-63.142 0c-20.799 0-41.421 8.539-56.126 23.244-14.669 14.669-23.209 35.291-23.208 56.055l0 1239.519c0 13.854 3.685 27.673 10.594 39.685l1403.752 2431.347-3553.441 0 1403.752-2431.453c6.909-12.012 10.63-25.831 10.63-39.65l0-1239.448c0-20.764-8.575-41.386-23.244-56.055-14.705-14.705-35.327-23.244-56.091-23.244l-63.177 0c-19.595 0-32.811-13.217-32.811-32.811 0-19.594 13.287-32.953 32.811-32.953z" fill="#fffafe" fill-opacity="1" fill-rule="nonzero" stroke="none" data-fill-palette-color="accent"></path><path d="M2421.142 1872.142c-164.799 125.008-428.811 206.008-726.378 206.007-82.205 0-161.858-6.201-237.579-17.787-357.272 618.661-714.295 1237.465-1071.921 1855.913l3216.437 0c-393.874-681.201-787.252-1362.614-1180.559-2044.133z m-495.851 367.015l0 27.957c0 10.984 4.535 22.996-6.874 25.866-44.787 11.232-86.776 32.811-121.996 62.61-57.543 48.614-95.988 118.417-105.448 193.217-21.012 165.969 100.028 322.441 267.094 341.397 6.378 0.709 19.169-2.622 19.169 5.315l0 16.264 0 43.689 0 13.288c0-0.354-22.216 7.831-24.413 9.035-18.071 9.921-32.102 26.646-38.658 46.205-4.323 12.933-5.421 26.894-3.047 40.287 1.169 6.484 6.449 11.587 0.248 15.165-11.197 6.449-22.429 12.969-33.661 19.418-9.992 5.776-19.984 11.551-29.977 17.327 1.453-0.85-39.118-47.303-43.441-51.449-140.598-133.937-377.894-99.815-473.988 69.165-28.311 49.5-43.406 108.531-39.826 165.614 0.957 20.87 4.11 41.634 9.354 61.866 3.047 11.728 6.803 11.941-2.551 17.327-12.898 7.441-25.831 14.917-38.729 22.358-48.685-122.847-41.102-263.693 19.807-380.87 42.343-81.496 109.169-148.89 190.063-192.366 14.35-7.689 29.126-14.669 44.221-20.834 6.378-2.587 12.827-5.032 19.311-7.335 9.071-3.26 13.677-0.744 11.409-11.48-6.024-28.736-9.284-58.004-9.779-87.378-0.709-45.921 5.386-91.949 18.248-136.099 49.535-170.15 198.071-299.764 373.464-325.559z m134.717 0c132.095 19.417 251.362 97.902 322.122 211.04 35.61 56.906 58.394 121.5 66.331 188.149 4.713 39.402 4.323 79.37-1.134 118.666-1.595 11.48-3.65 22.925-6.095 34.263 11.02 3.543 21.968 7.512 32.705 11.87 19.736 8.008 38.941 17.362 57.366 28.028 194.457 112.252 280.311 357.413 197.433 566.291-9.106-5.244-18.213-10.524-27.354-15.803-9.567-5.492-18.957-5.917-15.768-17.043 13.287-46.594 15.13-96.201 5.492-143.646-37.028-176.598-222.095-284.315-393.661-228.295-45.638 14.882-87.591 41.067-121.217 75.26-5.563 5.634-38.445 48.366-40.5 47.161-10.524-6.059-21.083-12.118-31.606-18.212-10.878-6.272-21.721-12.543-32.598-18.815-0.815-0.496 3.862-24.272 3.862-27.815 0-10.665-2.055-21.295-6.059-31.146-8.469-20.728-25.405-37.453-46.205-45.709-4.004-1.559-15.13-1.878-15.13-6.555l0-14.492 0-46.984 0-12.579c0-1.701 22.181-2.87 25.37-3.295 50.776-6.838 99.461-26.752 140.528-57.331 67.11-49.925 111.543-126.531 120.968-209.657 10.524-91.417-21.968-184.11-86.846-249.307-33.697-33.874-75.437-59.563-120.862-74.374-5.917-1.949-27.142-4.004-27.142-10.382l0-17.646 0-31.642z m-65.303 391.677c63.638 0.354 127.099 15.095 184.358 43.548 22.358 11.126 43.724 24.236 63.744 39.118-10.842 21.224-24.378 41.032-40.216 58.854-8.575 9.673-17.823 18.779-27.674 27.177-8.114 6.945-17.15-4.358-25.547-9.425-19.488-11.799-40.358-21.366-62.008-28.453-91.382-30.047-193.961-14.138-271.984 42.059-20.091-16.37-37.878-35.539-52.76-56.763-7.476-10.665-14.209-21.862-20.126-33.449 8.327-6.201 16.866-12.083 25.618-17.646 39.083-24.803 82.24-43.051 127.276-53.752 32.563-7.724 65.976-11.48 99.319-11.268z m397.417 370.843c3.437-0.035 6.909 0 10.347 0.071 10.453 0.283 7.512 4.784 8.255 13.925 2.055 25.051 1.913 50.244-0.496 75.26-8.717 90.567-47.516 176.917-109.24 243.744-30.862 33.484-67.146 61.866-107.078 83.728-9.673 5.315-19.559 10.205-29.587 14.74-9.673 4.323-17.894-19.346-22.004-27.779-12.012-24.697-20.374-51.13-24.768-78.236 82.098-37.099 144.992-110.693 168.449-197.717 6.413-23.882 9.921-48.543 10.382-73.275 0.142-7.051-0.035-14.031-0.354-21.083-0.496-9.39-4.677-13.854 5.315-17.398 12.933-4.535 26.185-8.15 39.614-10.771 13.465-2.622 27.142-4.287 40.854-4.926 3.437-0.177 6.874-0.248 10.311-0.283z m-798.839 3.508c25.689 0.106 51.413 3.72 76.146 10.771 7.016 1.984 13.925 4.252 20.764 6.768-0.602 6.874-1.028 13.713-1.24 20.587-0.283 11.941 0.177 23.882 1.311 35.716 4.146 44.15 18.035 87.165 40.571 125.327 22.925 38.799 54.461 72.354 91.807 97.583 8.965 6.095 18.319 11.658 27.886 16.76 4.819 2.551 9.673 4.996 14.633 7.299 7.866 3.65 4.146 8.043 2.587 15.732-5.457 26.929-14.882 53.008-27.886 77.209-3.862 7.264-6.697 19.595-15.484 15.732-5.032-2.197-10.028-4.5-14.988-6.909-9.815-4.784-19.488-9.992-28.914-15.52-18.779-11.055-36.709-23.528-53.574-37.347-33.626-27.567-62.965-60.343-86.599-96.838-51.98-80.256-74.835-177.307-64.807-272.339 5.917-0.39 11.87-0.531 17.787-0.531z m462.402 99.46c0.921-0.106 1.843 0.85 4.571 2.445 11.693 6.732 23.421 13.5 35.114 20.268 4.819 2.764 24.626 10.169 26.823 15.449-12.614 24.626-21.898 50.953-27.39 78.094-10.453 51.732-7.087 106.122 9.532 156.225 29.622 89.291 100.417 161.256 189.425 191.87 89.008 30.791 184.181 16.76 263.728-31.677 16.122-10.346 31.252-22.216 45.106-35.363 8.398-8.008 9.85-16.016 20.091-10.098 12.898 7.441 25.795 14.882 38.693 22.323-74.409 94.004-185.102 155.728-304.051 170.327-92.48 11.374-187.37-6.13-269.752-49.678-25.228-13.323-49.217-28.949-71.54-46.665-5.244-4.146-10.382-8.398-15.413-12.791-7.689-6.661-8.008-1.559-14.811 4.323-10.027 8.646-20.409 16.831-31.11 24.59-40.642 29.374-86.102 52.087-133.973 66.862-178.547 55.205-378.815-6.874-494.787-153.389 10.169-5.882 20.338-11.764 30.508-17.611 4.5-2.622 8.965-5.209 13.5-7.83 2.516-1.453 16.618 14.953 19.488 17.574 33.98 30.968 74.941 53.894 119.02 66.898 87.697 25.76 182.976 10.169 258.307-41.173 69.874-47.622 117.035-124.866 128.799-208.453 7.902-55.984-0.142-113.74-23.102-165.402-1.772-3.969-11.657-17.646-7.37-20.09 4.181-2.409 8.398-4.854 12.578-7.264 12.614-7.299 25.264-14.563 37.878-21.862 4.535-2.622 9.071-5.244 13.571-7.831 1.205-0.709 15.591 13.039 18.248 14.811 20.303 13.323 46.028 16.973 69.272 9.922 13.075-3.969 25.087-11.268 34.689-20.977 2.587-2.587 3.437-3.756 4.358-3.827z" fill="#fffafe" fill-opacity="1" fill-rule="nonzero" stroke="none" data-fill-palette-color="accent"></path></g></svg></g></g></svg></g><defs><mask id="0e2f0c4d-e440-4504-b2e5-1e7409fb2d9c"><rect width="640" height="400" fill="white"></rect><rect width="348.05760000000004" height="34.66978369652574" fill="black" y="106.26510815173712" x="23.731199999999973" id="transform-me"></rect></mask></defs></svg><rect width="395.52" height="247.2" fill="none" stroke="none" visibility="hidden"></rect></g></svg></g></svg>