<?xml version="1.0" standalone="no"?>
<!DOCTYPE svg PUBLIC "-//W3C//DTD SVG 20010904//EN"
 "http://www.w3.org/TR/2001/REC-SVG-20010904/DTD/svg10.dtd">
<svg version="1.0" xmlns="http://www.w3.org/2000/svg"
 width="1000.000000pt" height="750.000000pt" viewBox="0 0 1000.000000 750.000000"
 preserveAspectRatio="xMidYMid meet">

<g transform="translate(0.000000,750.000000) scale(0.100000,-0.100000)"
fill="#000000" stroke="none">
<path d="M0 3750 l0 -3750 5000 0 5000 0 0 3750 0 3750 -5000 0 -5000 0 0
-3750z m5725 2553 c86 -46 129 -118 129 -213 0 -116 -72 -206 -186 -234 l-28
-6 0 -701 0 -700 95 -164 c52 -90 95 -167 95 -170 0 -3 -51 -5 -114 -5 l-114
0 -81 143 -81 143 0 788 c0 560 3 794 11 809 22 43 50 57 116 57 59 0 93 15
93 40 0 5 -7 16 -16 24 -14 14 -87 16 -654 16 -622 0 -640 -1 -650 -19 -13
-25 -13 -27 6 -45 11 -11 35 -16 77 -16 66 0 94 -14 116 -57 8 -15 11 -249 11
-809 l0 -788 -81 -143 -81 -143 -114 0 c-63 0 -114 2 -114 5 0 3 43 80 95 170
l95 164 0 700 0 701 -27 6 c-115 28 -187 118 -187 234 0 112 64 197 174 231
14 4 329 7 700 6 671 -2 675 -2 715 -24z m-3577 -2508 c3 -207 6 -221 45 -209
16 5 18 0 15 -38 -3 -42 -4 -43 -42 -46 -50 -4 -90 13 -105 44 -7 16 -11 101
-11 240 l0 215 48 -3 47 -3 3 -200z m1767 135 l0 -45 -45 0 c-44 0 -45 1 -48
33 -5 54 2 64 50 60 l43 -3 0 -45z m-1978 -5 c60 -35 80 -121 46 -192 -22 -47
-78 -72 -160 -73 l-63 0 0 -75 0 -75 -50 0 -50 0 0 213 c0 118 3 217 8 221 4
4 59 6 122 4 92 -3 122 -7 147 -23z m1719 -6 c117 -59 142 -253 45 -350 -47
-47 -91 -59 -223 -59 l-108 0 0 221 0 221 119 -4 c101 -3 126 -8 167 -29z
m2427 2 c118 -57 145 -255 48 -352 -47 -47 -91 -59 -223 -59 l-108 0 0 221 0
221 118 -4 c96 -3 126 -8 165 -27z m-2975 -38 l3 -53 35 0 c34 0 34 0 34 -45
0 -45 0 -45 -35 -45 l-35 0 0 -74 c0 -77 10 -93 46 -79 13 5 15 -2 12 -38 -3
-43 -4 -44 -42 -47 -50 -4 -90 13 -105 44 -6 14 -11 63 -11 109 0 78 -2 85
-20 85 -17 0 -20 7 -20 45 0 38 3 45 20 45 17 0 20 7 20 48 0 27 3 52 7 56 4
4 25 6 48 4 l40 -3 3 -52z m3600 0 l3 -53 35 0 c34 0 34 0 34 -45 0 -45 0 -45
-35 -45 l-35 0 0 -74 c0 -65 3 -75 19 -81 10 -3 25 -4 32 -3 19 4 25 -62 7
-73 -7 -5 -32 -9 -56 -9 -32 0 -49 6 -67 25 -23 22 -25 32 -25 119 0 91 -1 95
-22 98 -20 3 -23 9 -23 43 0 34 3 40 23 43 20 3 22 9 22 58 l0 55 43 -3 42 -3
3 -52z m902 3 l0 -55 38 -3 c36 -3 37 -4 40 -45 l3 -43 -40 0 -41 0 0 -69 c0
-75 13 -98 50 -86 18 6 20 2 20 -34 0 -35 -3 -41 -26 -47 -39 -10 -97 3 -116
27 -14 17 -18 41 -18 115 0 87 -1 94 -20 94 -17 0 -20 7 -20 45 0 38 3 45 20
45 17 0 20 7 20 48 0 27 3 52 7 55 3 4 24 7 45 7 l38 0 0 -54z m-5130 -74 c42
-32 50 -59 50 -185 l0 -118 -62 0 c-35 1 -82 -2 -104 -5 -47 -7 -97 13 -114
45 -19 37 -12 107 14 138 22 26 30 28 95 28 58 0 71 3 69 15 -2 10 -20 17 -58
20 -52 5 -55 7 -58 33 -6 55 2 60 76 54 41 -4 76 -14 92 -25z m217 17 c8 -8
17 -8 31 0 27 15 95 14 127 -1 45 -20 58 -61 63 -195 l5 -123 -52 0 -51 0 0
115 c0 107 -1 115 -21 126 -17 8 -31 8 -60 0 l-39 -12 0 -114 0 -115 -50 0
-50 0 0 158 c0 87 3 162 7 165 10 11 78 8 90 -4z m1221 -156 l2 -163 -50 0
-50 0 0 158 c0 87 3 162 7 166 4 4 25 6 48 4 l40 -3 3 -162z m296 157 c21 -8
26 -16 26 -45 l0 -36 -52 7 c-29 4 -57 7 -63 7 -60 0 -62 -28 -2 -43 101 -26
127 -49 127 -112 0 -27 -8 -46 -29 -70 -24 -28 -36 -32 -90 -36 -34 -2 -82 1
-106 8 -44 12 -45 13 -45 56 l0 43 41 -14 c54 -19 125 -20 132 -1 8 20 -10 31
-69 45 -69 16 -97 46 -96 103 1 35 7 48 32 71 27 24 38 27 100 27 38 0 80 -4
94 -10z m324 -10 c40 -24 62 -73 62 -135 l0 -45 -100 0 c-80 0 -100 -3 -100
-14 0 -38 85 -59 145 -36 23 9 27 7 35 -16 6 -14 10 -31 10 -39 0 -21 -66 -38
-134 -33 -108 7 -160 64 -160 174 0 69 22 113 70 145 40 26 128 26 172 -1z
m291 11 c25 -5 54 -20 70 -35 25 -25 26 -32 30 -156 l3 -130 -51 0 c-29 0 -51
5 -51 11 0 5 -10 3 -22 -5 -31 -22 -86 -20 -125 4 -56 34 -63 130 -12 176 16
15 36 19 90 19 56 0 69 3 67 15 -2 11 -19 16 -61 18 l-57 3 0 38 c0 21 3 41 7
44 9 9 58 8 112 -2z m380 3 c29 -6 31 -9 31 -50 0 -43 0 -43 -26 -33 -32 11
-110 16 -120 7 -15 -16 7 -36 46 -42 64 -10 97 -31 110 -71 16 -48 -2 -100
-44 -126 -35 -21 -117 -25 -178 -8 -37 10 -38 12 -38 54 l0 44 36 -15 c48 -20
128 -15 132 8 2 13 -8 20 -40 27 -78 20 -112 42 -122 83 -11 46 6 93 43 113
27 15 116 19 170 9z m331 -9 c39 -20 62 -67 64 -129 l1 -51 -102 -3 c-58 -1
-103 -7 -103 -12 0 -6 9 -19 21 -31 17 -17 30 -20 72 -17 29 3 59 8 68 12 13
5 19 0 28 -25 6 -18 11 -35 11 -40 0 -16 -75 -31 -136 -27 -99 6 -154 57 -162
151 -6 70 23 138 70 167 40 24 126 27 168 5z m929 1 c43 -23 64 -62 65 -125
l1 -56 -103 -5 -104 -5 22 -27 c18 -23 29 -28 66 -28 25 0 55 5 66 11 24 13
36 4 44 -38 6 -29 3 -32 -31 -43 -53 -18 -158 -9 -192 16 -46 34 -75 100 -70
160 10 104 61 154 155 154 29 0 66 -7 81 -14z m590 0 c43 -23 64 -62 65 -125
l1 -56 -103 -5 -104 -5 22 -27 c18 -23 29 -28 66 -28 25 0 55 5 66 11 24 13
36 4 44 -38 6 -29 3 -32 -31 -43 -53 -18 -158 -9 -192 16 -38 27 -73 99 -73
149 1 56 32 121 72 145 40 24 125 27 167 6z m355 8 c11 -4 16 -19 16 -45 l0
-39 -59 6 c-51 6 -61 4 -80 -15 -25 -25 -29 -106 -7 -136 15 -20 70 -26 117
-11 21 6 27 4 32 -11 2 -10 8 -26 12 -36 6 -13 -1 -20 -29 -32 -77 -32 -177
-11 -219 47 -22 30 -33 108 -23 162 8 39 48 93 80 106 25 10 137 13 160 4z
m576 -17 c98 -65 102 -220 7 -291 -42 -31 -159 -30 -205 2 -44 32 -65 77 -66
142 -1 106 62 170 169 170 48 0 70 -5 95 -23z m230 8 c0 -14 3 -14 30 0 16 8
40 15 55 15 23 0 25 -4 25 -40 0 -34 -3 -40 -21 -40 -12 0 -36 -7 -55 -16
l-34 -16 0 -109 0 -109 -45 0 -45 0 0 165 0 165 45 0 c34 0 45 -4 45 -15z
m-4260 -444 c0 -5 -259 -458 -575 -1006 -316 -547 -575 -998 -575 -1000 0 -3
983 -5 2185 -5 1202 0 2185 2 2185 5 0 2 -259 453 -575 1000 -316 548 -575
1001 -575 1006 0 6 45 9 112 7 l112 -3 603 -1044 c473 -819 603 -1052 603
-1079 0 -24 -8 -42 -29 -63 l-29 -29 -2407 0 -2407 0 -29 29 c-21 21 -29 39
-29 63 0 27 128 257 591 1059 325 563 597 1034 605 1047 14 21 21 22 124 22
61 0 110 -4 110 -9z m620 5 c0 -2 -14 -21 -31 -42 -84 -105 -124 -237 -116
-380 l5 -92 -76 -37 c-185 -91 -312 -294 -312 -500 0 -53 23 -191 33 -202 3
-2 16 2 31 8 21 10 24 16 18 38 -14 53 -6 164 17 224 32 81 112 166 193 203
56 26 74 29 163 29 90 0 106 -3 160 -29 33 -17 81 -52 107 -78 l47 -48 35 21
c31 18 36 26 36 57 0 28 8 43 40 73 34 32 40 45 40 78 0 38 -1 39 -39 46 -111
19 -226 107 -278 213 -25 51 -28 67 -28 162 0 96 3 110 28 160 55 107 31 100
343 100 l273 0 25 -33 c54 -70 71 -125 71 -227 0 -86 -3 -101 -31 -160 -17
-36 -51 -85 -75 -109 -48 -48 -138 -96 -200 -106 -38 -7 -39 -8 -39 -47 0 -34
6 -46 36 -72 30 -26 37 -39 38 -71 1 -34 6 -43 37 -62 l36 -22 60 58 c79 77
147 104 263 105 75 1 93 -3 152 -31 119 -56 195 -155 219 -284 8 -48 9 -77 1
-114 -10 -43 -9 -52 5 -62 32 -24 41 -14 59 64 55 246 -73 512 -298 621 l-78
37 6 80 c10 136 -30 274 -109 378 -21 26 -37 49 -37 52 0 3 105 5 233 5 210 0
235 -2 249 -17 17 -20 1073 -1847 1083 -1875 7 -17 -92 -18 -1980 -18 -1888 0
-1987 1 -1980 18 10 28 1066 1855 1083 1875 14 15 39 17 249 17 128 0 233 -2
233 -4z"/>
<path d="M1760 3799 l0 -61 54 4 c66 5 86 20 86 62 0 45 -16 56 -82 56 l-58 0
0 -61z"/>
<path d="M3470 3725 l0 -135 45 0 c97 0 145 45 145 135 0 58 -23 109 -56 124
-14 6 -49 11 -79 11 l-55 0 0 -135z"/>
<path d="M5900 3725 l0 -135 45 0 c105 0 150 49 143 153 -4 52 -9 64 -36 88
-28 25 -40 29 -92 29 l-60 0 0 -135z"/>
<path d="M2341 3636 c-31 -37 7 -66 66 -51 19 4 24 11 21 33 -3 23 -8 27 -39
30 -23 2 -40 -2 -48 -12z"/>
<path d="M4422 3754 c-34 -24 -26 -34 28 -34 38 0 50 4 50 15 0 9 -12 20 -26
25 -31 12 -25 13 -52 -6z"/>
<path d="M4734 3636 c-13 -34 0 -51 40 -51 42 0 64 20 53 49 -8 21 -85 23 -93
2z"/>
<path d="M5434 3760 c-12 -4 -24 -15 -27 -24 -5 -13 3 -16 48 -16 59 0 68 10
33 34 -25 18 -25 18 -54 6z"/>
<path d="M6363 3760 c-13 -5 -23 -16 -23 -25 0 -11 12 -15 50 -15 28 0 50 3
50 8 -1 28 -43 45 -77 32z"/>
<path d="M6954 3760 c-12 -5 -24 -15 -27 -24 -5 -13 3 -16 48 -16 30 0 55 3
55 8 -1 27 -43 45 -76 32z"/>
<path d="M7844 3739 c-13 -15 -19 -36 -19 -69 0 -60 24 -90 71 -90 41 0 74 38
74 87 0 35 -15 73 -34 85 -22 15 -73 8 -92 -13z"/>
<path d="M4861 3054 c-56 -15 -171 -71 -171 -84 0 -4 16 -28 36 -54 40 -52 35
-52 129 -12 48 20 77 26 140 26 63 0 92 -6 140 -26 94 -40 88 -41 130 16 42
58 44 53 -37 95 -103 54 -253 70 -367 39z"/>
<path d="M4480 2549 c0 -76 19 -150 56 -228 31 -64 146 -184 211 -219 l42 -23
19 38 c39 78 38 87 -19 124 -99 63 -169 185 -169 293 0 61 -2 63 -86 72 l-54
7 0 -64z"/>
<path d="M5394 2600 c-18 -7 -22 -19 -26 -74 -10 -117 -100 -260 -189 -296
-16 -7 -29 -16 -29 -21 0 -20 42 -119 51 -119 24 0 92 44 147 95 97 89 161
238 162 373 l0 52 -47 -1 c-27 0 -57 -4 -69 -9z"/>
<path d="M4875 2463 c-16 -8 -31 -17 -33 -18 -2 -2 7 -31 19 -66 58 -173 -33
-376 -204 -455 -54 -26 -73 -29 -157 -29 -81 0 -103 4 -150 26 -31 14 -72 40
-92 58 l-36 31 -23 -20 -24 -20 54 -50 c174 -159 431 -196 640 -91 32 17 72
41 88 55 38 32 39 32 77 2 88 -66 232 -116 341 -116 76 0 178 25 252 62 62 30
183 129 183 149 0 4 -9 13 -20 19 -17 9 -28 5 -66 -24 -72 -55 -145 -79 -239
-80 -69 0 -90 4 -146 31 -78 36 -127 77 -167 141 -69 108 -79 244 -28 363 5
11 -3 20 -32 33 -36 17 -42 17 -70 2 -38 -20 -59 -20 -96 -1 -34 18 -34 18
-71 -2z"/>
</g>
</svg>
