<?xml version="1.0" standalone="no"?>
<!DOCTYPE svg PUBLIC "-//W3C//DTD SVG 20010904//EN"
 "http://www.w3.org/TR/2001/REC-SVG-20010904/DTD/svg10.dtd">
<svg version="1.0" xmlns="http://www.w3.org/2000/svg"
 width="1000.000000pt" height="750.000000pt" viewBox="0 0 1000.000000 750.000000"
 preserveAspectRatio="xMidYMid meet">
<metadata>
Created by potrace 1.16, written by Peter Selinger 2001-2019
</metadata>
<g transform="translate(0.000000,750.000000) scale(0.100000,-0.100000)"
fill="#000000" stroke="none">
<path d="M1081 4325 c-69 -19 -109 -45 -156 -96 -65 -72 -80 -118 -80 -244 0
-91 4 -118 21 -156 36 -77 88 -124 213 -195 64 -35 126 -76 139 -90 47 -53 15
-114 -60 -114 -37 0 -76 8 -244 47 -25 6 -29 -10 -40 -168 l-6 -96 58 -16
c138 -38 319 -45 416 -17 101 29 185 126 209 239 18 86 7 198 -24 262 -37 76
-85 118 -222 194 -152 84 -168 104 -126 156 16 20 27 24 78 22 32 0 97 -9 146
-18 48 -10 89 -16 92 -14 4 5 35 233 35 265 0 18 -9 23 -72 33 -123 20 -315
23 -377 6z"/>
<path d="M1954 4326 c-154 -35 -239 -122 -286 -292 -19 -69 -22 -105 -22 -274
0 -210 11 -282 59 -387 77 -169 276 -247 506 -199 127 27 205 88 258 200 59
126 84 341 62 535 -28 236 -107 358 -266 407 -71 22 -236 27 -311 10z m195
-289 c14 -6 34 -28 45 -47 19 -31 21 -55 24 -214 5 -230 -1 -281 -38 -318 -24
-23 -37 -28 -80 -28 -65 0 -104 20 -121 62 -17 46 -24 378 -9 452 15 71 52
106 113 106 23 0 53 -6 66 -13z"/>
<path d="M2690 3750 l0 -570 155 0 155 0 0 570 0 570 -155 0 -155 0 0 -570z"/>
<path d="M3180 3750 l0 -570 289 0 289 0 6 88 c4 48 9 104 11 125 l5 37 -145
0 -145 0 0 445 0 445 -155 0 -155 0 0 -570z"/>
<path d="M4230 3750 l0 -570 160 0 160 0 0 215 0 215 110 0 110 0 0 -215 0
-215 155 0 155 0 0 570 0 570 -155 0 -155 0 -2 -222 -3 -223 -107 -3 -108 -3
0 226 0 225 -160 0 -160 0 0 -570z"/>
<path d="M5230 3750 l0 -570 309 0 310 0 5 53 c3 28 8 85 11 125 l6 72 -160 0
-161 0 0 100 0 100 130 0 130 0 0 120 0 120 -130 0 -130 0 0 85 0 85 149 0
149 0 6 63 c3 34 8 97 12 140 l6 77 -321 0 -321 0 0 -570z"/>
<path d="M6120 4314 c0 -8 -198 -1090 -204 -1117 -4 -16 6 -17 142 -15 l146 3
13 65 c24 123 9 110 132 110 l109 0 17 -90 17 -90 155 0 c142 0 154 1 149 18
-3 9 -48 253 -101 542 -52 289 -98 537 -101 553 l-6 27 -234 0 c-129 0 -234
-3 -234 -6z m240 -341 c0 -5 14 -91 30 -193 16 -102 30 -191 30 -197 0 -9 -21
-13 -71 -13 l-71 0 5 33 c3 17 18 110 33 205 14 94 30 172 35 172 5 0 9 -3 9
-7z"/>
<path d="M6900 3750 l0 -570 289 0 288 0 6 83 c4 45 7 101 7 125 l0 42 -140 0
-140 0 0 445 0 445 -155 0 -155 0 0 -570z"/>
<path d="M7489 4278 c0 -24 -4 -84 -7 -135 l-7 -92 110 -3 110 -3 3 -432 2
-433 155 0 155 0 2 433 3 432 106 3 106 3 7 91 c3 50 6 111 6 135 l0 43 -375
0 -375 0 -1 -42z"/>
<path d="M8320 3750 l0 -570 155 0 155 0 0 215 0 215 110 0 110 0 0 -215 0
-215 155 0 155 0 0 570 0 570 -155 0 -155 0 0 -225 0 -226 -107 3 -108 3 -3
223 -2 222 -155 0 -155 0 0 -570z"/>
</g>
</svg>
