<?xml version="1.0" standalone="no"?>
<!DOCTYPE svg PUBLIC "-//W3C//DTD SVG 20010904//EN"
 "http://www.w3.org/TR/2001/REC-SVG-20010904/DTD/svg10.dtd">
<svg version="1.0" xmlns="http://www.w3.org/2000/svg"
 width="1000.000000pt" height="750.000000pt" viewBox="0 0 1000.000000 750.000000"
 preserveAspectRatio="xMidYMid meet">

<g transform="translate(0.000000,750.000000) scale(0.100000,-0.100000)"
fill="#000000" stroke="none">
<path d="M936 4010 c-62 -19 -96 -73 -96 -152 0 -72 24 -109 104 -154 71 -41
85 -59 61 -83 -13 -13 -23 -13 -76 -2 -34 7 -62 11 -64 9 -2 -2 -6 -28 -10
-59 l-7 -57 70 -12 c164 -30 253 33 240 170 -6 63 -32 96 -109 140 -44 25 -64
42 -64 55 0 18 7 20 72 18 80 -2 79 -3 85 77 l3 45 -40 7 c-53 9 -133 8 -169
-2z"/>
<path d="M1657 4006 c-92 -34 -121 -105 -115 -275 3 -90 7 -113 28 -150 14
-25 39 -53 57 -63 68 -40 183 -32 242 18 48 40 66 102 66 229 0 99 -3 116 -25
160 -15 29 -39 57 -58 68 -43 25 -145 32 -195 13z m118 -130 c16 -12 20 -29
23 -112 4 -117 -7 -147 -55 -152 -50 -5 -63 24 -63 138 0 70 4 101 16 118 17
25 51 29 79 8z"/>
<path d="M2914 4002 c-45 -22 -76 -59 -92 -112 -28 -96 -20 -246 19 -321 34
-67 128 -98 193 -64 20 11 33 12 40 5 5 -5 32 -10 58 -10 l48 0 0 140 0 140
-80 0 -80 0 0 -44 c0 -35 4 -45 20 -49 30 -8 28 -63 -2 -70 -35 -10 -69 3 -79
30 -16 43 -11 186 7 212 15 21 22 23 73 18 31 -3 63 -8 72 -11 13 -6 17 5 25
60 10 65 10 66 -15 76 -14 5 -57 12 -96 14 -55 4 -79 1 -111 -14z"/>
<path d="M5332 4008 c-82 -28 -127 -132 -120 -282 7 -172 71 -243 210 -232
100 7 107 14 95 78 -5 29 -10 54 -11 55 -1 1 -23 -3 -49 -8 -31 -5 -56 -5 -67
1 -29 16 -43 74 -38 158 4 64 9 78 29 95 23 18 35 18 101 2 24 -6 25 -4 35 55
9 55 8 62 -9 71 -28 15 -139 20 -176 7z"/>
<path d="M6385 4009 c-86 -32 -120 -107 -120 -264 0 -98 3 -116 25 -160 42
-83 119 -110 240 -84 35 7 50 15 46 24 -2 7 -8 33 -11 59 -6 37 -11 46 -24 42
-85 -24 -115 -14 -131 42 -24 88 -4 203 39 217 11 3 39 1 62 -5 22 -6 42 -10
44 -8 1 2 7 29 12 61 9 52 8 59 -9 68 -28 15 -139 20 -173 8z"/>
<path d="M8445 4006 c-85 -32 -120 -118 -113 -276 8 -160 55 -225 170 -237
163 -16 237 83 226 303 -6 106 -32 166 -86 197 -44 26 -144 32 -197 13z m131
-141 c22 -33 17 -230 -6 -245 -27 -18 -73 -7 -88 20 -17 34 -12 210 7 233 21
26 68 21 87 -8z"/>
<path d="M1180 3973 c0 -21 -3 -48 -6 -60 -6 -22 -3 -23 45 -23 l51 0 0 -195
0 -195 70 0 70 0 2 193 3 192 48 3 c44 3 47 5 47 31 0 16 3 43 6 60 l7 31
-172 0 -171 0 0 -37z"/>
<path d="M2000 3756 l0 -256 65 0 65 0 0 90 c0 120 18 121 51 3 l24 -88 77 -3
76 -3 -34 107 -34 106 20 25 c56 71 46 207 -19 250 -21 14 -52 19 -158 21
l-133 4 0 -256z m184 118 c33 -32 13 -104 -29 -104 -23 0 -25 3 -25 53 0 30 3
57 7 60 11 12 31 8 47 -9z"/>
<path d="M2466 3983 c-12 -60 -86 -466 -86 -474 0 -5 29 -9 64 -9 l63 0 7 40
6 40 50 0 c46 0 50 -2 56 -27 3 -16 7 -34 10 -40 4 -15 134 -19 134 -5 0 5
-20 118 -45 252 -25 134 -45 245 -45 247 0 1 -47 3 -104 3 l-104 0 -6 -27z
m134 -280 c0 -28 -3 -33 -24 -33 -34 0 -37 8 -25 81 19 117 21 120 35 49 7
-36 13 -80 14 -97z"/>
<path d="M3250 3755 l0 -256 138 3 137 3 3 53 3 52 -70 0 -71 0 0 45 0 45 61
0 60 0 -3 53 -3 52 -57 3 -58 3 0 39 0 39 68 3 67 3 3 58 3 57 -141 0 -140 0
0 -255z"/>
<path d="M3811 3958 c-17 -83 -81 -441 -81 -450 0 -4 29 -8 64 -8 l63 0 7 40
6 40 50 0 c46 0 50 -2 56 -27 3 -16 7 -34 10 -40 4 -14 134 -19 134 -5 0 4
-20 117 -45 251 -25 134 -45 245 -45 247 0 2 -47 4 -104 4 l-105 0 -10 -52z
m135 -225 c6 -63 6 -63 -19 -63 -14 0 -28 4 -31 9 -5 8 8 104 21 161 6 24 6
23 14 -10 4 -19 11 -63 15 -97z"/>
<path d="M4170 3755 l0 -255 60 0 60 0 0 121 c0 66 3 118 8 115 4 -2 30 -56
57 -120 l50 -116 68 0 67 0 0 255 0 255 -60 0 -60 0 0 -120 c0 -66 -3 -120 -8
-120 -4 0 -29 54 -56 120 l-48 120 -69 0 -69 0 0 -255z"/>
<path d="M4620 3755 l0 -255 101 0 c56 0 119 5 141 12 49 14 103 73 119 130
20 70 16 205 -8 258 -40 89 -87 110 -244 110 l-109 0 0 -255z m205 110 c23
-22 25 -32 25 -112 0 -107 -13 -133 -66 -133 l-34 0 0 128 c0 71 3 132 7 135
14 14 45 6 68 -18z"/>
<path d="M5625 3988 c-9 -40 -85 -462 -85 -475 0 -18 119 -18 124 0 3 6 7 24
10 40 6 25 10 27 56 27 l50 0 6 -40 7 -40 69 0 70 0 -6 28 c-12 59 -86 465
-86 473 0 5 -47 9 -105 9 -100 0 -105 -1 -110 -22z m134 -295 c1 -19 -4 -23
-29 -23 -16 0 -30 5 -30 11 0 22 21 155 27 169 6 14 31 -109 32 -157z"/>
<path d="M5980 3755 l0 -255 130 0 130 0 0 55 0 55 -60 0 -60 0 0 200 0 200
-70 0 -70 0 0 -255z"/>
<path d="M6622 3791 l3 -220 29 -30 c51 -54 176 -66 262 -25 64 31 74 67 74
297 l0 197 -70 0 -70 0 0 -182 c0 -101 -4 -189 -9 -196 -5 -8 -22 -12 -42 -10
l-34 3 -3 193 -2 192 -71 0 -70 0 3 -219z"/>
<path d="M7060 3755 l0 -255 129 0 c143 0 141 -1 141 70 l0 39 -62 3 -63 3 -3
198 -2 197 -70 0 -70 0 0 -255z"/>
<path d="M7425 3988 c-11 -47 -85 -459 -85 -473 0 -20 118 -22 124 -2 3 6 7
24 10 40 6 25 10 27 56 27 l50 0 6 -40 7 -40 69 0 70 0 -6 28 c-10 45 -86 466
-86 474 0 4 -47 8 -105 8 -100 0 -105 -1 -110 -22z m134 -295 c1 -19 -4 -23
-29 -23 -16 0 -30 5 -30 11 0 21 21 154 27 169 6 14 31 -108 32 -157z"/>
<path d="M7740 3950 l0 -60 50 0 50 0 0 -195 0 -195 70 0 70 0 0 195 0 195 44
0 c49 0 56 10 56 83 l0 37 -170 0 -170 0 0 -60z"/>
<path d="M8120 3755 l0 -255 70 0 70 0 0 255 0 255 -70 0 -70 0 0 -255z"/>
<path d="M8790 3755 l0 -255 60 0 60 0 0 115 c0 63 4 115 9 115 4 0 30 -51 58
-112 l49 -113 67 -3 67 -3 0 256 0 255 -60 0 -60 0 0 -122 c0 -75 -4 -118 -9
-112 -5 5 -30 59 -55 119 l-44 110 -71 3 -71 3 0 -256z"/>
</g>
</svg>
