<?xml version="1.0" standalone="no"?>
<!DOCTYPE svg PUBLIC "-//W3C//DTD SVG 20010904//EN"
 "http://www.w3.org/TR/2001/REC-SVG-20010904/DTD/svg10.dtd">
<svg version="1.0" xmlns="http://www.w3.org/2000/svg"
 width="1000.000000pt" height="750.000000pt" viewBox="0 0 1000.000000 750.000000"
 preserveAspectRatio="xMidYMid meet">

<g transform="translate(0.000000,750.000000) scale(0.100000,-0.100000)"
fill="#000000" stroke="none">
<path d="M0 3750 l0 -3750 5000 0 5000 0 0 3750 0 3750 -5000 0 -5000 0 0
-3750z m1876 790 c155 -40 280 -115 396 -238 83 -88 138 -180 180 -302 31 -90
32 -102 33 -245 0 -169 -12 -230 -71 -354 -98 -209 -264 -357 -485 -433 -83
-28 -110 -32 -230 -36 -165 -5 -255 14 -394 82 -486 239 -605 886 -237 1287
205 223 513 314 808 239z m1392 -474 c5 -39 -10 -46 -100 -46 l-78 0 -2 -307
-3 -308 -35 0 -35 0 -3 308 -2 307 -78 0 c-47 0 -83 5 -90 12 -13 13 -16 50
-5 62 4 3 102 5 217 4 l211 -3 3 -29z m487 -1 l0 -30 -157 -3 -158 -3 0 -124
0 -124 83 -3 c78 -3 82 -4 85 -27 5 -33 -12 -41 -95 -41 l-73 0 0 -120 0 -119
158 -3 157 -3 0 -30 0 -30 -190 -3 c-170 -2 -191 -1 -202 15 -17 22 -19 634
-3 664 10 18 21 19 203 17 l192 -3 0 -30z m187 -100 c38 -71 73 -133 76 -137
4 -4 39 52 77 124 39 72 78 136 88 142 20 13 50 -2 55 -27 2 -9 -33 -81 -77
-161 -45 -79 -81 -150 -81 -156 0 -6 36 -77 81 -156 88 -158 95 -189 44 -189
-28 0 -35 8 -106 138 l-77 139 -30 -54 c-16 -29 -51 -93 -77 -141 -42 -79 -50
-88 -73 -85 -55 7 -50 26 42 191 l86 156 -85 154 c-47 85 -85 159 -85 164 0
18 25 34 48 31 19 -2 38 -28 94 -133z m776 107 c6 -42 -14 -52 -99 -52 l-79 0
-2 -307 -3 -308 -35 0 -35 0 -3 308 -2 307 -74 0 c-41 0 -81 3 -90 6 -16 6
-22 54 -9 68 4 3 102 5 217 4 l211 -3 3 -23z m554 18 c45 -13 93 -51 116 -94
13 -25 17 -66 20 -219 4 -201 -3 -258 -40 -310 -37 -52 -87 -67 -228 -67 -85
0 -130 4 -138 12 -16 16 -17 640 -2 669 10 17 22 19 123 19 62 0 129 -5 149
-10z m663 -25 l0 -30 -157 -3 -158 -3 0 -124 0 -125 80 0 c68 0 81 -3 90 -19
18 -35 -12 -51 -96 -51 l-74 0 0 -120 0 -119 158 -3 157 -3 0 -30 0 -30 -195
0 -195 0 -3 339 c-2 265 1 341 10 348 7 4 96 7 198 5 l185 -2 0 -30z m483 7
c6 -42 -14 -52 -99 -52 l-79 0 -2 -307 -3 -308 -35 0 -35 0 -3 308 -2 307 -79
0 c-59 0 -84 4 -95 16 -19 18 -19 20 -6 45 10 18 21 19 223 17 l212 -3 3 -23z
m482 13 c6 -8 9 -23 5 -35 -6 -19 -14 -20 -166 -20 l-159 0 0 -125 0 -125 84
0 c78 0 85 -2 92 -22 10 -34 -19 -48 -103 -48 l-73 0 0 -120 0 -120 154 0
c164 0 185 -6 171 -50 -6 -20 -12 -20 -203 -18 l-197 3 -3 334 c-2 238 1 338
9 347 17 21 371 20 389 -1z m355 4 c83 -23 140 -92 133 -163 -3 -28 -6 -31
-37 -31 -32 0 -35 3 -47 46 -18 60 -51 83 -120 82 -113 -1 -124 -25 -124 -278
0 -218 6 -242 60 -265 43 -18 115 -15 145 4 16 10 29 33 36 61 13 52 38 72 69
55 47 -25 6 -137 -65 -177 -77 -43 -189 -40 -257 9 -60 42 -68 79 -68 313 0
183 3 215 19 251 38 84 146 123 256 93z m623 -23 c5 -39 -10 -46 -100 -46
l-78 0 -2 -307 -3 -308 -35 0 -35 0 -3 308 -2 307 -78 0 c-47 0 -83 5 -90 12
-13 13 -16 50 -5 62 4 3 102 5 217 4 l211 -3 3 -29z m150 26 c9 -7 12 -83 10
-348 l-3 -339 -23 -3 c-52 -8 -52 -5 -52 347 0 241 3 330 12 339 14 14 37 15
56 4z m427 -3 c51 -14 110 -73 124 -124 13 -48 14 -374 1 -429 -26 -113 -144
-170 -273 -132 -65 19 -112 66 -124 123 -13 63 -10 413 5 454 33 93 149 140
267 108z m342 -11 c11 -13 74 -128 139 -256 l119 -234 3 251 2 251 25 6 c55
14 55 11 55 -353 0 -298 -2 -334 -16 -340 -45 -17 -63 6 -192 257 l-127 245
-5 -250 -5 -250 -35 0 -35 0 -3 339 c-2 353 -2 355 39 356 8 0 25 -10 36 -22z"/>
<path d="M1487 4480 c-265 -67 -478 -279 -548 -546 -28 -107 -28 -269 0 -375
55 -212 202 -393 396 -489 106 -52 178 -70 305 -77 356 -18 669 214 766 568
24 87 25 279 1 369 -64 245 -254 449 -495 533 -76 26 -103 31 -217 33 -105 3
-145 0 -208 -16z m105 -367 c36 -39 48 -66 48 -107 0 -42 -12 -46 -28 -11 -18
38 -42 32 -42 -10 0 -19 -4 -35 -10 -35 -12 0 -40 53 -40 78 0 25 30 112 39
112 4 0 19 -12 33 -27z m294 -54 c-14 -85 -79 -169 -132 -169 l-25 0 20 26
c26 33 28 74 4 74 -10 0 -33 -9 -52 -21 l-34 -20 7 32 c7 38 29 65 71 87 41
21 74 30 114 31 l34 1 -7 -41z m-445 -71 c59 -25 114 -82 128 -132 12 -47 8
-55 -17 -33 -18 17 -84 47 -102 47 -19 0 -10 -57 15 -95 15 -20 24 -39 21 -42
-10 -10 -68 10 -97 34 -48 41 -89 141 -89 222 l0 33 48 -7 c26 -4 68 -16 93
-27z m200 -125 c9 -10 15 -8 30 10 16 17 15 11 -6 -30 -35 -73 -55 -156 -55
-230 l0 -63 38 15 c20 9 51 25 67 37 22 15 19 9 -15 -26 -24 -25 -52 -49 -62
-52 -26 -8 -24 -18 39 -162 4 -10 -4 -13 -33 -10 -38 3 -39 4 -51 53 -6 28
-12 97 -12 155 -1 95 -4 110 -31 164 -30 59 -15 61 21 2 16 -27 19 -28 24 -10
4 10 15 39 24 64 15 38 16 49 5 75 -7 17 -13 39 -13 50 0 17 2 16 10 -4 5 -14
15 -31 20 -38z m405 0 c-3 -10 -10 -38 -16 -63 -38 -143 -139 -249 -239 -250
l-34 0 20 23 c53 57 84 147 51 147 -30 0 -88 -22 -123 -46 l-38 -25 6 37 c18
113 149 187 340 193 32 1 38 -2 33 -16z"/>
<path d="M5078 4024 c-5 -4 -8 -131 -8 -282 l0 -274 94 4 c152 5 166 28 165
275 0 248 -14 271 -160 280 -46 3 -87 2 -91 -3z"/>
<path d="M8341 4020 c-18 -5 -43 -18 -55 -29 -20 -20 -21 -33 -24 -229 -3
-222 1 -250 43 -278 36 -23 120 -22 154 3 42 32 50 72 50 258 0 106 -5 183
-12 204 -20 58 -83 87 -156 71z"/>
</g>
</svg>
