<svg xmlns="http://www.w3.org/2000/svg" version="1.1" xmlns:xlink="http://www.w3.org/1999/xlink" xmlns:svgjs="http://svgjs.dev/svgjs" width="1000" height="750" viewBox="0 0 1000 750"><rect width="1000" height="750" fill="#000000"></rect><g transform="matrix(0.834,0,0,0.834,82.49455602932869,293.65419472295366)"><svg viewBox="0 0 396 78" data-background-color="#8dbdff" preserveAspectRatio="xMidYMid meet" height="196" width="1000" xmlns="http://www.w3.org/2000/svg" xmlns:xlink="http://www.w3.org/1999/xlink"><g id="tight-bounds" transform="matrix(1,0,0,1,0.23999497887990628,-0.18428025981489782)"><svg viewBox="0 0 395.52 78.36856051962977" height="78.36856051962977" width="395.52"><g><svg viewBox="0 0 519.4254059461892 102.91924899202871" height="78.36856051962977" width="395.52"><g transform="matrix(1,0,0,1,123.90540594618929,29.235682890174942)"><svg viewBox="0 0 395.52 44.44788321167883" height="44.44788321167883" width="395.52"><g id="textblocktransform"><svg viewBox="0 0 395.52 44.44788321167883" height="44.44788321167883" width="395.52" id="textblock"><g><svg viewBox="0 0 395.52 44.44788321167883" height="44.44788321167883" width="395.52"><g transform="matrix(1,0,0,1,0,0)"><svg width="395.52" viewBox="0.6000000238418579 -36.650001525878906 328.7699890136719 36.95000076293945" height="44.44788321167883" data-palette-color="#374151"><path d="M12.25 0L12.25 0Q11.45 0 10.8-0.38 10.15-0.75 10.15-1.5L10.15-1.5 10.15-32.65 2.05-32.65Q1.4-32.65 1-33.25 0.6-33.85 0.6-34.65L0.6-34.65Q0.6-35.35 0.95-35.95 1.3-36.55 2.05-36.55L2.05-36.55 22.45-36.55Q23.2-36.55 23.55-35.95 23.9-35.35 23.9-34.65L23.9-34.65Q23.9-33.9 23.55-33.27 23.2-32.65 22.45-32.65L22.45-32.65 14.35-32.65 14.35-1.5Q14.35-0.75 13.7-0.38 13.05 0 12.25 0ZM47.75 0L29.95 0Q29.25 0 28.65-0.38 28.05-0.75 28.05-1.5L28.05-1.5 28.05-35.05Q28.05-35.8 28.65-36.18 29.25-36.55 29.95-36.55L29.95-36.55 47.75-36.55Q48.55-36.55 48.87-35.95 49.2-35.35 49.2-34.7L49.2-34.7Q49.2-33.95 48.82-33.35 48.45-32.75 47.75-32.75L47.75-32.75 32.25-32.75 32.25-20.05 40.05-20.05Q40.75-20.05 41.12-19.5 41.5-18.95 41.5-18.25L41.5-18.25Q41.5-17.65 41.17-17.1 40.85-16.55 40.05-16.55L40.05-16.55 32.25-16.55 32.25-3.8 47.75-3.8Q48.45-3.8 48.82-3.23 49.2-2.65 49.2-1.85L49.2-1.85Q49.2-1.2 48.87-0.6 48.55 0 47.75 0L47.75 0ZM53.8 0.1L53.8 0.1Q53.25 0.1 52.65-0.18 52.05-0.45 51.62-0.93 51.2-1.4 51.2-1.95L51.2-1.95Q51.2-2.35 51.45-2.85L51.45-2.85 60.1-18.3 51.65-33.65Q51.3-34.25 51.3-34.75L51.3-34.75Q51.3-35.35 51.7-35.77 52.1-36.2 52.67-36.43 53.25-36.65 53.9-36.65L53.9-36.65Q54.55-36.65 55-36.18 55.45-35.7 55.7-35.05L55.7-35.05 62.8-21.75 69.9-35.05Q70.2-35.7 70.65-36.18 71.1-36.65 71.75-36.65L71.75-36.65Q72.35-36.65 72.95-36.43 73.55-36.2 73.92-35.77 74.3-35.35 74.3-34.75L74.3-34.75Q74.3-34.25 73.95-33.65L73.95-33.65 65.5-18.3 74.15-2.85Q74.4-2.35 74.4-1.95L74.4-1.95Q74.4-1.4 74-0.93 73.6-0.45 73-0.18 72.4 0.1 71.8 0.1L71.8 0.1Q71.25 0.1 70.85-0.35 70.45-0.8 70.2-1.3L70.2-1.3 62.8-14.95 55.45-1.3Q55.2-0.8 54.8-0.35 54.4 0.1 53.8 0.1ZM87.64 0L87.64 0Q86.84 0 86.19-0.38 85.54-0.75 85.54-1.5L85.54-1.5 85.54-32.65 77.44-32.65Q76.79-32.65 76.39-33.25 75.99-33.85 75.99-34.65L75.99-34.65Q75.99-35.35 76.34-35.95 76.69-36.55 77.44-36.55L77.44-36.55 97.84-36.55Q98.59-36.55 98.94-35.95 99.29-35.35 99.29-34.65L99.29-34.65Q99.29-33.9 98.94-33.27 98.59-32.65 97.84-32.65L97.84-32.65 89.74-32.65 89.74-1.5Q89.74-0.75 89.09-0.38 88.44 0 87.64 0ZM124.19 0L115.34 0Q114.49 0 113.96-0.43 113.44-0.85 113.44-1.45L113.44-1.45 113.44-35.1Q113.44-35.7 113.96-36.13 114.49-36.55 115.34-36.55L115.34-36.55 124.19-36.55Q127.24-36.55 129.69-35.48 132.14-34.4 133.56-32.02 134.99-29.65 134.99-25.65L134.99-25.65 134.99-10.9Q134.99-6.9 133.56-4.53 132.14-2.15 129.69-1.07 127.24 0 124.19 0L124.19 0ZM117.64-32.75L117.64-3.8 124.19-3.8Q127.29-3.8 129.04-5.53 130.79-7.25 130.79-10.9L130.79-10.9 130.79-25.65Q130.79-29.3 129.04-31.03 127.29-32.75 124.19-32.75L124.19-32.75 117.64-32.75ZM161.44 0L143.64 0Q142.94 0 142.34-0.38 141.74-0.75 141.74-1.5L141.74-1.5 141.74-35.05Q141.74-35.8 142.34-36.18 142.94-36.55 143.64-36.55L143.64-36.55 161.44-36.55Q162.24-36.55 162.56-35.95 162.89-35.35 162.89-34.7L162.89-34.7Q162.89-33.95 162.51-33.35 162.14-32.75 161.44-32.75L161.44-32.75 145.94-32.75 145.94-20.05 153.74-20.05Q154.44-20.05 154.81-19.5 155.19-18.95 155.19-18.25L155.19-18.25Q155.19-17.65 154.86-17.1 154.54-16.55 153.74-16.55L153.74-16.55 145.94-16.55 145.94-3.8 161.44-3.8Q162.14-3.8 162.51-3.23 162.89-2.65 162.89-1.85L162.89-1.85Q162.89-1.2 162.56-0.6 162.24 0 161.44 0L161.44 0ZM176.13 0L176.13 0Q175.33 0 174.68-0.38 174.03-0.75 174.03-1.5L174.03-1.5 174.03-32.65 165.93-32.65Q165.28-32.65 164.88-33.25 164.48-33.85 164.48-34.65L164.48-34.65Q164.48-35.35 164.83-35.95 165.18-36.55 165.93-36.55L165.93-36.55 186.33-36.55Q187.08-36.55 187.43-35.95 187.78-35.35 187.78-34.65L187.78-34.65Q187.78-33.9 187.43-33.27 187.08-32.65 186.33-32.65L186.33-32.65 178.23-32.65 178.23-1.5Q178.23-0.75 177.58-0.38 176.93 0 176.13 0ZM211.63 0L193.83 0Q193.13 0 192.53-0.38 191.93-0.75 191.93-1.5L191.93-1.5 191.93-35.05Q191.93-35.8 192.53-36.18 193.13-36.55 193.83-36.55L193.83-36.55 211.63-36.55Q212.43-36.55 212.76-35.95 213.08-35.35 213.08-34.7L213.08-34.7Q213.08-33.95 212.71-33.35 212.33-32.75 211.63-32.75L211.63-32.75 196.13-32.75 196.13-20.05 203.93-20.05Q204.63-20.05 205.01-19.5 205.38-18.95 205.38-18.25L205.38-18.25Q205.38-17.65 205.06-17.1 204.73-16.55 203.93-16.55L203.93-16.55 196.13-16.55 196.13-3.8 211.63-3.8Q212.33-3.8 212.71-3.23 213.08-2.65 213.08-1.85L213.08-1.85Q213.08-1.2 212.76-0.6 212.43 0 211.63 0L211.63 0ZM227.38 0.3L227.38 0.3Q224.48 0.3 222.03-0.78 219.58-1.85 218.13-4.25 216.68-6.65 216.68-10.6L216.68-10.6 216.68-25.65Q216.68-29.6 218.15-32 219.63-34.4 222.08-35.48 224.53-36.55 227.43-36.55L227.43-36.55Q230.83-36.55 233.23-35.4 235.63-34.25 236.93-32.27 238.23-30.3 238.23-27.85L238.23-27.85Q238.23-26.45 237.7-26 237.18-25.55 236.13-25.55L236.13-25.55Q235.13-25.55 234.6-25.95 234.08-26.35 234.03-27L234.03-27Q233.98-27.75 233.75-28.73 233.53-29.7 232.85-30.63 232.18-31.55 230.9-32.15 229.63-32.75 227.53-32.75L227.53-32.75Q224.33-32.75 222.6-31.03 220.88-29.3 220.88-25.65L220.88-25.65 220.88-10.6Q220.88-6.95 222.63-5.23 224.38-3.5 227.68-3.5L227.68-3.5Q229.78-3.5 231-4.1 232.23-4.7 232.83-5.6 233.43-6.5 233.68-7.53 233.93-8.55 234.03-9.45L234.03-9.45Q234.08-10.2 234.63-10.55 235.18-10.9 236.13-10.9L236.13-10.9Q237.18-10.9 237.7-10.43 238.23-9.95 238.23-8.55L238.23-8.55Q238.23-6.1 236.9-4.08 235.58-2.05 233.15-0.88 230.73 0.3 227.38 0.3ZM252.33 0L252.33 0Q251.53 0 250.88-0.38 250.23-0.75 250.23-1.5L250.23-1.5 250.23-32.65 242.13-32.65Q241.48-32.65 241.08-33.25 240.68-33.85 240.68-34.65L240.68-34.65Q240.68-35.35 241.03-35.95 241.38-36.55 242.13-36.55L242.13-36.55 262.53-36.55Q263.28-36.55 263.63-35.95 263.98-35.35 263.98-34.65L263.98-34.65Q263.98-33.9 263.63-33.27 263.28-32.65 262.53-32.65L262.53-32.65 254.43-32.65 254.43-1.5Q254.43-0.75 253.78-0.38 253.13 0 252.33 0ZM270.22 0L270.22 0Q269.47 0 268.8-0.38 268.12-0.75 268.12-1.5L268.12-1.5 268.12-35.1Q268.12-35.85 268.8-36.2 269.47-36.55 270.22-36.55L270.22-36.55Q271.02-36.55 271.67-36.2 272.32-35.85 272.32-35.1L272.32-35.1 272.32-1.5Q272.32-0.75 271.67-0.38 271.02 0 270.22 0ZM289.87 0.3L289.87 0.3Q286.82 0.3 284.4-0.78 281.97-1.85 280.55-4.23 279.12-6.6 279.12-10.6L279.12-10.6 279.12-25.65Q279.12-29.65 280.55-32.02 281.97-34.4 284.4-35.48 286.82-36.55 289.87-36.55L289.87-36.55Q292.92-36.55 295.37-35.48 297.82-34.4 299.25-32.02 300.67-29.65 300.67-25.65L300.67-25.65 300.67-10.6Q300.67-6.6 299.25-4.23 297.82-1.85 295.37-0.78 292.92 0.3 289.87 0.3ZM289.87-3.5L289.87-3.5Q292.97-3.5 294.72-5.23 296.47-6.95 296.47-10.6L296.47-10.6 296.47-25.65Q296.47-29.3 294.72-31.03 292.97-32.75 289.87-32.75L289.87-32.75Q286.77-32.75 285.05-31.03 283.32-29.3 283.32-25.65L283.32-25.65 283.32-10.6Q283.32-6.95 285.05-5.23 286.77-3.5 289.87-3.5ZM309.52 0L309.52 0Q308.77 0 308.09-0.38 307.42-0.75 307.42-1.5L307.42-1.5 307.42-35.1Q307.42-35.9 308.09-36.23 308.77-36.55 309.52-36.55L309.52-36.55Q310.32-36.55 310.87-36.25 311.42-35.95 311.87-35.38 312.32-34.8 312.77-33.9L312.77-33.9 325.17-9.55 325.17-35.1Q325.17-35.85 325.84-36.2 326.52-36.55 327.27-36.55L327.27-36.55Q328.07-36.55 328.72-36.2 329.37-35.85 329.37-35.1L329.37-35.1 329.37-1.5Q329.37-0.75 328.72-0.38 328.07 0 327.27 0L327.27 0Q326.47 0 325.79-0.55 325.12-1.1 324.67-1.9L324.67-1.9 311.62-27.05 311.62-1.5Q311.62-0.75 310.97-0.38 310.32 0 309.52 0Z" opacity="1" transform="matrix(1,0,0,1,0,0)" fill="#ffffff" class="undefined-text-0" data-fill-palette-color="primary" id="text-0"></path></svg></g></svg></g></svg></g></svg></g><g><svg viewBox="0 0 102.91924899202871 102.91924899202871" height="102.91924899202871" width="102.91924899202871"><g><svg></svg></g><g id="icon-0"><svg viewBox="0 0 102.91924899202871 102.91924899202871" height="102.91924899202871" width="102.91924899202871"><g><path d="M0 51.46c0-28.42 23.039-51.46 51.46-51.46 28.42 0 51.46 23.039 51.459 51.46 0 28.42-23.039 51.46-51.459 51.459-28.42 0-51.46-23.039-51.46-51.459zM51.46 98.911c26.207 0 47.451-21.245 47.451-47.451 0-26.207-21.245-47.451-47.451-47.452-26.207 0-47.451 21.245-47.452 47.452 0 26.207 21.245 47.451 47.452 47.451z" data-fill-palette-color="accent" fill="#ffffff" stroke="transparent"></path></g><g transform="matrix(1,0,0,1,27.88382147878533,26.54846436072819)"><svg viewBox="0 0 47.151606034458055 49.822320270572334" height="49.822320270572334" width="47.151606034458055"><g><svg xmlns="http://www.w3.org/2000/svg" xmlns:xlink="http://www.w3.org/1999/xlink" version="1.1" x="0" y="0" viewBox="14.751998901367188 11.691999435424805 73.18000793457031 77.32499694824219" enable-background="new 0 0 100 100" xml:space="preserve" height="49.822320270572334" width="47.151606034458055" class="icon-s-0" data-fill-palette-color="accent" id="s-0"><path fill="#ffffff" d="M61.64 58.881c-7.924 9.351-16.084 9.953-16.044 10.52-2.867-21.792 10.982-37.815 10.982-37.815-2.932 2.908-5.308 5.971-7.229 9.104 0.133-0.221 0.224-0.371 0.224-0.371-3.369-2.856-5.174-11.592-5.174-11.592 0.793 10.315 3.651 14.212 3.651 14.212 0.256-0.487 0.697-1.241 1.041-1.817-2.927 4.887-4.749 9.935-5.813 14.842 0.046-0.237 0.075-0.386 0.075-0.386-1.904-5.694-8.476-10.188-8.476-10.188 5.237 5.395 7.674 14.616 7.674 14.616 0.026-0.203 0.082-0.541 0.15-0.936-2.529 16.138 2.583 29.947 2.583 29.947h7.432c-3.517-5.776-5.59-11.39-6.639-16.701 0.099 0.438 0.17 0.688 0.17 0.688C54.498 69.195 61.64 58.881 61.64 58.881z" data-fill-palette-color="accent"></path><path fill="#ffffff" d="M51.316 59.684c0 0-3.159-22.583 36.616-22.119 0 0-4.555 34.476-28.624 31.875 0 0 8.829-7.395 8.829-15.872C68.138 53.568 61.35 50.951 51.316 59.684z" data-fill-palette-color="accent"></path><path fill="#ffffff" d="M34.543 51.682c0 0-18.061 3.744-19.791-28.382 0 0 28.069 1.85 27.243 21.414 0 0-6.435-6.733-13.277-6.285C28.719 38.429 26.965 44.047 34.543 51.682z" data-fill-palette-color="accent"></path><path fill="#ffffff" d="M51.258 31.022c0 0-3.108-13.878 21.645-15.606 0 0-1.084 21.666-16.18 21.27 0 0 5.112-5.046 4.684-10.315C61.406 26.37 57.053 25.086 51.258 31.022z" data-fill-palette-color="accent"></path><path fill="#ffffff" d="M41.5 31.083c0 0-9.766-3.453-1.254-19.391 0 0 12.947 9.051 6.862 18.211 0 0-1.134-5.105-4.552-6.881C42.556 23.022 40.08 25.212 41.5 31.083z" data-fill-palette-color="accent"></path></svg></g></svg></g></svg></g></svg></g></svg></g><defs></defs></svg><rect width="395.52" height="78.36856051962977" fill="none" stroke="none" visibility="hidden"></rect></g></svg></g></svg>